%TF.GenerationSoftware,Altium Limited,Altium Designer,20.2.5 (213)*%
G04 Layer_Physical_Order=2*
G04 Layer_Color=36540*
%FSLAX45Y45*%
%MOMM*%
%TF.SameCoordinates,5D993310-1A5F-4332-B3F0-AAC5B6D9B5DA*%
%TF.FilePolarity,Positive*%
%TF.FileFunction,Copper,L2,Inr,Signal*%
%TF.Part,Single*%
G01*
G75*
%TA.AperFunction,Conductor*%
%ADD10C,0.70000*%
%TA.AperFunction,ComponentPad*%
%ADD22R,1.50000X1.50000*%
%ADD23C,1.50000*%
%ADD24R,1.30000X1.30000*%
%ADD25C,1.30000*%
%ADD26R,1.30000X1.30000*%
%ADD27R,1.20000X1.20000*%
%ADD28C,1.20000*%
%TA.AperFunction,ViaPad*%
%ADD29C,1.52400*%
%TA.AperFunction,ComponentPad*%
%ADD30R,1.20000X1.20000*%
%TA.AperFunction,ViaPad*%
%ADD31C,0.50000*%
G36*
X8490000Y5380000D02*
X6690000D01*
Y5469858D01*
X6702700Y5474169D01*
X6706811Y5468811D01*
X6725612Y5454385D01*
X6747505Y5445317D01*
X6771000Y5442224D01*
X6794495Y5445317D01*
X6816388Y5454385D01*
X6835189Y5468811D01*
X6849614Y5487612D01*
X6858683Y5509505D01*
X6861776Y5533000D01*
X6858683Y5556495D01*
X6849614Y5578388D01*
X6835189Y5597188D01*
X6816388Y5611614D01*
X6794495Y5620683D01*
X6771000Y5623776D01*
X6747505Y5620683D01*
X6725612Y5611614D01*
X6706811Y5597188D01*
X6702700Y5591831D01*
X6690000Y5596142D01*
Y5774439D01*
X7064790D01*
Y5774014D01*
X7114847Y5777953D01*
X7163671Y5789675D01*
X7210061Y5808890D01*
X7252873Y5835125D01*
X7291054Y5867736D01*
X7290753Y5868037D01*
X7984825Y6562108D01*
X7993561Y6570844D01*
X8003129Y6578407D01*
X8006206Y6580769D01*
X8013747Y6574983D01*
X8039289Y6564403D01*
X8066700Y6560794D01*
X8094110Y6564403D01*
X8119653Y6574983D01*
X8141587Y6591813D01*
X8158417Y6613747D01*
X8168997Y6639289D01*
X8172606Y6666700D01*
X8168997Y6694110D01*
X8158417Y6719653D01*
X8141587Y6741587D01*
X8119653Y6758417D01*
X8094110Y6768997D01*
X8066700Y6772606D01*
X8039289Y6768997D01*
X8013747Y6758417D01*
X7991813Y6741587D01*
X7984657Y6732261D01*
X7428510D01*
X7427645Y6732147D01*
X7391709Y6735686D01*
X7356322Y6746421D01*
X7323708Y6763853D01*
X7295795Y6786761D01*
X7295264Y6787453D01*
X6820754Y7261963D01*
X6821093Y7262302D01*
X6821092Y7262303D01*
X6811678Y7270716D01*
X6765782Y7311730D01*
X6705287Y7354655D01*
X6690000Y7363103D01*
Y7475000D01*
X6795500D01*
Y7665000D01*
X6690000D01*
Y8393358D01*
X6702700Y8397669D01*
X6706811Y8392311D01*
X6725612Y8377885D01*
X6747505Y8368817D01*
X6771000Y8365724D01*
X6794495Y8368817D01*
X6816388Y8377885D01*
X6835189Y8392311D01*
X6849614Y8411112D01*
X6858683Y8433005D01*
X6861776Y8456500D01*
X6858683Y8479995D01*
X6849614Y8501888D01*
X6835189Y8520689D01*
X6816388Y8535115D01*
X6794495Y8544183D01*
X6771000Y8547276D01*
X6747505Y8544183D01*
X6725612Y8535115D01*
X6706811Y8520689D01*
X6702700Y8515331D01*
X6690000Y8519642D01*
Y9069784D01*
X6773235Y9153018D01*
X6794495Y9155817D01*
X6816388Y9164886D01*
X6835189Y9179312D01*
X6849614Y9198112D01*
X6858683Y9220005D01*
X6861776Y9243500D01*
X6858683Y9266995D01*
X6849614Y9288888D01*
X6835189Y9307689D01*
X6816388Y9322115D01*
X6794495Y9331183D01*
X6771000Y9334276D01*
X6747505Y9331183D01*
X6725612Y9322115D01*
X6706811Y9307689D01*
X6702700Y9302331D01*
X6690000Y9306642D01*
Y9380000D01*
X8490000D01*
Y5380000D01*
D02*
G37*
G36*
X6718893Y7177830D02*
X6728036Y7169246D01*
X6728038Y7169245D01*
X6737015Y7160268D01*
X7202546Y6694737D01*
X7202547Y6694736D01*
X7202246Y6694435D01*
X7240427Y6661825D01*
X7283240Y6635590D01*
X7329629Y6616375D01*
X7331780Y6615858D01*
X7337546Y6604542D01*
X7337446Y6604300D01*
X7334181Y6579500D01*
X7337446Y6554700D01*
X7347018Y6531590D01*
X7362246Y6511745D01*
X7382090Y6496518D01*
X7405200Y6486945D01*
X7430000Y6483680D01*
X7454800Y6486945D01*
X7477910Y6496518D01*
X7497755Y6511745D01*
X7512982Y6531590D01*
X7522555Y6554700D01*
X7525820Y6579500D01*
X7524228Y6591591D01*
X7532602Y6601139D01*
X7821829D01*
X7826689Y6589406D01*
X7198037Y5960753D01*
X7197506Y5960061D01*
X7169592Y5937153D01*
X7136979Y5919721D01*
X7101591Y5908986D01*
X7065655Y5905447D01*
X7064790Y5905561D01*
X6690000D01*
Y6256858D01*
X6702700Y6261169D01*
X6706811Y6255811D01*
X6725612Y6241386D01*
X6747505Y6232317D01*
X6771000Y6229224D01*
X6794495Y6232317D01*
X6816388Y6241386D01*
X6835189Y6255811D01*
X6849614Y6274612D01*
X6858683Y6296505D01*
X6861776Y6320000D01*
X6858683Y6343495D01*
X6849614Y6365388D01*
X6835189Y6384189D01*
X6816388Y6398615D01*
X6794495Y6407683D01*
X6771000Y6410776D01*
X6747505Y6407683D01*
X6725612Y6398615D01*
X6706811Y6384189D01*
X6702700Y6378831D01*
X6690000Y6383142D01*
Y7187782D01*
X6701568Y7193024D01*
X6718893Y7177830D01*
D02*
G37*
%LPC*%
G36*
X7369000Y9333500D02*
X7189000D01*
Y9153500D01*
X7369000D01*
Y9333500D01*
D02*
G37*
G36*
X7025000Y9334276D02*
X7001505Y9331183D01*
X6979612Y9322115D01*
X6960811Y9307689D01*
X6946385Y9288888D01*
X6937317Y9266995D01*
X6934224Y9243500D01*
X6937317Y9220005D01*
X6946385Y9198112D01*
X6960811Y9179312D01*
X6979612Y9164886D01*
X7001505Y9155817D01*
X7025000Y9152724D01*
X7048495Y9155817D01*
X7070388Y9164886D01*
X7089189Y9179312D01*
X7103614Y9198112D01*
X7112683Y9220005D01*
X7115776Y9243500D01*
X7112683Y9266995D01*
X7103614Y9288888D01*
X7089189Y9307689D01*
X7070388Y9322115D01*
X7048495Y9331183D01*
X7025000Y9334276D01*
D02*
G37*
G36*
X8079399Y9052294D02*
Y8965400D01*
X8166294D01*
X8164516Y8978910D01*
X8154399Y9003333D01*
X8138306Y9024306D01*
X8117333Y9040399D01*
X8092910Y9050516D01*
X8079399Y9052294D01*
D02*
G37*
G36*
X8053999Y9052294D02*
X8040490Y9050516D01*
X8016067Y9040399D01*
X7995094Y9024306D01*
X7979001Y9003333D01*
X7968884Y8978910D01*
X7967106Y8965400D01*
X8053999D01*
Y9052294D01*
D02*
G37*
G36*
X8172117Y8940000D02*
X8066699D01*
X7961283D01*
X7952217Y8930934D01*
X7942936Y8922255D01*
X7939414Y8918131D01*
X7934256Y8912973D01*
X7788036Y8766753D01*
X7787736Y8767054D01*
X7755125Y8728873D01*
X7728890Y8686060D01*
X7709675Y8639671D01*
X7697953Y8590846D01*
X7694014Y8540790D01*
X7694439D01*
Y8307710D01*
X7694553Y8306845D01*
X7691014Y8270909D01*
X7680279Y8235521D01*
X7662847Y8202908D01*
X7639939Y8174994D01*
X7639247Y8174463D01*
X7347578Y7882794D01*
X7332597Y7885774D01*
X7328615Y7895388D01*
X7314189Y7914189D01*
X7295388Y7928615D01*
X7273495Y7937683D01*
X7250000Y7940776D01*
X7226505Y7937683D01*
X7204612Y7928615D01*
X7185811Y7914189D01*
X7171385Y7895388D01*
X7162317Y7873495D01*
X7159224Y7850000D01*
X7162317Y7826505D01*
X7171385Y7804612D01*
X7185811Y7785811D01*
X7204612Y7771386D01*
X7214226Y7767403D01*
X7217206Y7752422D01*
X7063642Y7598858D01*
X7053223Y7585280D01*
X7046673Y7569468D01*
X7044440Y7552500D01*
X7046673Y7535532D01*
X7053223Y7519720D01*
X7063642Y7506141D01*
X7077220Y7495722D01*
X7093032Y7489173D01*
X7110000Y7486939D01*
X7126968Y7489173D01*
X7142780Y7495722D01*
X7156358Y7506141D01*
X7731963Y8081747D01*
X7732264Y8081446D01*
X7764874Y8119627D01*
X7791110Y8162439D01*
X7810325Y8208829D01*
X7822047Y8257653D01*
X7825986Y8307710D01*
X7825561D01*
Y8540790D01*
X7825447Y8541655D01*
X7828986Y8577591D01*
X7836940Y8603810D01*
X7849640Y8601926D01*
Y7623058D01*
X7851874Y7606090D01*
X7858423Y7590278D01*
X7868842Y7576700D01*
X7882420Y7566281D01*
X7898232Y7559732D01*
X7915200Y7557498D01*
X7932169Y7559732D01*
X7947981Y7566281D01*
X7961559Y7576700D01*
X7971977Y7590278D01*
X7978527Y7606090D01*
X7980761Y7623058D01*
Y8085700D01*
X8171700D01*
Y8295700D01*
X7980761D01*
Y8365489D01*
X7993461Y8368548D01*
X8013747Y8352983D01*
X8039289Y8342403D01*
X8066700Y8338794D01*
X8094110Y8342403D01*
X8119653Y8352983D01*
X8141587Y8369813D01*
X8158417Y8391747D01*
X8168997Y8417289D01*
X8171739Y8438119D01*
X8184439Y8437286D01*
Y7620710D01*
X8184535Y7619981D01*
X8181042Y7593446D01*
X8170518Y7568040D01*
X8154225Y7546806D01*
X8153642Y7546358D01*
X7778037Y7170753D01*
X7777506Y7170061D01*
X7749592Y7147153D01*
X7716979Y7129721D01*
X7681591Y7118986D01*
X7644988Y7115381D01*
X7644790Y7115561D01*
Y7115561D01*
X7627821Y7113327D01*
X7612010Y7106777D01*
X7598432Y7096358D01*
X7588013Y7082780D01*
X7581463Y7066969D01*
X7579229Y7050000D01*
X7581463Y7033032D01*
X7588013Y7017220D01*
X7598432Y7003642D01*
X7612010Y6993223D01*
X7627821Y6986673D01*
X7644790Y6984439D01*
Y6984014D01*
X7694847Y6987953D01*
X7743671Y6999675D01*
X7790061Y7018890D01*
X7832873Y7045126D01*
X7871054Y7077736D01*
X7870753Y7078037D01*
X8246358Y7453641D01*
X8246359Y7453641D01*
X8246768Y7453232D01*
X8276224Y7489123D01*
X8298111Y7530072D01*
X8311589Y7574503D01*
X8316140Y7620710D01*
X8315561D01*
Y8664189D01*
X8315986D01*
X8312047Y8714246D01*
X8300325Y8763071D01*
X8281110Y8809460D01*
X8254875Y8852273D01*
X8222264Y8890454D01*
X8221963Y8890153D01*
X8172117Y8940000D01*
D02*
G37*
G36*
X7279000Y8547276D02*
X7255505Y8544183D01*
X7233612Y8535115D01*
X7214811Y8520689D01*
X7200385Y8501888D01*
X7191317Y8479995D01*
X7188224Y8456500D01*
X7191317Y8433005D01*
X7200385Y8411112D01*
X7214811Y8392311D01*
X7233612Y8377885D01*
X7255505Y8368817D01*
X7279000Y8365724D01*
X7302495Y8368817D01*
X7324388Y8377885D01*
X7343189Y8392311D01*
X7357614Y8411112D01*
X7366683Y8433005D01*
X7369776Y8456500D01*
X7366683Y8479995D01*
X7357614Y8501888D01*
X7343189Y8520689D01*
X7324388Y8535115D01*
X7302495Y8544183D01*
X7279000Y8547276D01*
D02*
G37*
G36*
X7025000D02*
X7001505Y8544183D01*
X6979612Y8535115D01*
X6960811Y8520689D01*
X6946385Y8501888D01*
X6937317Y8479995D01*
X6934224Y8456500D01*
X6937317Y8433005D01*
X6946385Y8411112D01*
X6960811Y8392311D01*
X6979612Y8377885D01*
X7001505Y8368817D01*
X7025000Y8365724D01*
X7048495Y8368817D01*
X7070388Y8377885D01*
X7089189Y8392311D01*
X7103614Y8411112D01*
X7112683Y8433005D01*
X7115776Y8456500D01*
X7112683Y8479995D01*
X7103614Y8501888D01*
X7089189Y8520689D01*
X7070388Y8535115D01*
X7048495Y8544183D01*
X7025000Y8547276D01*
D02*
G37*
G36*
X7230100Y7476078D02*
X7208640Y7471809D01*
X7190447Y7459653D01*
X7178291Y7441460D01*
X7174023Y7420000D01*
X7178291Y7398540D01*
X7190447Y7380347D01*
X7208640Y7368192D01*
X7230100Y7363923D01*
X7251560Y7368192D01*
X7269753Y7380347D01*
X7281909Y7398540D01*
X7286177Y7420000D01*
X7281909Y7441460D01*
X7269753Y7459653D01*
X7251560Y7471809D01*
X7230100Y7476078D01*
D02*
G37*
G36*
X7571518Y7442472D02*
X7550058Y7438203D01*
X7531865Y7426047D01*
X7519709Y7407855D01*
X7515441Y7386395D01*
X7519709Y7364935D01*
X7531865Y7346742D01*
X7550058Y7334586D01*
X7571518Y7330317D01*
X7592978Y7334586D01*
X7611171Y7346742D01*
X7623327Y7364935D01*
X7627595Y7386395D01*
X7623327Y7407855D01*
X7611171Y7426047D01*
X7592978Y7438203D01*
X7571518Y7442472D01*
D02*
G37*
G36*
X7525000Y7055500D02*
X7335000D01*
Y6865500D01*
X7525000D01*
Y7055500D01*
D02*
G37*
G36*
X8066700Y6518606D02*
X8039289Y6514997D01*
X8013747Y6504417D01*
X7991813Y6487587D01*
X7974983Y6465653D01*
X7964403Y6440110D01*
X7960794Y6412700D01*
X7964403Y6385289D01*
X7974983Y6359747D01*
X7991813Y6337813D01*
X8013747Y6320983D01*
X8039289Y6310403D01*
X8066700Y6306794D01*
X8094110Y6310403D01*
X8119653Y6320983D01*
X8141587Y6337813D01*
X8158417Y6359747D01*
X8168997Y6385289D01*
X8172606Y6412700D01*
X8168997Y6440110D01*
X8158417Y6465653D01*
X8141587Y6487587D01*
X8119653Y6504417D01*
X8094110Y6514997D01*
X8066700Y6518606D01*
D02*
G37*
G36*
Y6264606D02*
X8039289Y6260997D01*
X8013747Y6250417D01*
X7991813Y6233587D01*
X7974983Y6211653D01*
X7964403Y6186110D01*
X7960794Y6158700D01*
X7964403Y6131289D01*
X7974983Y6105747D01*
X7991813Y6083813D01*
X8013747Y6066983D01*
X8039289Y6056403D01*
X8066700Y6052794D01*
X8094110Y6056403D01*
X8119653Y6066983D01*
X8141587Y6083813D01*
X8158417Y6105747D01*
X8168997Y6131289D01*
X8172606Y6158700D01*
X8168997Y6186110D01*
X8158417Y6211653D01*
X8141587Y6233587D01*
X8119653Y6250417D01*
X8094110Y6260997D01*
X8066700Y6264606D01*
D02*
G37*
G36*
X8171700Y6009700D02*
X7961700D01*
Y5799700D01*
X8171700D01*
Y6009700D01*
D02*
G37*
G36*
X7279000Y5623776D02*
X7255505Y5620683D01*
X7233612Y5611614D01*
X7214811Y5597188D01*
X7200385Y5578388D01*
X7191317Y5556495D01*
X7188224Y5533000D01*
X7191317Y5509505D01*
X7200385Y5487612D01*
X7214811Y5468811D01*
X7233612Y5454385D01*
X7255505Y5445317D01*
X7279000Y5442224D01*
X7302495Y5445317D01*
X7324388Y5454385D01*
X7343189Y5468811D01*
X7357614Y5487612D01*
X7366683Y5509505D01*
X7369776Y5533000D01*
X7366683Y5556495D01*
X7357614Y5578388D01*
X7343189Y5597188D01*
X7324388Y5611614D01*
X7302495Y5620683D01*
X7279000Y5623776D01*
D02*
G37*
G36*
X7025000D02*
X7001505Y5620683D01*
X6979612Y5611614D01*
X6960811Y5597188D01*
X6946385Y5578388D01*
X6937317Y5556495D01*
X6934224Y5533000D01*
X6937317Y5509505D01*
X6946385Y5487612D01*
X6960811Y5468811D01*
X6979612Y5454385D01*
X7001505Y5445317D01*
X7025000Y5442224D01*
X7048495Y5445317D01*
X7070388Y5454385D01*
X7089189Y5468811D01*
X7103614Y5487612D01*
X7112683Y5509505D01*
X7115776Y5533000D01*
X7112683Y5556495D01*
X7103614Y5578388D01*
X7089189Y5597188D01*
X7070388Y5611614D01*
X7048495Y5620683D01*
X7025000Y5623776D01*
D02*
G37*
%LPD*%
G36*
X8183027Y8680555D02*
X8184553Y8665055D01*
X8184439Y8664189D01*
Y8452113D01*
X8171739Y8451281D01*
X8168997Y8472110D01*
X8158417Y8497653D01*
X8141587Y8519587D01*
X8119653Y8536417D01*
X8094110Y8546997D01*
X8066700Y8550606D01*
X8039289Y8546997D01*
X8013747Y8536417D01*
X7993461Y8520851D01*
X7980761Y8523911D01*
Y8619489D01*
X7993461Y8622548D01*
X8013747Y8606983D01*
X8039289Y8596403D01*
X8066700Y8592794D01*
X8094110Y8596403D01*
X8119653Y8606983D01*
X8141587Y8623813D01*
X8158417Y8645747D01*
X8168997Y8671289D01*
X8170245Y8680764D01*
X8183027Y8680555D01*
D02*
G37*
%LPC*%
G36*
X7369000Y6410000D02*
X7189000D01*
Y6230000D01*
X7369000D01*
Y6410000D01*
D02*
G37*
G36*
X7025000Y6410776D02*
X7001505Y6407683D01*
X6979612Y6398615D01*
X6960811Y6384189D01*
X6946385Y6365388D01*
X6937317Y6343495D01*
X6934224Y6320000D01*
X6937317Y6296505D01*
X6946385Y6274612D01*
X6960811Y6255811D01*
X6979612Y6241386D01*
X7001505Y6232317D01*
X7025000Y6229224D01*
X7048495Y6232317D01*
X7070388Y6241386D01*
X7089189Y6255811D01*
X7103614Y6274612D01*
X7112683Y6296505D01*
X7115776Y6320000D01*
X7112683Y6343495D01*
X7103614Y6365388D01*
X7089189Y6384189D01*
X7070388Y6398615D01*
X7048495Y6407683D01*
X7025000Y6410776D01*
D02*
G37*
%LPD*%
D10*
X7248905Y6741095D02*
G03*
X7428510Y6666700I179605J179605D01*
G01*
X7429986Y6579514D02*
G03*
X7430000Y6579500I3610J3582D01*
G01*
X7428510Y6583096D02*
G03*
X7429986Y6579514I5086J0D01*
G01*
X6428395Y8545105D02*
G03*
X6248790Y8619500I-179605J-179605D01*
G01*
X6422789Y9000500D02*
G03*
X6602394Y9074895I0J254000D01*
G01*
X5767066Y5562130D02*
G03*
X5755000Y5533000I29130J-29130D01*
G01*
X6130710Y5840000D02*
G03*
X5984285Y5779349I0J-207076D01*
G01*
X7989595Y8875595D02*
G03*
X7915200Y8695990I179605J-179605D01*
G01*
X8250000Y8664189D02*
G03*
X8175605Y8843795I-254000J0D01*
G01*
X8200000Y7500000D02*
G03*
X8250000Y7620710I-120710J120710D01*
G01*
X7644790Y7050000D02*
G03*
X7824395Y7124395I0J254000D01*
G01*
X7685605Y8128105D02*
G03*
X7760000Y8307710I-179605J179605D01*
G01*
X7834395Y8720395D02*
G03*
X7760000Y8540790I179605J-179605D01*
G01*
X4239265Y7569605D02*
G03*
X4079659Y7410000I0J-159605D01*
G01*
X6774395Y7215605D02*
G03*
X6353369Y7390000I-421027J-421026D01*
G01*
X4860636Y7466000D02*
G03*
X4606636Y7720000I-254000J0D01*
G01*
X4556000D02*
G03*
X4480000Y7644000I0J-76000D01*
G01*
X1194395Y7244395D02*
G03*
X1120000Y7064790I179605J-179605D01*
G01*
X1465210Y7410000D02*
G03*
X1285605Y7335605I0J-254000D01*
G01*
X8066700Y6666700D02*
G03*
X7947203Y6617202I0J-168995D01*
G01*
X7064790Y5840000D02*
G03*
X7244395Y5914395I0J254000D01*
G01*
X7428510Y6666700D02*
X8066700D01*
X7244395Y5914395D02*
X7947203Y6617202D01*
X7428510Y6583096D02*
Y6666700D01*
X6428395Y8545105D02*
X6517000Y8456500D01*
X5260000Y8619500D02*
X6248790D01*
X6602394Y9074895D02*
X6771000Y9243500D01*
X5260000Y9000500D02*
X6422789D01*
X5767066Y5562130D02*
X5984285Y5779349D01*
X6130710Y5840000D02*
X7064790D01*
X8066700Y8952700D02*
X8175605Y8843795D01*
X7834395Y8720395D02*
X7989595Y8875595D01*
X8066700Y8952700D01*
X8250000Y7620710D02*
Y8664189D01*
X7915200Y7623058D02*
Y8695990D01*
X7824395Y7124395D02*
X8200000Y7500000D01*
X7110000Y7552500D02*
X7685605Y8128105D01*
X7760000Y8307710D02*
Y8540790D01*
X4239265Y7569605D02*
X4300395D01*
X4860636Y7390000D02*
Y7466000D01*
X6353369Y7390000D02*
Y7390000D01*
X4860636D02*
X6353369D01*
X4556000Y7720000D02*
X4606636D01*
X1194395Y7244395D02*
X1285605Y7335605D01*
X1465210Y7410000D02*
X4079659D01*
X6774395Y7215605D02*
X7248905Y6741095D01*
X1120000Y5760000D02*
Y7064790D01*
D22*
X8066700Y8190700D02*
D03*
X1024550D02*
D03*
X8066700Y5904700D02*
D03*
D23*
Y8444700D02*
D03*
Y8698700D02*
D03*
Y8952700D02*
D03*
X1024550Y8444700D02*
D03*
Y8698700D02*
D03*
Y8952700D02*
D03*
X8066700Y6666700D02*
D03*
Y6412700D02*
D03*
Y6158700D02*
D03*
D24*
X5260000Y9000500D02*
D03*
X7430000Y6960500D02*
D03*
D25*
X5260000Y8619500D02*
D03*
X6319500Y7570000D02*
D03*
X7430000Y6579500D02*
D03*
X4480000Y7136000D02*
D03*
Y7644000D02*
D03*
X4734000Y7390000D02*
D03*
X4659605Y7210395D02*
D03*
X4300395D02*
D03*
X4659605Y7569605D02*
D03*
X4300395D02*
D03*
X6490500Y8100000D02*
D03*
D26*
X6700500Y7570000D02*
D03*
X4226000Y7390000D02*
D03*
X6109500Y8100000D02*
D03*
D27*
X1798700Y7220000D02*
D03*
X6487400Y7850000D02*
D03*
D28*
X2561300Y7220000D02*
D03*
X7250000Y7850000D02*
D03*
X7279000Y8456500D02*
D03*
X7025000D02*
D03*
X6771000D02*
D03*
X6517000D02*
D03*
X6263000D02*
D03*
X6009000D02*
D03*
X5755000D02*
D03*
X5501000D02*
D03*
Y9243500D02*
D03*
X5755000D02*
D03*
X6009000D02*
D03*
X6263000D02*
D03*
X6517000D02*
D03*
X6771000D02*
D03*
X7025000D02*
D03*
X7279000Y5533000D02*
D03*
X7025000D02*
D03*
X6771000D02*
D03*
X6517000D02*
D03*
X6263000D02*
D03*
X6009000D02*
D03*
X5755000D02*
D03*
X5501000D02*
D03*
Y6320000D02*
D03*
X5755000D02*
D03*
X6009000D02*
D03*
X6263000D02*
D03*
X6517000D02*
D03*
X6771000D02*
D03*
X7025000D02*
D03*
D29*
X1350000Y7635000D02*
D03*
D30*
X7279000Y9243500D02*
D03*
Y6320000D02*
D03*
D31*
X7571518Y7386395D02*
D03*
X7230100Y7420000D02*
D03*
X1430000Y5740000D02*
D03*
X1120000Y5760000D02*
D03*
X1243200Y5920200D02*
D03*
X7915200Y7623058D02*
D03*
X7110000Y7552500D02*
D03*
X757701Y6722700D02*
D03*
%TF.MD5,80d6df1eec9cb41d12d9c1e17a07923a*%
M02*
