%TF.GenerationSoftware,Altium Limited,Altium Designer,20.2.5 (213)*%
G04 Layer_Color=32896*
%FSLAX45Y45*%
%MOMM*%
%TF.SameCoordinates,5D993310-1A5F-4332-B3F0-AAC5B6D9B5DA*%
%TF.FilePolarity,Positive*%
%TF.FileFunction,Legend,Bot*%
%TF.Part,Single*%
G01*
G75*
%TA.AperFunction,NonConductor*%
%ADD32C,0.20000*%
%ADD33C,0.12700*%
G36*
X6289938Y7961424D02*
X6288039Y7958610D01*
X6287054Y7957343D01*
X6286139Y7956077D01*
X6285224Y7954951D01*
X6284310Y7953896D01*
X6283465Y7952911D01*
X6282692Y7951996D01*
X6281988Y7951152D01*
X6281284Y7950448D01*
X6280721Y7949886D01*
X6280229Y7949323D01*
X6279807Y7948971D01*
X6279525Y7948619D01*
X6279314Y7948478D01*
X6279244Y7948408D01*
X6278118Y7947493D01*
X6276922Y7946649D01*
X6275656Y7945805D01*
X6274389Y7945101D01*
X6273264Y7944468D01*
X6272771Y7944187D01*
X6272349Y7943975D01*
X6271997Y7943764D01*
X6271716Y7943694D01*
X6271575Y7943553D01*
X6271505D01*
X6274037Y7943131D01*
X6276430Y7942639D01*
X6278611Y7942005D01*
X6280651Y7941372D01*
X6282480Y7940598D01*
X6284239Y7939895D01*
X6285717Y7939121D01*
X6287124Y7938347D01*
X6288320Y7937573D01*
X6289305Y7936869D01*
X6290220Y7936236D01*
X6290923Y7935673D01*
X6291486Y7935181D01*
X6291908Y7934829D01*
X6292119Y7934618D01*
X6292190Y7934548D01*
X6293386Y7933211D01*
X6294441Y7931733D01*
X6295356Y7930326D01*
X6296130Y7928849D01*
X6296763Y7927371D01*
X6297326Y7925893D01*
X6297748Y7924486D01*
X6298100Y7923150D01*
X6298381Y7921883D01*
X6298592Y7920757D01*
X6298733Y7919702D01*
X6298874Y7918858D01*
Y7918084D01*
X6298944Y7917521D01*
Y7917239D01*
Y7917099D01*
X6298874Y7915621D01*
X6298804Y7914144D01*
X6298592Y7912737D01*
X6298311Y7911400D01*
X6298030Y7910133D01*
X6297678Y7908937D01*
X6297256Y7907811D01*
X6296904Y7906756D01*
X6296552Y7905841D01*
X6296130Y7904997D01*
X6295778Y7904223D01*
X6295497Y7903590D01*
X6295215Y7903097D01*
X6295075Y7902746D01*
X6294934Y7902535D01*
X6294863Y7902464D01*
X6294090Y7901268D01*
X6293245Y7900142D01*
X6292331Y7899157D01*
X6291486Y7898172D01*
X6290572Y7897328D01*
X6289657Y7896554D01*
X6288742Y7895921D01*
X6287898Y7895288D01*
X6287124Y7894795D01*
X6286350Y7894373D01*
X6285717Y7893951D01*
X6285154Y7893670D01*
X6284662Y7893458D01*
X6284310Y7893318D01*
X6284099Y7893177D01*
X6284028D01*
X6282692Y7892684D01*
X6281214Y7892262D01*
X6279666Y7891911D01*
X6278118Y7891629D01*
X6274811Y7891137D01*
X6273193Y7890996D01*
X6271645Y7890855D01*
X6270097Y7890714D01*
X6268761Y7890644D01*
X6267494Y7890574D01*
X6266368D01*
X6265524Y7890503D01*
X6221128D01*
Y7987879D01*
X6234004D01*
Y7944609D01*
X6250679D01*
X6252156Y7944679D01*
X6253423Y7944749D01*
X6254408Y7944820D01*
X6255111Y7944960D01*
X6255674Y7945031D01*
X6256026Y7945101D01*
X6256096D01*
X6257222Y7945453D01*
X6258277Y7945805D01*
X6259262Y7946297D01*
X6260107Y7946719D01*
X6260881Y7947071D01*
X6261443Y7947423D01*
X6261795Y7947634D01*
X6261936Y7947704D01*
X6263062Y7948478D01*
X6264187Y7949463D01*
X6265243Y7950589D01*
X6266298Y7951644D01*
X6267142Y7952630D01*
X6267846Y7953474D01*
X6268127Y7953826D01*
X6268338Y7954037D01*
X6268409Y7954177D01*
X6268479Y7954248D01*
X6269183Y7955162D01*
X6269957Y7956147D01*
X6271505Y7958258D01*
X6273052Y7960510D01*
X6274530Y7962691D01*
X6275163Y7963676D01*
X6275796Y7964590D01*
X6276359Y7965435D01*
X6276852Y7966209D01*
X6277204Y7966771D01*
X6277485Y7967264D01*
X6277696Y7967545D01*
X6277766Y7967616D01*
X6290642Y7987879D01*
X6306754D01*
X6289938Y7961424D01*
D02*
G37*
G36*
X6348476Y7989356D02*
X6351291Y7989005D01*
X6353894Y7988371D01*
X6356356Y7987668D01*
X6358678Y7986753D01*
X6360789Y7985768D01*
X6362689Y7984713D01*
X6364448Y7983587D01*
X6365995Y7982461D01*
X6367332Y7981406D01*
X6368458Y7980421D01*
X6369443Y7979506D01*
X6370147Y7978732D01*
X6370709Y7978169D01*
X6370991Y7977818D01*
X6371132Y7977677D01*
X6372468Y7975848D01*
X6373664Y7973948D01*
X6374720Y7972048D01*
X6375634Y7970078D01*
X6376338Y7968179D01*
X6376971Y7966279D01*
X6377464Y7964450D01*
X6377886Y7962691D01*
X6378238Y7961072D01*
X6378449Y7959595D01*
X6378660Y7958258D01*
X6378730Y7957062D01*
X6378801Y7956147D01*
X6378871Y7955444D01*
Y7955233D01*
Y7955022D01*
Y7954951D01*
Y7954881D01*
X6378801Y7952348D01*
X6378519Y7949956D01*
X6378027Y7947634D01*
X6377534Y7945453D01*
X6376831Y7943483D01*
X6376057Y7941583D01*
X6375283Y7939895D01*
X6374509Y7938347D01*
X6373664Y7936940D01*
X6372890Y7935673D01*
X6372117Y7934618D01*
X6371483Y7933774D01*
X6370920Y7933070D01*
X6370428Y7932577D01*
X6370147Y7932226D01*
X6370076Y7932155D01*
X6368388Y7930607D01*
X6366629Y7929200D01*
X6364799Y7928075D01*
X6362970Y7927019D01*
X6361141Y7926175D01*
X6359382Y7925471D01*
X6357623Y7924838D01*
X6356005Y7924416D01*
X6354457Y7924064D01*
X6352979Y7923783D01*
X6351713Y7923572D01*
X6350587Y7923431D01*
X6349743Y7923361D01*
X6349039Y7923290D01*
X6348476D01*
X6346717Y7923361D01*
X6344888Y7923572D01*
X6343199Y7923853D01*
X6341511Y7924275D01*
X6339963Y7924697D01*
X6338415Y7925190D01*
X6337008Y7925753D01*
X6335671Y7926316D01*
X6334475Y7926949D01*
X6333349Y7927441D01*
X6332435Y7928004D01*
X6331661Y7928426D01*
X6330957Y7928849D01*
X6330535Y7929130D01*
X6330183Y7929341D01*
X6330113Y7929411D01*
X6335319Y7903168D01*
X6374298D01*
Y7891770D01*
X6325821D01*
X6316393Y7941794D01*
X6327650Y7943272D01*
X6328706Y7941794D01*
X6329902Y7940458D01*
X6331098Y7939332D01*
X6332224Y7938347D01*
X6333279Y7937573D01*
X6334123Y7937010D01*
X6334475Y7936799D01*
X6334686Y7936658D01*
X6334827Y7936518D01*
X6334897D01*
X6336656Y7935603D01*
X6338485Y7934970D01*
X6340244Y7934477D01*
X6341863Y7934196D01*
X6342637Y7934055D01*
X6343270Y7933985D01*
X6343903Y7933914D01*
X6344395D01*
X6344818Y7933844D01*
X6345381D01*
X6347069Y7933914D01*
X6348687Y7934125D01*
X6350235Y7934407D01*
X6351713Y7934759D01*
X6353050Y7935181D01*
X6354246Y7935744D01*
X6355371Y7936236D01*
X6356427Y7936799D01*
X6357341Y7937362D01*
X6358115Y7937854D01*
X6358819Y7938347D01*
X6359382Y7938839D01*
X6359874Y7939191D01*
X6360156Y7939473D01*
X6360367Y7939684D01*
X6360437Y7939754D01*
X6361422Y7940880D01*
X6362337Y7942146D01*
X6363111Y7943413D01*
X6363744Y7944749D01*
X6364307Y7946157D01*
X6364799Y7947493D01*
X6365151Y7948760D01*
X6365503Y7950026D01*
X6365714Y7951293D01*
X6365925Y7952348D01*
X6366066Y7953403D01*
X6366136Y7954248D01*
Y7954951D01*
X6366206Y7955514D01*
Y7955796D01*
Y7955936D01*
X6366136Y7957906D01*
X6365925Y7959736D01*
X6365644Y7961495D01*
X6365292Y7963183D01*
X6364799Y7964731D01*
X6364307Y7966138D01*
X6363744Y7967405D01*
X6363251Y7968601D01*
X6362689Y7969656D01*
X6362126Y7970571D01*
X6361633Y7971345D01*
X6361141Y7971978D01*
X6360789Y7972470D01*
X6360507Y7972893D01*
X6360296Y7973104D01*
X6360226Y7973174D01*
X6359100Y7974300D01*
X6357904Y7975285D01*
X6356638Y7976199D01*
X6355442Y7976903D01*
X6354175Y7977536D01*
X6352979Y7978099D01*
X6351783Y7978521D01*
X6350657Y7978803D01*
X6349602Y7979084D01*
X6348617Y7979295D01*
X6347702Y7979436D01*
X6346999Y7979577D01*
X6346366D01*
X6345943Y7979647D01*
X6345521D01*
X6344184Y7979577D01*
X6342918Y7979436D01*
X6341722Y7979225D01*
X6340596Y7978943D01*
X6339470Y7978592D01*
X6338485Y7978169D01*
X6337500Y7977818D01*
X6336656Y7977325D01*
X6335882Y7976903D01*
X6335249Y7976551D01*
X6334616Y7976129D01*
X6334123Y7975777D01*
X6333701Y7975496D01*
X6333420Y7975285D01*
X6333279Y7975144D01*
X6333209Y7975074D01*
X6332294Y7974159D01*
X6331450Y7973174D01*
X6330746Y7972119D01*
X6330042Y7970993D01*
X6329480Y7969867D01*
X6328987Y7968671D01*
X6328143Y7966490D01*
X6327791Y7965435D01*
X6327510Y7964450D01*
X6327298Y7963535D01*
X6327087Y7962761D01*
X6326947Y7962128D01*
X6326876Y7961706D01*
X6326806Y7961354D01*
Y7961284D01*
X6314282Y7962339D01*
X6314564Y7964590D01*
X6315056Y7966701D01*
X6315619Y7968741D01*
X6316252Y7970641D01*
X6317026Y7972400D01*
X6317871Y7974018D01*
X6318644Y7975496D01*
X6319489Y7976833D01*
X6320333Y7978029D01*
X6321107Y7979084D01*
X6321881Y7979999D01*
X6322514Y7980773D01*
X6323077Y7981336D01*
X6323499Y7981758D01*
X6323781Y7982039D01*
X6323851Y7982110D01*
X6325469Y7983376D01*
X6327158Y7984572D01*
X6328987Y7985557D01*
X6330746Y7986401D01*
X6332575Y7987105D01*
X6334405Y7987668D01*
X6336164Y7988160D01*
X6337852Y7988582D01*
X6339400Y7988864D01*
X6340878Y7989075D01*
X6342214Y7989286D01*
X6343340Y7989356D01*
X6344255Y7989427D01*
X6344958Y7989497D01*
X6345521D01*
X6348476Y7989356D01*
D02*
G37*
%LPC*%
G36*
X6263132Y7933422D02*
X6234004D01*
Y7901268D01*
X6264750D01*
X6266720Y7901339D01*
X6268550Y7901479D01*
X6270238Y7901690D01*
X6271786Y7901972D01*
X6273193Y7902324D01*
X6274530Y7902675D01*
X6275726Y7903097D01*
X6276711Y7903520D01*
X6277626Y7903942D01*
X6278400Y7904364D01*
X6279103Y7904716D01*
X6279666Y7905068D01*
X6280018Y7905349D01*
X6280370Y7905560D01*
X6280510Y7905701D01*
X6280581Y7905771D01*
X6281495Y7906615D01*
X6282269Y7907530D01*
X6282903Y7908445D01*
X6283536Y7909430D01*
X6284028Y7910344D01*
X6284380Y7911329D01*
X6284732Y7912244D01*
X6285013Y7913088D01*
X6285224Y7913933D01*
X6285365Y7914707D01*
X6285506Y7915340D01*
X6285576Y7915973D01*
X6285647Y7916465D01*
Y7916817D01*
Y7917028D01*
Y7917099D01*
X6285506Y7918858D01*
X6285224Y7920476D01*
X6284802Y7921953D01*
X6284380Y7923220D01*
X6283888Y7924275D01*
X6283677Y7924768D01*
X6283465Y7925120D01*
X6283254Y7925401D01*
X6283184Y7925612D01*
X6283043Y7925753D01*
Y7925823D01*
X6281988Y7927230D01*
X6280792Y7928426D01*
X6279525Y7929411D01*
X6278259Y7930256D01*
X6277133Y7930889D01*
X6276711Y7931100D01*
X6276289Y7931311D01*
X6275937Y7931452D01*
X6275656Y7931592D01*
X6275515Y7931663D01*
X6275445D01*
X6274460Y7931944D01*
X6273475Y7932226D01*
X6271223Y7932648D01*
X6268901Y7933000D01*
X6266720Y7933211D01*
X6265665Y7933281D01*
X6264750Y7933351D01*
X6263836D01*
X6263132Y7933422D01*
D02*
G37*
%LPD*%
D32*
X6194690Y8010000D02*
X6405310D01*
X6194690Y8190000D02*
X6405310D01*
D33*
X484800Y5377650D02*
Y9378150D01*
X8485800Y7377900D02*
Y9378150D01*
Y5377650D02*
Y7377900D01*
X484800Y5377650D02*
X8485800D01*
X484800Y9378150D02*
X8485800D01*
%TF.MD5,959065f852ad4d4a1df94f427534c25b*%
M02*
