%TF.GenerationSoftware,Altium Limited,Altium Designer,23.3.1 (30)*%
G04 Layer_Physical_Order=4*
G04 Layer_Color=16711680*
%FSLAX45Y45*%
%MOMM*%
%TF.SameCoordinates,5C971558-4B59-40B4-890D-9BFF8048EDD7*%
%TF.FilePolarity,Positive*%
%TF.FileFunction,Copper,L4,Bot,Signal*%
%TF.Part,Single*%
G01*
G75*
%TA.AperFunction,Conductor*%
%ADD10C,0.70000*%
%TA.AperFunction,SMDPad,CuDef*%
%ADD18R,0.90620X0.85490*%
%TA.AperFunction,ComponentPad*%
%ADD23R,1.20000X1.20000*%
%ADD24C,1.20000*%
%ADD25C,1.30000*%
%ADD26R,1.30000X1.30000*%
%ADD27C,1.50000*%
%ADD28R,1.50000X1.50000*%
%ADD29R,1.20000X1.20000*%
%TA.AperFunction,ViaPad*%
%ADD30C,0.50000*%
%TA.AperFunction,SMDPad,CuDef*%
%ADD32R,0.85490X0.90620*%
G04:AMPARAMS|DCode=33|XSize=0.7562mm|YSize=1.1062mm|CornerRadius=0mm|HoleSize=0mm|Usage=FLASHONLY|Rotation=135.000|XOffset=0mm|YOffset=0mm|HoleType=Round|Shape=Rectangle|*
%AMROTATEDRECTD33*
4,1,4,0.65846,0.12374,-0.12374,-0.65846,-0.65846,-0.12374,0.12374,0.65846,0.65846,0.12374,0.0*
%
%ADD33ROTATEDRECTD33*%

D10*
X8281000Y6259000D02*
G03*
X8450000Y6090000I169000J0D01*
G01*
X8859500D02*
G03*
X9037000Y6226961I0J183500D01*
G01*
X9043000Y6273500D02*
G03*
X9037000Y6267500I0J-6000D01*
G01*
X9300000Y5814870D02*
G03*
X9297000Y5811870I0J-3000D01*
G01*
Y5943000D02*
G03*
X9300000Y5940000I3000J0D01*
G01*
X9040000Y5489500D02*
G03*
X9043000Y5486500I3000J0D01*
G01*
X9037000Y5938564D02*
G03*
X9040365Y5941541I2999J0D01*
G01*
X8535000Y8670000D02*
G03*
X8281000Y8416000I0J-254000D01*
G01*
X9043000D02*
G03*
X8789000Y8670000I-254000J0D01*
G01*
X11680000Y8800000D02*
G03*
X11550000Y8930000I-130000J0D01*
G01*
X11668162Y6910156D02*
G03*
X11680000Y7810000I11838J449844D01*
G01*
X8314000Y8930000D02*
G03*
X8060000Y8676000I0J-254000D01*
G01*
X7493300Y8063300D02*
G03*
X7501518Y8055082I8218J0D01*
G01*
X7493300Y8063300D02*
G03*
X7320000Y7890000I0J-173300D01*
G01*
X7474000Y9070000D02*
G03*
X7190000Y8786000I0J-284000D01*
G01*
X7320000Y6180000D02*
G03*
X7468700Y6031300I148700J0D01*
G01*
X7190000Y5983951D02*
G03*
X7446119Y5772763I215129J-0D01*
G01*
X7806000Y8063300D02*
G03*
X8060000Y8317300I0J254000D01*
G01*
X9930000Y8285000D02*
G03*
X9805000Y8410000I-125000J0D01*
G01*
X11225927Y7360000D02*
G03*
X11357089Y7046586I464713J10327D01*
G01*
X9930000Y7624000D02*
G03*
X10194000Y7360000I264000J0D01*
G01*
X9037000Y5938564D02*
Y6226961D01*
X8450000Y6090000D02*
X8859500D01*
X9297000Y6273500D02*
X9551000D01*
X9554500Y6270000D01*
X9551000Y6273500D02*
X10059000D01*
X9801500Y6270000D02*
X9805000Y6273500D01*
X8281000Y5486500D02*
X8535000D01*
X8281000Y6259000D02*
Y6273500D01*
X9043000D02*
X9297000D01*
X9554500Y6270000D02*
X9801500D01*
X9043000Y5486500D02*
X9805000D01*
X10059000D01*
X9037000Y6226961D02*
Y6267500D01*
X8535000Y6273500D02*
X8789000D01*
X9297000Y5486500D02*
Y5811870D01*
X9300000Y5814869D02*
Y5814870D01*
X9297000Y5943000D02*
Y6273500D01*
X9040000Y5489500D02*
Y5807435D01*
X8535000Y8670000D02*
X8597435D01*
X8281000Y8410000D02*
Y8416000D01*
X8722565Y8670000D02*
X8789000D01*
X9043000Y8410000D02*
Y8416000D01*
X11427480Y7361480D02*
X11546692D01*
X11416000Y7350000D02*
X11427480Y7361480D01*
X11546692D02*
X11610619Y7425407D01*
X11614593D01*
X8314000Y8930000D02*
X11550000D01*
X11680000Y7810000D02*
Y8800000D01*
X11668162Y6910156D02*
X11670000Y6911994D01*
X8060000Y8317300D02*
Y8676000D01*
X7474000Y9070000D02*
X14260001D01*
X7501518Y8055082D02*
X7799424D01*
X7468700Y6031300D02*
X7493300D01*
X7320000Y6180000D02*
Y7890000D01*
X7190000Y5984140D02*
Y8786000D01*
X7190000Y5983951D02*
X7190000Y5984140D01*
X7446119Y5772763D02*
X7449226Y5773062D01*
X11670000Y7219185D02*
X11745407Y7294593D01*
X11670000Y7096000D02*
Y7219185D01*
X7449226Y5773062D02*
X7493300Y5777300D01*
X8535000Y8410000D02*
X8789000D01*
X9551000Y9197000D02*
X9805000D01*
X9297000D02*
X9551000D01*
X8789000D02*
X9043000D01*
X9551000Y8410000D02*
Y8607435D01*
Y8410000D02*
X9805000D01*
X9297000D02*
X9551000D01*
X9043000D02*
X9297000D01*
X8281000Y9197000D02*
X8535000D01*
X10194000Y7360000D02*
X11225927D01*
X11357089Y7046586D02*
X11480898Y7170395D01*
X9930000Y7624000D02*
Y8285000D01*
X9550000Y8732565D02*
Y8820000D01*
Y8607435D02*
X9551000D01*
X9550000Y8732565D02*
X9552565D01*
X8280000Y8410000D02*
X8281000D01*
X11670000Y6911994D02*
Y7096000D01*
X11480898Y7170395D02*
X11490395D01*
D18*
X9300000Y5814870D02*
D03*
Y5940000D02*
D03*
X9040000Y5807435D02*
D03*
Y5932565D02*
D03*
X9550000Y8732565D02*
D03*
Y8607435D02*
D03*
D23*
X8281000Y5486500D02*
D03*
Y8410000D02*
D03*
D24*
X8535000Y5486500D02*
D03*
X8789000D02*
D03*
X9043000D02*
D03*
X9297000D02*
D03*
X9551000D02*
D03*
X9805000D02*
D03*
X10059000D02*
D03*
Y6273500D02*
D03*
X9805000D02*
D03*
X9551000D02*
D03*
X9297000D02*
D03*
X9043000D02*
D03*
X8789000D02*
D03*
X8535000D02*
D03*
X8281000D02*
D03*
X8535000Y8410000D02*
D03*
X8789000D02*
D03*
X9043000D02*
D03*
X9297000D02*
D03*
X9551000D02*
D03*
X9805000D02*
D03*
X10059000D02*
D03*
Y9197000D02*
D03*
X9805000D02*
D03*
X9551000D02*
D03*
X9297000D02*
D03*
X9043000D02*
D03*
X8789000D02*
D03*
X8535000D02*
D03*
X8281000D02*
D03*
X9731300Y7230000D02*
D03*
X8968700Y7470000D02*
D03*
D25*
X11849605Y7170395D02*
D03*
X11490395D02*
D03*
X11849605Y7529605D02*
D03*
X11490395D02*
D03*
X11416000Y7350000D02*
D03*
X11670000Y7096000D02*
D03*
Y7604000D02*
D03*
X9169500Y6930000D02*
D03*
D26*
X11924000Y7350000D02*
D03*
X9550500Y6930000D02*
D03*
D27*
X7493300Y5777300D02*
D03*
Y6031300D02*
D03*
Y6285300D02*
D03*
Y8571300D02*
D03*
Y8317300D02*
D03*
Y8063300D02*
D03*
X14535451Y6285300D02*
D03*
Y6031300D02*
D03*
Y5777300D02*
D03*
D28*
X7493300Y6539300D02*
D03*
Y8825300D02*
D03*
X14535451Y6539300D02*
D03*
D29*
X8968700Y7230000D02*
D03*
X9731300Y7470000D02*
D03*
D30*
X14210001Y7890000D02*
D03*
X11310000Y5640000D02*
D03*
X9550000Y8820000D02*
D03*
X14260001Y9070000D02*
D03*
X14839999Y8620000D02*
D03*
X13780000Y8880000D02*
D03*
X8880000Y7780000D02*
D03*
X14439999Y8960000D02*
D03*
D32*
X8597435Y8670000D02*
D03*
X8722565D02*
D03*
D33*
X11614593Y7425407D02*
D03*
X11745407Y7294593D02*
D03*
%TF.MD5,1ed49af37864df81dff4412dfdec5dc8*%
M02*
