%TF.GenerationSoftware,Altium Limited,Altium Designer,20.2.5 (213)*%
G04 Layer_Color=8388736*
%FSLAX45Y45*%
%MOMM*%
%TF.SameCoordinates,5D993310-1A5F-4332-B3F0-AAC5B6D9B5DA*%
%TF.FilePolarity,Negative*%
%TF.FileFunction,Soldermask,Top*%
%TF.Part,Single*%
G01*
G75*
%TA.AperFunction,SMDPad,CuDef*%
%ADD11R,0.75620X1.10620*%
%ADD12R,1.13504X1.06213*%
%ADD16R,2.33000X1.99000*%
%ADD17R,1.10620X0.75620*%
%ADD18R,1.06213X1.13504*%
%ADD20R,0.85490X0.90620*%
%ADD21R,0.90620X0.85490*%
%TA.AperFunction,ComponentPad*%
%ADD24R,1.30000X1.30000*%
%ADD25C,1.30000*%
%ADD26R,1.30000X1.30000*%
%ADD27R,1.20000X1.20000*%
%ADD28C,1.20000*%
%ADD30R,1.20000X1.20000*%
%ADD34R,1.70320X1.70320*%
%ADD35C,1.70320*%
%TA.AperFunction,ViaPad*%
%ADD36C,1.72720*%
%ADD37C,0.70320*%
%TA.AperFunction,SMDPad,CuDef*%
%ADD41R,1.15320X2.10320*%
%ADD42R,3.45320X2.10320*%
G04:AMPARAMS|DCode=43|XSize=0.8532mm|YSize=1.8532mm|CornerRadius=0.15035mm|HoleSize=0mm|Usage=FLASHONLY|Rotation=180.000|XOffset=0mm|YOffset=0mm|HoleType=Round|Shape=RoundedRectangle|*
%AMROUNDEDRECTD43*
21,1,0.85320,1.55250,0,0,180.0*
21,1,0.55250,1.85320,0,0,180.0*
1,1,0.30070,-0.27625,0.77625*
1,1,0.30070,0.27625,0.77625*
1,1,0.30070,0.27625,-0.77625*
1,1,0.30070,-0.27625,-0.77625*
%
%ADD43ROUNDEDRECTD43*%
G04:AMPARAMS|DCode=44|XSize=0.8532mm|YSize=1.8532mm|CornerRadius=0.15035mm|HoleSize=0mm|Usage=FLASHONLY|Rotation=270.000|XOffset=0mm|YOffset=0mm|HoleType=Round|Shape=RoundedRectangle|*
%AMROUNDEDRECTD44*
21,1,0.85320,1.55250,0,0,270.0*
21,1,0.55250,1.85320,0,0,270.0*
1,1,0.30070,-0.77625,-0.27625*
1,1,0.30070,-0.77625,0.27625*
1,1,0.30070,0.77625,0.27625*
1,1,0.30070,0.77625,-0.27625*
%
%ADD44ROUNDEDRECTD44*%
G36*
X3257009Y7384281D02*
Y7336228D01*
X3264549Y7240420D01*
X3279583Y7145499D01*
X3302018Y7052050D01*
X3331716Y6960650D01*
X3368493Y6871861D01*
X3412124Y6786232D01*
X3462338Y6704289D01*
X3518827Y6626539D01*
X3581242Y6553461D01*
X3649197Y6485505D01*
X3722276Y6423090D01*
X3800026Y6366601D01*
X3881968Y6316387D01*
X3967598Y6272757D01*
X4056386Y6235979D01*
X4147787Y6206281D01*
X4241236Y6183846D01*
X4336157Y6168812D01*
X4431965Y6161272D01*
X4480017D01*
X4528069D01*
X4623877Y6168812D01*
X4718798Y6183846D01*
X4812247Y6206281D01*
X4903648Y6235979D01*
X4992437Y6272757D01*
X5078066Y6316387D01*
X5160008Y6366601D01*
X5237758Y6423090D01*
X5310837Y6485505D01*
X5378793Y6553461D01*
X5441207Y6626539D01*
X5497696Y6704289D01*
X5547910Y6786232D01*
X5591541Y6871861D01*
X5628318Y6960650D01*
X5658016Y7052050D01*
X5680451Y7145499D01*
X5695485Y7240420D01*
X5703026Y7336228D01*
Y7384281D01*
Y7432333D01*
X5695485Y7528141D01*
X5680451Y7623062D01*
X5658016Y7716511D01*
X5628318Y7807911D01*
X5591541Y7896700D01*
X5547910Y7982329D01*
X5497696Y8064272D01*
X5441207Y8142022D01*
X5378793Y8215100D01*
X5310837Y8283056D01*
X5237758Y8345471D01*
X5160008Y8401960D01*
X5078066Y8452174D01*
X4992437Y8495804D01*
X4903648Y8532582D01*
X4812247Y8562280D01*
X4718798Y8584715D01*
X4623877Y8599749D01*
X4528069Y8607289D01*
X4480017D01*
X4431965D01*
X4336157Y8599749D01*
X4241236Y8584715D01*
X4147787Y8562280D01*
X4056386Y8532582D01*
X3967598Y8495804D01*
X3881968Y8452174D01*
X3800026Y8401960D01*
X3722276Y8345471D01*
X3649197Y8283056D01*
X3581242Y8215100D01*
X3518827Y8142022D01*
X3462338Y8064272D01*
X3412124Y7982329D01*
X3368493Y7896700D01*
X3331716Y7807911D01*
X3302018Y7716511D01*
X3279583Y7623062D01*
X3264549Y7528141D01*
X3257009Y7432333D01*
Y7384281D01*
D01*
D02*
G37*
D11*
X8302500Y7570000D02*
D03*
X8117500D02*
D03*
X1117500Y5740000D02*
D03*
X1302500D02*
D03*
X7615200Y7842700D02*
D03*
X7430200D02*
D03*
X757701Y6722700D02*
D03*
X942700D02*
D03*
D12*
X6661539Y7270000D02*
D03*
X6498461D02*
D03*
D16*
X7680000Y8278000D02*
D03*
Y8880000D02*
D03*
D17*
X7110000Y7367500D02*
D03*
Y7552500D02*
D03*
X1590000Y6712500D02*
D03*
Y6527500D02*
D03*
D18*
Y6331540D02*
D03*
Y6168461D02*
D03*
D20*
X1712565Y6010000D02*
D03*
X1587435D02*
D03*
D21*
X1120000Y6812565D02*
D03*
Y6687435D02*
D03*
D24*
X5260000Y9000500D02*
D03*
X7430000Y6960500D02*
D03*
D25*
X5260000Y8619500D02*
D03*
X6319500Y7570000D02*
D03*
X7430000Y6579500D02*
D03*
X4480000Y7136000D02*
D03*
Y7644000D02*
D03*
X4734000Y7390000D02*
D03*
X4659605Y7210395D02*
D03*
X4300395D02*
D03*
X4659605Y7569605D02*
D03*
X4300395D02*
D03*
X6490500Y8100000D02*
D03*
D26*
X6700500Y7570000D02*
D03*
X4226000Y7390000D02*
D03*
X6109500Y8100000D02*
D03*
D27*
X1798700Y7220000D02*
D03*
X6487400Y7850000D02*
D03*
D28*
X2561300Y7220000D02*
D03*
X7250000Y7850000D02*
D03*
X7279000Y8456500D02*
D03*
X7025000D02*
D03*
X6771000D02*
D03*
X6517000D02*
D03*
X6263000D02*
D03*
X6009000D02*
D03*
X5755000D02*
D03*
X5501000D02*
D03*
Y9243500D02*
D03*
X5755000D02*
D03*
X6009000D02*
D03*
X6263000D02*
D03*
X6517000D02*
D03*
X6771000D02*
D03*
X7025000D02*
D03*
X7279000Y5533000D02*
D03*
X7025000D02*
D03*
X6771000D02*
D03*
X6517000D02*
D03*
X6263000D02*
D03*
X6009000D02*
D03*
X5755000D02*
D03*
X5501000D02*
D03*
Y6320000D02*
D03*
X5755000D02*
D03*
X6009000D02*
D03*
X6263000D02*
D03*
X6517000D02*
D03*
X6771000D02*
D03*
X7025000D02*
D03*
D30*
X7279000Y9243500D02*
D03*
Y6320000D02*
D03*
D34*
X8066700Y8190700D02*
D03*
X1024550D02*
D03*
X8066700Y5904700D02*
D03*
D35*
Y8444700D02*
D03*
Y8698700D02*
D03*
Y8952700D02*
D03*
X1024550Y8444700D02*
D03*
Y8698700D02*
D03*
Y8952700D02*
D03*
X8066700Y6666700D02*
D03*
Y6412700D02*
D03*
Y6158700D02*
D03*
D36*
X1350000Y7635000D02*
D03*
D37*
X7571518Y7386395D02*
D03*
X7230100Y7420000D02*
D03*
X1430000Y5740000D02*
D03*
X1120000Y5760000D02*
D03*
X1243200Y5920200D02*
D03*
X7915200Y7623058D02*
D03*
X7110000Y7552500D02*
D03*
X757701Y6722700D02*
D03*
D41*
X1120000Y7025000D02*
D03*
X1350000Y7025000D02*
D03*
X1580000Y7025000D02*
D03*
D42*
X1350000Y7635000D02*
D03*
D43*
X862200Y5920200D02*
D03*
X989200D02*
D03*
X1116200D02*
D03*
X1243200D02*
D03*
X862200Y6485200D02*
D03*
X989200D02*
D03*
X1116200D02*
D03*
X1243200D02*
D03*
D44*
X7350200Y7623058D02*
D03*
Y7496058D02*
D03*
Y7369058D02*
D03*
Y7242058D02*
D03*
X7915200Y7623058D02*
D03*
Y7496058D02*
D03*
Y7369058D02*
D03*
Y7242058D02*
D03*
%TF.MD5,80526edf3faefac03294e993b956dd26*%
M02*
