%TF.GenerationSoftware,Altium Limited,Altium Designer,20.2.5 (213)*%
G04 Layer_Physical_Order=3*
G04 Layer_Color=16440176*
%FSLAX45Y45*%
%MOMM*%
%TF.SameCoordinates,5D993310-1A5F-4332-B3F0-AAC5B6D9B5DA*%
%TF.FilePolarity,Positive*%
%TF.FileFunction,Copper,L3,Inr,Signal*%
%TF.Part,Single*%
G01*
G75*
%TA.AperFunction,Conductor*%
%ADD10C,0.70000*%
%TA.AperFunction,ComponentPad*%
%ADD22R,1.50000X1.50000*%
%ADD23C,1.50000*%
%ADD24R,1.30000X1.30000*%
%ADD25C,1.30000*%
%ADD26R,1.30000X1.30000*%
%ADD27R,1.20000X1.20000*%
%ADD28C,1.20000*%
%TA.AperFunction,ViaPad*%
%ADD29C,1.52400*%
%TA.AperFunction,ComponentPad*%
%ADD30R,1.20000X1.20000*%
%TA.AperFunction,ViaPad*%
%ADD31C,0.50000*%
G36*
X8490000Y5380000D02*
X6690000D01*
Y5469858D01*
X6702700Y5474169D01*
X6706811Y5468811D01*
X6725612Y5454385D01*
X6747505Y5445317D01*
X6771000Y5442224D01*
X6794495Y5445317D01*
X6816388Y5454385D01*
X6835189Y5468811D01*
X6849614Y5487612D01*
X6858683Y5509505D01*
X6861776Y5533000D01*
X6858683Y5556495D01*
X6849614Y5578388D01*
X6835189Y5597188D01*
X6816388Y5611614D01*
X6794495Y5620683D01*
X6771000Y5623776D01*
X6747505Y5620683D01*
X6725612Y5611614D01*
X6706811Y5597188D01*
X6702700Y5591831D01*
X6690000Y5596142D01*
Y5854640D01*
X7430918D01*
Y5854183D01*
X7492931Y5858248D01*
X7553883Y5870372D01*
X7612731Y5890348D01*
X7668468Y5917834D01*
X7720140Y5952361D01*
X7766864Y5993337D01*
X7807840Y6040060D01*
X7842366Y6091733D01*
X7869852Y6147470D01*
X7889829Y6206318D01*
X7901953Y6267270D01*
X7906017Y6329282D01*
X7905561D01*
Y7563760D01*
X7915201Y7571671D01*
X7934865Y7575583D01*
X7951537Y7586722D01*
X7962676Y7603393D01*
X7964061Y7610358D01*
X7915200D01*
Y7635758D01*
X7964061D01*
X7962676Y7642723D01*
X7951537Y7659395D01*
X7934865Y7670534D01*
X7923172Y7672860D01*
X7913934Y7686157D01*
X7919721Y7705233D01*
X7937153Y7737846D01*
X7960061Y7765760D01*
X7960753Y7766291D01*
X8023710Y7829247D01*
X8024241Y7829939D01*
X8052154Y7852847D01*
X8084767Y7870279D01*
X8120155Y7881014D01*
X8156091Y7884553D01*
X8156956Y7884439D01*
X8200000D01*
Y7884105D01*
X8236266Y7887677D01*
X8271139Y7898255D01*
X8303278Y7915434D01*
X8331448Y7938553D01*
X8354566Y7966722D01*
X8371745Y7998861D01*
X8382323Y8033734D01*
X8385895Y8070000D01*
X8385561D01*
Y8760000D01*
X8386247D01*
X8381271Y8810518D01*
X8366536Y8859095D01*
X8342606Y8903863D01*
X8310403Y8943103D01*
X8271163Y8975306D01*
X8226395Y8999235D01*
X8177818Y9013971D01*
X8143654Y9017336D01*
X8138306Y9024306D01*
X8117333Y9040399D01*
X8092910Y9050516D01*
X8079399Y9052294D01*
Y8952700D01*
Y8853105D01*
X8092910Y8854884D01*
X8117333Y8865001D01*
X8138306Y8881094D01*
X8141775Y8885615D01*
X8160305Y8883176D01*
X8191061Y8870436D01*
X8217471Y8850171D01*
X8237737Y8823760D01*
X8250476Y8793005D01*
X8254630Y8761450D01*
X8254439Y8760000D01*
Y8070000D01*
X8254576Y8068961D01*
X8250613Y8049036D01*
X8238737Y8031263D01*
X8220965Y8019388D01*
X8201039Y8015424D01*
X8200000Y8015561D01*
X8156956D01*
Y8015987D01*
X8106899Y8012047D01*
X8058075Y8000325D01*
X8011686Y7981110D01*
X7968873Y7954875D01*
X7930692Y7922265D01*
X7930993Y7921964D01*
X7868037Y7859007D01*
X7867736Y7859308D01*
X7835126Y7821127D01*
X7808890Y7778315D01*
X7789675Y7731925D01*
X7777953Y7683101D01*
X7774014Y7633044D01*
X7774439D01*
Y6329282D01*
X7774659Y6327615D01*
X7770556Y6275489D01*
X7757960Y6223020D01*
X7737310Y6173168D01*
X7709116Y6127159D01*
X7674072Y6086128D01*
X7633041Y6051084D01*
X7587033Y6022890D01*
X7537180Y6002240D01*
X7484711Y5989644D01*
X7432585Y5985541D01*
X7430918Y5985761D01*
X6690000D01*
Y6024439D01*
X7436000D01*
Y6024014D01*
X7486057Y6027953D01*
X7534881Y6039675D01*
X7581271Y6058890D01*
X7624083Y6085125D01*
X7662265Y6117736D01*
X7694875Y6155917D01*
X7721110Y6198729D01*
X7740325Y6245119D01*
X7752047Y6293943D01*
X7755987Y6344000D01*
X7755561D01*
Y8698700D01*
X7755447Y8699565D01*
X7758986Y8735501D01*
X7769721Y8770889D01*
X7787153Y8803502D01*
X7810613Y8832087D01*
X7839198Y8855547D01*
X7871811Y8872979D01*
X7907199Y8883714D01*
X7943135Y8887253D01*
X7944000Y8887139D01*
X7990455D01*
X7995094Y8881094D01*
X8016067Y8865001D01*
X8040490Y8854884D01*
X8053999Y8853106D01*
Y8952700D01*
Y9052294D01*
X8040490Y9050516D01*
X8016067Y9040399D01*
X7995094Y9024306D01*
X7990455Y9018261D01*
X7944000D01*
Y9018686D01*
X7893943Y9014747D01*
X7845119Y9003025D01*
X7798729Y8983810D01*
X7755917Y8957574D01*
X7717736Y8924964D01*
X7685126Y8886783D01*
X7658890Y8843971D01*
X7639675Y8797581D01*
X7627953Y8748757D01*
X7624014Y8698700D01*
X7624439D01*
Y7443725D01*
X7611739Y7437462D01*
X7604298Y7443172D01*
X7588486Y7449721D01*
X7571518Y7451955D01*
X7554550Y7449721D01*
X7538738Y7443172D01*
X7525159Y7432753D01*
X7513160Y7420753D01*
X7512629Y7420061D01*
X7484715Y7397153D01*
X7452102Y7379721D01*
X7416714Y7368986D01*
X7380778Y7365447D01*
X7379913Y7365561D01*
X7270482D01*
X7266630Y7378261D01*
X7269753Y7380347D01*
X7281909Y7398540D01*
X7286177Y7420000D01*
X7281909Y7441460D01*
X7269753Y7459653D01*
X7251560Y7471809D01*
X7230100Y7476078D01*
X7208640Y7471809D01*
X7190447Y7459653D01*
X7178291Y7441460D01*
X7174023Y7420000D01*
X7178291Y7398540D01*
X7190447Y7380347D01*
X7193571Y7378261D01*
X7189718Y7365561D01*
X6690000D01*
Y7475000D01*
X6795500D01*
Y7665000D01*
X6690000D01*
Y8393358D01*
X6702700Y8397669D01*
X6706811Y8392311D01*
X6725612Y8377885D01*
X6747505Y8368817D01*
X6771000Y8365724D01*
X6794495Y8368817D01*
X6816388Y8377885D01*
X6835189Y8392311D01*
X6849614Y8411112D01*
X6858683Y8433005D01*
X6861776Y8456500D01*
X6858683Y8479995D01*
X6849614Y8501888D01*
X6835189Y8520689D01*
X6816388Y8535115D01*
X6794495Y8544183D01*
X6771000Y8547276D01*
X6747505Y8544183D01*
X6725612Y8535115D01*
X6706811Y8520689D01*
X6702700Y8515331D01*
X6690000Y8519642D01*
Y8818506D01*
X6722139Y8828255D01*
X6754278Y8845434D01*
X6782447Y8868552D01*
X6805566Y8896722D01*
X6822745Y8928861D01*
X6833323Y8963734D01*
X6836895Y9000000D01*
X6836561D01*
Y9181100D01*
X6849614Y9198112D01*
X6858683Y9220005D01*
X6861776Y9243500D01*
X6858683Y9266995D01*
X6849614Y9288888D01*
X6835189Y9307689D01*
X6816388Y9322115D01*
X6794495Y9331183D01*
X6771000Y9334276D01*
X6747505Y9331183D01*
X6725612Y9322115D01*
X6706811Y9307689D01*
X6702700Y9302331D01*
X6690000Y9306642D01*
Y9380000D01*
X8490000D01*
Y5380000D01*
D02*
G37*
G36*
X7624439Y7321910D02*
Y6344000D01*
X7624553Y6343135D01*
X7621014Y6307198D01*
X7610279Y6271811D01*
X7592847Y6239198D01*
X7569388Y6210612D01*
X7540802Y6187153D01*
X7508189Y6169721D01*
X7472802Y6158986D01*
X7436865Y6155447D01*
X7436000Y6155561D01*
X6690000D01*
Y6256858D01*
X6702700Y6261169D01*
X6706811Y6255811D01*
X6725612Y6241386D01*
X6747505Y6232317D01*
X6771000Y6229224D01*
X6794495Y6232317D01*
X6816388Y6241386D01*
X6835189Y6255811D01*
X6849614Y6274612D01*
X6858683Y6296505D01*
X6861776Y6320000D01*
X6858683Y6343495D01*
X6849614Y6365388D01*
X6835189Y6384189D01*
X6816388Y6398615D01*
X6794495Y6407683D01*
X6771000Y6410776D01*
X6747505Y6407683D01*
X6725612Y6398615D01*
X6706811Y6384189D01*
X6702700Y6378831D01*
X6690000Y6383142D01*
Y7234439D01*
X7379913D01*
Y7234013D01*
X7429970Y7237953D01*
X7478794Y7249675D01*
X7525184Y7268890D01*
X7567996Y7295125D01*
X7606177Y7327735D01*
X7606177Y7327735D01*
X7612183Y7329709D01*
X7624439Y7321910D01*
D02*
G37*
%LPC*%
G36*
X7369000Y9333500D02*
X7189000D01*
Y9153500D01*
X7369000D01*
Y9333500D01*
D02*
G37*
G36*
X7025000Y9334276D02*
X7001505Y9331183D01*
X6979612Y9322115D01*
X6960811Y9307689D01*
X6946385Y9288888D01*
X6937317Y9266995D01*
X6934224Y9243500D01*
X6937317Y9220005D01*
X6946385Y9198112D01*
X6960811Y9179312D01*
X6979612Y9164886D01*
X7001505Y9155817D01*
X7025000Y9152724D01*
X7048495Y9155817D01*
X7070388Y9164886D01*
X7089189Y9179312D01*
X7103614Y9198112D01*
X7112683Y9220005D01*
X7115776Y9243500D01*
X7112683Y9266995D01*
X7103614Y9288888D01*
X7089189Y9307689D01*
X7070388Y9322115D01*
X7048495Y9331183D01*
X7025000Y9334276D01*
D02*
G37*
G36*
X8066700Y8804606D02*
X8039289Y8800997D01*
X8013747Y8790417D01*
X7991813Y8773587D01*
X7974983Y8751653D01*
X7964403Y8726110D01*
X7960794Y8698700D01*
X7964403Y8671289D01*
X7974983Y8645747D01*
X7991813Y8623813D01*
X8013747Y8606983D01*
X8039289Y8596403D01*
X8066700Y8592794D01*
X8094110Y8596403D01*
X8119653Y8606983D01*
X8141587Y8623813D01*
X8158417Y8645747D01*
X8168997Y8671289D01*
X8172606Y8698700D01*
X8168997Y8726110D01*
X8158417Y8751653D01*
X8141587Y8773587D01*
X8119653Y8790417D01*
X8094110Y8800997D01*
X8066700Y8804606D01*
D02*
G37*
G36*
X7279000Y8547276D02*
X7255505Y8544183D01*
X7233612Y8535115D01*
X7214811Y8520689D01*
X7200385Y8501888D01*
X7191317Y8479995D01*
X7188224Y8456500D01*
X7191317Y8433005D01*
X7200385Y8411112D01*
X7214811Y8392311D01*
X7233612Y8377885D01*
X7255505Y8368817D01*
X7279000Y8365724D01*
X7302495Y8368817D01*
X7324388Y8377885D01*
X7343189Y8392311D01*
X7357614Y8411112D01*
X7366683Y8433005D01*
X7369776Y8456500D01*
X7366683Y8479995D01*
X7357614Y8501888D01*
X7343189Y8520689D01*
X7324388Y8535115D01*
X7302495Y8544183D01*
X7279000Y8547276D01*
D02*
G37*
G36*
X7025000D02*
X7001505Y8544183D01*
X6979612Y8535115D01*
X6960811Y8520689D01*
X6946385Y8501888D01*
X6937317Y8479995D01*
X6934224Y8456500D01*
X6937317Y8433005D01*
X6946385Y8411112D01*
X6960811Y8392311D01*
X6979612Y8377885D01*
X7001505Y8368817D01*
X7025000Y8365724D01*
X7048495Y8368817D01*
X7070388Y8377885D01*
X7089189Y8392311D01*
X7103614Y8411112D01*
X7112683Y8433005D01*
X7115776Y8456500D01*
X7112683Y8479995D01*
X7103614Y8501888D01*
X7089189Y8520689D01*
X7070388Y8535115D01*
X7048495Y8544183D01*
X7025000Y8547276D01*
D02*
G37*
G36*
X8066700Y8550606D02*
X8039289Y8546997D01*
X8013747Y8536417D01*
X7991813Y8519587D01*
X7974983Y8497653D01*
X7964403Y8472110D01*
X7960794Y8444700D01*
X7964403Y8417289D01*
X7974983Y8391747D01*
X7991813Y8369813D01*
X8013747Y8352983D01*
X8039289Y8342403D01*
X8066700Y8338794D01*
X8094110Y8342403D01*
X8119653Y8352983D01*
X8141587Y8369813D01*
X8158417Y8391747D01*
X8168997Y8417289D01*
X8172606Y8444700D01*
X8168997Y8472110D01*
X8158417Y8497653D01*
X8141587Y8519587D01*
X8119653Y8536417D01*
X8094110Y8546997D01*
X8066700Y8550606D01*
D02*
G37*
G36*
X8171700Y8295700D02*
X7961700D01*
Y8085700D01*
X8171700D01*
Y8295700D01*
D02*
G37*
G36*
X7250000Y7940776D02*
X7226505Y7937683D01*
X7204612Y7928615D01*
X7185811Y7914189D01*
X7171385Y7895388D01*
X7162317Y7873495D01*
X7159224Y7850000D01*
X7162317Y7826505D01*
X7171385Y7804612D01*
X7185811Y7785811D01*
X7204612Y7771386D01*
X7226505Y7762317D01*
X7250000Y7759224D01*
X7273495Y7762317D01*
X7295388Y7771386D01*
X7314189Y7785811D01*
X7328615Y7804612D01*
X7337683Y7826505D01*
X7340776Y7850000D01*
X7337683Y7873495D01*
X7328615Y7895388D01*
X7314189Y7914189D01*
X7295388Y7928615D01*
X7273495Y7937683D01*
X7250000Y7940776D01*
D02*
G37*
G36*
X7122700Y7601361D02*
Y7565200D01*
X7158861D01*
X7157476Y7572165D01*
X7146336Y7588836D01*
X7129665Y7599975D01*
X7122700Y7601361D01*
D02*
G37*
G36*
X7097300D02*
X7090335Y7599975D01*
X7073664Y7588836D01*
X7062524Y7572165D01*
X7061139Y7565200D01*
X7097300D01*
Y7601361D01*
D02*
G37*
G36*
X7158861Y7539800D02*
X7122700D01*
Y7503639D01*
X7129665Y7505024D01*
X7146336Y7516164D01*
X7157476Y7532835D01*
X7158861Y7539800D01*
D02*
G37*
G36*
X7097300D02*
X7061139D01*
X7062524Y7532835D01*
X7073664Y7516164D01*
X7090335Y7505024D01*
X7097300Y7503639D01*
Y7539800D01*
D02*
G37*
G36*
X8066700Y6772606D02*
X8039289Y6768997D01*
X8013747Y6758417D01*
X7991813Y6741587D01*
X7974983Y6719653D01*
X7964403Y6694110D01*
X7960794Y6666700D01*
X7964403Y6639289D01*
X7974983Y6613747D01*
X7991813Y6591813D01*
X8013747Y6574983D01*
X8039289Y6564403D01*
X8066700Y6560794D01*
X8094110Y6564403D01*
X8119653Y6574983D01*
X8141587Y6591813D01*
X8158417Y6613747D01*
X8168997Y6639289D01*
X8172606Y6666700D01*
X8168997Y6694110D01*
X8158417Y6719653D01*
X8141587Y6741587D01*
X8119653Y6758417D01*
X8094110Y6768997D01*
X8066700Y6772606D01*
D02*
G37*
G36*
Y6518606D02*
X8039289Y6514997D01*
X8013747Y6504417D01*
X7991813Y6487587D01*
X7974983Y6465653D01*
X7964403Y6440110D01*
X7960794Y6412700D01*
X7964403Y6385289D01*
X7974983Y6359747D01*
X7991813Y6337813D01*
X8013747Y6320983D01*
X8039289Y6310403D01*
X8066700Y6306794D01*
X8094110Y6310403D01*
X8119653Y6320983D01*
X8141587Y6337813D01*
X8158417Y6359747D01*
X8168997Y6385289D01*
X8172606Y6412700D01*
X8168997Y6440110D01*
X8158417Y6465653D01*
X8141587Y6487587D01*
X8119653Y6504417D01*
X8094110Y6514997D01*
X8066700Y6518606D01*
D02*
G37*
G36*
Y6264606D02*
X8039289Y6260997D01*
X8013747Y6250417D01*
X7991813Y6233587D01*
X7974983Y6211653D01*
X7964403Y6186110D01*
X7960794Y6158700D01*
X7964403Y6131289D01*
X7974983Y6105747D01*
X7991813Y6083813D01*
X8013747Y6066983D01*
X8039289Y6056403D01*
X8066700Y6052794D01*
X8094110Y6056403D01*
X8119653Y6066983D01*
X8141587Y6083813D01*
X8158417Y6105747D01*
X8168997Y6131289D01*
X8172606Y6158700D01*
X8168997Y6186110D01*
X8158417Y6211653D01*
X8141587Y6233587D01*
X8119653Y6250417D01*
X8094110Y6260997D01*
X8066700Y6264606D01*
D02*
G37*
G36*
X8171700Y6009700D02*
X7961700D01*
Y5799700D01*
X8171700D01*
Y6009700D01*
D02*
G37*
G36*
X7279000Y5623776D02*
X7255505Y5620683D01*
X7233612Y5611614D01*
X7214811Y5597188D01*
X7200385Y5578388D01*
X7191317Y5556495D01*
X7188224Y5533000D01*
X7191317Y5509505D01*
X7200385Y5487612D01*
X7214811Y5468811D01*
X7233612Y5454385D01*
X7255505Y5445317D01*
X7279000Y5442224D01*
X7302495Y5445317D01*
X7324388Y5454385D01*
X7343189Y5468811D01*
X7357614Y5487612D01*
X7366683Y5509505D01*
X7369776Y5533000D01*
X7366683Y5556495D01*
X7357614Y5578388D01*
X7343189Y5597188D01*
X7324388Y5611614D01*
X7302495Y5620683D01*
X7279000Y5623776D01*
D02*
G37*
G36*
X7025000D02*
X7001505Y5620683D01*
X6979612Y5611614D01*
X6960811Y5597188D01*
X6946385Y5578388D01*
X6937317Y5556495D01*
X6934224Y5533000D01*
X6937317Y5509505D01*
X6946385Y5487612D01*
X6960811Y5468811D01*
X6979612Y5454385D01*
X7001505Y5445317D01*
X7025000Y5442224D01*
X7048495Y5445317D01*
X7070388Y5454385D01*
X7089189Y5468811D01*
X7103614Y5487612D01*
X7112683Y5509505D01*
X7115776Y5533000D01*
X7112683Y5556495D01*
X7103614Y5578388D01*
X7089189Y5597188D01*
X7070388Y5611614D01*
X7048495Y5620683D01*
X7025000Y5623776D01*
D02*
G37*
G36*
X7525000Y7055500D02*
X7335000D01*
Y6865500D01*
X7525000D01*
Y7055500D01*
D02*
G37*
G36*
X7430000Y6675319D02*
X7405200Y6672054D01*
X7382090Y6662482D01*
X7362246Y6647254D01*
X7347018Y6627410D01*
X7337446Y6604300D01*
X7334181Y6579500D01*
X7337446Y6554700D01*
X7347018Y6531590D01*
X7362246Y6511745D01*
X7382090Y6496518D01*
X7405200Y6486945D01*
X7430000Y6483680D01*
X7454800Y6486945D01*
X7477910Y6496518D01*
X7497755Y6511745D01*
X7512982Y6531590D01*
X7522555Y6554700D01*
X7525820Y6579500D01*
X7522555Y6604300D01*
X7512982Y6627410D01*
X7497755Y6647254D01*
X7477910Y6662482D01*
X7454800Y6672054D01*
X7430000Y6675319D01*
D02*
G37*
G36*
X7369000Y6410000D02*
X7189000D01*
Y6230000D01*
X7369000D01*
Y6410000D01*
D02*
G37*
G36*
X7025000Y6410776D02*
X7001505Y6407683D01*
X6979612Y6398615D01*
X6960811Y6384189D01*
X6946385Y6365388D01*
X6937317Y6343495D01*
X6934224Y6320000D01*
X6937317Y6296505D01*
X6946385Y6274612D01*
X6960811Y6255811D01*
X6979612Y6241386D01*
X7001505Y6232317D01*
X7025000Y6229224D01*
X7048495Y6232317D01*
X7070388Y6241386D01*
X7089189Y6255811D01*
X7103614Y6274612D01*
X7112683Y6296505D01*
X7115776Y6320000D01*
X7112683Y6343495D01*
X7103614Y6365388D01*
X7089189Y6384189D01*
X7070388Y6398615D01*
X7048495Y6407683D01*
X7025000Y6410776D01*
D02*
G37*
%LPD*%
D10*
X6651000Y8880000D02*
G03*
X6771000Y9000000I0J120000D01*
G01*
X7379913Y7300000D02*
G03*
X7559518Y7374395I0J254000D01*
G01*
X2856510Y7410000D02*
G03*
X2676905Y7335605I0J-254000D01*
G01*
X1798700Y7220000D02*
G03*
X1728700Y7051005I168995J-168995D01*
G01*
Y6344000D02*
G03*
X1982700Y6090000I254000J0D01*
G01*
X7430918Y5920200D02*
G03*
X7840000Y6329282I0J409082D01*
G01*
X8320000Y8760000D02*
G03*
X8127300Y8952700I-192700J0D01*
G01*
X7944000D02*
G03*
X7690000Y8698700I0J-254000D01*
G01*
X4854421Y7300000D02*
G03*
X4674815Y7225605I0J-254000D01*
G01*
X8156956Y7950000D02*
G03*
X7977351Y7875605I0J-254000D01*
G01*
X8200000Y7950000D02*
G03*
X8320000Y8070000I0J120000D01*
G01*
X7914395Y7812649D02*
G03*
X7840000Y7633044I179605J-179605D01*
G01*
X7436000Y6090000D02*
G03*
X7690000Y6344000I0J254000D01*
G01*
X6134000Y8880000D02*
G03*
X5880000Y8626000I0J-254000D01*
G01*
X5850000Y7400000D02*
G03*
X5880000Y7430000I0J30000D01*
G01*
X4860000Y7516000D02*
G03*
X4606000Y7770000I-254000J0D01*
G01*
X4860000Y7430000D02*
G03*
X4890000Y7400000I30000J0D01*
G01*
X4430000Y7770000D02*
G03*
X4300395Y7640395I0J-129605D01*
G01*
X4070000Y7410000D02*
G03*
X4269605Y7210395I199605J0D01*
G01*
X4854421Y7300000D02*
X7379913D01*
X7559518Y7374395D02*
X7571518Y7386395D01*
X2856510Y7410000D02*
X4070000D01*
X2561300Y7220000D02*
X2676905Y7335605D01*
X1728700Y6344000D02*
Y7051005D01*
X1430000Y5920200D02*
X7430918D01*
X7840000Y6329282D02*
Y7633044D01*
X1430000Y5740000D02*
Y5920200D01*
X1430000Y5920200D02*
X1430000Y5920200D01*
X1243200Y5920200D02*
X1430000D01*
X8066700Y8952700D02*
X8127300D01*
X7944000D02*
X8066700D01*
X6771000Y9000000D02*
Y9243500D01*
X6134000Y8880000D02*
X6651000D01*
X4659605Y7210395D02*
X4674815Y7225605D01*
X8156956Y7950000D02*
X8200000D01*
X8320000Y8070000D02*
Y8760000D01*
X7914395Y7812649D02*
X7977351Y7875605D01*
X7690000Y6344000D02*
Y8698700D01*
X1982700Y6090000D02*
X7436000D01*
X5880000Y7430000D02*
Y8626000D01*
X4890000Y7400000D02*
X5850000D01*
X4860000Y7430000D02*
Y7516000D01*
X4430000Y7770000D02*
X4606000D01*
X4300395Y7569605D02*
Y7640395D01*
X4269605Y7210395D02*
X4300395D01*
X2561300Y7214000D02*
Y7220000D01*
D22*
X8066700Y8190700D02*
D03*
X1024550D02*
D03*
X8066700Y5904700D02*
D03*
D23*
Y8444700D02*
D03*
Y8698700D02*
D03*
Y8952700D02*
D03*
X1024550Y8444700D02*
D03*
Y8698700D02*
D03*
Y8952700D02*
D03*
X8066700Y6666700D02*
D03*
Y6412700D02*
D03*
Y6158700D02*
D03*
D24*
X5260000Y9000500D02*
D03*
X7430000Y6960500D02*
D03*
D25*
X5260000Y8619500D02*
D03*
X6319500Y7570000D02*
D03*
X7430000Y6579500D02*
D03*
X4480000Y7136000D02*
D03*
Y7644000D02*
D03*
X4734000Y7390000D02*
D03*
X4659605Y7210395D02*
D03*
X4300395D02*
D03*
X4659605Y7569605D02*
D03*
X4300395D02*
D03*
X6490500Y8100000D02*
D03*
D26*
X6700500Y7570000D02*
D03*
X4226000Y7390000D02*
D03*
X6109500Y8100000D02*
D03*
D27*
X1798700Y7220000D02*
D03*
X6487400Y7850000D02*
D03*
D28*
X2561300Y7220000D02*
D03*
X7250000Y7850000D02*
D03*
X7279000Y8456500D02*
D03*
X7025000D02*
D03*
X6771000D02*
D03*
X6517000D02*
D03*
X6263000D02*
D03*
X6009000D02*
D03*
X5755000D02*
D03*
X5501000D02*
D03*
Y9243500D02*
D03*
X5755000D02*
D03*
X6009000D02*
D03*
X6263000D02*
D03*
X6517000D02*
D03*
X6771000D02*
D03*
X7025000D02*
D03*
X7279000Y5533000D02*
D03*
X7025000D02*
D03*
X6771000D02*
D03*
X6517000D02*
D03*
X6263000D02*
D03*
X6009000D02*
D03*
X5755000D02*
D03*
X5501000D02*
D03*
Y6320000D02*
D03*
X5755000D02*
D03*
X6009000D02*
D03*
X6263000D02*
D03*
X6517000D02*
D03*
X6771000D02*
D03*
X7025000D02*
D03*
D29*
X1350000Y7635000D02*
D03*
D30*
X7279000Y9243500D02*
D03*
Y6320000D02*
D03*
D31*
X7571518Y7386395D02*
D03*
X7230100Y7420000D02*
D03*
X1430000Y5740000D02*
D03*
X1120000Y5760000D02*
D03*
X1243200Y5920200D02*
D03*
X7915200Y7623058D02*
D03*
X7110000Y7552500D02*
D03*
X757701Y6722700D02*
D03*
%TF.MD5,1fac54e74d352522edc4d1cb75640436*%
M02*
