%TF.GenerationSoftware,Altium Limited,Altium Designer,23.3.1 (30)*%
G04 Layer_Physical_Order=1*
G04 Layer_Color=255*
%FSLAX45Y45*%
%MOMM*%
%TF.SameCoordinates,5C971558-4B59-40B4-890D-9BFF8048EDD7*%
%TF.FilePolarity,Positive*%
%TF.FileFunction,Copper,L1,Top,Signal*%
%TF.Part,Single*%
G01*
G75*
%TA.AperFunction,Conductor*%
%ADD10C,0.70000*%
%TA.AperFunction,NonConductor*%
%ADD11C,0.25400*%
%TA.AperFunction,Conductor*%
%ADD12C,0.25400*%
%TA.AperFunction,SMDPad,CuDef*%
%ADD13R,0.75620X1.10620*%
%ADD14R,1.10620X0.75620*%
%ADD15R,3.25000X1.90000*%
%ADD16R,0.95000X1.90000*%
G04:AMPARAMS|DCode=17|XSize=0.65mm|YSize=1.65mm|CornerRadius=0.04875mm|HoleSize=0mm|Usage=FLASHONLY|Rotation=0.000|XOffset=0mm|YOffset=0mm|HoleType=Round|Shape=RoundedRectangle|*
%AMROUNDEDRECTD17*
21,1,0.65000,1.55250,0,0,0.0*
21,1,0.55250,1.65000,0,0,0.0*
1,1,0.09750,0.27625,-0.77625*
1,1,0.09750,-0.27625,-0.77625*
1,1,0.09750,-0.27625,0.77625*
1,1,0.09750,0.27625,0.77625*
%
%ADD17ROUNDEDRECTD17*%
%ADD18R,0.90620X0.85490*%
%ADD19R,1.06213X1.13504*%
%ADD20R,2.33000X1.99000*%
%ADD21R,1.13504X1.06213*%
G04:AMPARAMS|DCode=22|XSize=0.65mm|YSize=1.65mm|CornerRadius=0.04875mm|HoleSize=0mm|Usage=FLASHONLY|Rotation=90.000|XOffset=0mm|YOffset=0mm|HoleType=Round|Shape=RoundedRectangle|*
%AMROUNDEDRECTD22*
21,1,0.65000,1.55250,0,0,90.0*
21,1,0.55250,1.65000,0,0,90.0*
1,1,0.09750,0.77625,0.27625*
1,1,0.09750,0.77625,-0.27625*
1,1,0.09750,-0.77625,-0.27625*
1,1,0.09750,-0.77625,0.27625*
%
%ADD22ROUNDEDRECTD22*%
%TA.AperFunction,ComponentPad*%
%ADD23R,1.20000X1.20000*%
%ADD24C,1.20000*%
%ADD25C,1.30000*%
%ADD26R,1.30000X1.30000*%
%ADD27C,1.50000*%
%ADD28R,1.50000X1.50000*%
%ADD29R,1.20000X1.20000*%
%TA.AperFunction,ViaPad*%
%ADD30C,0.50000*%
G36*
X12759475Y5862784D02*
X12760461D01*
X12761448Y5862643D01*
X12763845Y5862220D01*
X12766382Y5861515D01*
X12769061Y5860388D01*
X12771739Y5858978D01*
X12773995Y5857004D01*
X12774276Y5856722D01*
X12774840Y5855877D01*
X12775827Y5854608D01*
X12776250Y5853621D01*
X12776814Y5852634D01*
X12777378Y5851365D01*
X12777801Y5850097D01*
X12778365Y5848687D01*
X12778787Y5846995D01*
X12779069Y5845304D01*
X12779351Y5843330D01*
X12779633Y5841357D01*
Y5839101D01*
Y5790607D01*
X12767651D01*
Y5835013D01*
Y5835154D01*
Y5835295D01*
Y5836141D01*
Y5837409D01*
X12767510Y5838960D01*
X12767369Y5840652D01*
X12767228Y5842343D01*
X12766946Y5844035D01*
X12766523Y5845304D01*
Y5845445D01*
X12766241Y5845868D01*
X12765959Y5846432D01*
X12765536Y5847136D01*
X12764972Y5847982D01*
X12764268Y5848828D01*
X12763422Y5849674D01*
X12762294Y5850520D01*
X12762153Y5850661D01*
X12761730Y5850802D01*
X12761166Y5851084D01*
X12760179Y5851506D01*
X12759193Y5851929D01*
X12757924Y5852211D01*
X12756655Y5852352D01*
X12755105Y5852493D01*
X12754400D01*
X12753836Y5852352D01*
X12752426Y5852211D01*
X12750734Y5851929D01*
X12748761Y5851225D01*
X12746646Y5850379D01*
X12744532Y5849110D01*
X12742558Y5847418D01*
X12742417Y5847136D01*
X12741853Y5846432D01*
X12741008Y5845304D01*
X12740162Y5843612D01*
X12739175Y5841357D01*
X12738470Y5838678D01*
X12737906Y5835436D01*
X12737624Y5831630D01*
Y5790607D01*
X12725642D01*
Y5836423D01*
Y5836564D01*
Y5836846D01*
Y5837128D01*
Y5837691D01*
X12725501Y5839242D01*
X12725219Y5840934D01*
X12724937Y5842907D01*
X12724373Y5844881D01*
X12723668Y5846713D01*
X12722681Y5848405D01*
X12722540Y5848546D01*
X12722118Y5849110D01*
X12721413Y5849674D01*
X12720426Y5850520D01*
X12719157Y5851225D01*
X12717466Y5851929D01*
X12715492Y5852352D01*
X12713095Y5852493D01*
X12712250D01*
X12711263Y5852352D01*
X12710135Y5852211D01*
X12708725Y5851788D01*
X12707034Y5851365D01*
X12705483Y5850661D01*
X12703791Y5849815D01*
X12703650Y5849674D01*
X12703087Y5849251D01*
X12702382Y5848687D01*
X12701395Y5847841D01*
X12700408Y5846713D01*
X12699421Y5845304D01*
X12698435Y5843753D01*
X12697589Y5841920D01*
X12697448Y5841639D01*
X12697307Y5840934D01*
X12697025Y5839806D01*
X12696602Y5838255D01*
X12696179Y5836141D01*
X12695897Y5833603D01*
X12695756Y5830643D01*
X12695615Y5827260D01*
Y5790607D01*
X12683633D01*
Y5861374D01*
X12694346D01*
Y5851225D01*
X12694487Y5851506D01*
X12694910Y5852070D01*
X12695756Y5853057D01*
X12696743Y5854185D01*
X12698012Y5855595D01*
X12699562Y5857004D01*
X12701254Y5858414D01*
X12703228Y5859683D01*
X12703510Y5859824D01*
X12704214Y5860247D01*
X12705342Y5860670D01*
X12706893Y5861374D01*
X12708725Y5861938D01*
X12710840Y5862361D01*
X12713236Y5862784D01*
X12715774Y5862925D01*
X12717043D01*
X12718593Y5862784D01*
X12720285Y5862502D01*
X12722399Y5862079D01*
X12724514Y5861515D01*
X12726629Y5860670D01*
X12728602Y5859542D01*
X12728884Y5859401D01*
X12729448Y5858978D01*
X12730294Y5858273D01*
X12731422Y5857145D01*
X12732549Y5855877D01*
X12733818Y5854326D01*
X12734946Y5852493D01*
X12735792Y5850379D01*
X12735933Y5850520D01*
X12736215Y5850943D01*
X12736637Y5851506D01*
X12737342Y5852352D01*
X12738188Y5853339D01*
X12739175Y5854326D01*
X12740303Y5855454D01*
X12741712Y5856722D01*
X12743263Y5857850D01*
X12744814Y5858978D01*
X12746646Y5859965D01*
X12748620Y5860951D01*
X12750734Y5861797D01*
X12752990Y5862361D01*
X12755246Y5862784D01*
X12757783Y5862925D01*
X12758770D01*
X12759475Y5862784D01*
D02*
G37*
G36*
X12565782D02*
X12567896Y5862643D01*
X12570152Y5862361D01*
X12572548Y5861797D01*
X12575086Y5861233D01*
X12577482Y5860388D01*
X12577623D01*
X12577764Y5860247D01*
X12578469Y5859965D01*
X12579597Y5859401D01*
X12581007Y5858696D01*
X12582557Y5857709D01*
X12584108Y5856581D01*
X12585518Y5855313D01*
X12586786Y5853903D01*
X12586927Y5853762D01*
X12587209Y5853198D01*
X12587773Y5852211D01*
X12588478Y5851084D01*
X12589183Y5849392D01*
X12589888Y5847559D01*
X12590452Y5845445D01*
X12591015Y5843048D01*
X12579315Y5841498D01*
Y5841780D01*
X12579174Y5842343D01*
X12578892Y5843330D01*
X12578469Y5844599D01*
X12577764Y5845868D01*
X12576918Y5847277D01*
X12575932Y5848687D01*
X12574522Y5849956D01*
X12574381Y5850097D01*
X12573817Y5850379D01*
X12572971Y5850943D01*
X12571703Y5851506D01*
X12570293Y5852070D01*
X12568460Y5852634D01*
X12566205Y5852916D01*
X12563808Y5853057D01*
X12562399D01*
X12560989Y5852916D01*
X12559156Y5852775D01*
X12557324Y5852352D01*
X12555350Y5851929D01*
X12553517Y5851225D01*
X12551967Y5850238D01*
X12551826Y5850097D01*
X12551403Y5849815D01*
X12550839Y5849251D01*
X12550275Y5848405D01*
X12549570Y5847559D01*
X12549006Y5846432D01*
X12548583Y5845163D01*
X12548443Y5843894D01*
Y5843753D01*
Y5843471D01*
X12548583Y5843048D01*
Y5842484D01*
X12549006Y5841075D01*
X12549852Y5839665D01*
X12549993Y5839524D01*
X12550134Y5839383D01*
X12550416Y5838960D01*
X12550980Y5838537D01*
X12551544Y5838114D01*
X12552390Y5837550D01*
X12553376Y5837128D01*
X12554504Y5836564D01*
X12554645D01*
X12554927Y5836423D01*
X12555491Y5836282D01*
X12556478Y5835859D01*
X12557888Y5835436D01*
X12559720Y5835013D01*
X12560848Y5834590D01*
X12562117Y5834308D01*
X12563526Y5833885D01*
X12565077Y5833462D01*
X12565218D01*
X12565641Y5833321D01*
X12566346Y5833180D01*
X12567192Y5832898D01*
X12568178Y5832616D01*
X12569447Y5832335D01*
X12572125Y5831489D01*
X12575086Y5830643D01*
X12578046Y5829656D01*
X12580725Y5828669D01*
X12581852Y5828246D01*
X12582839Y5827823D01*
X12583121Y5827683D01*
X12583685Y5827401D01*
X12584531Y5826978D01*
X12585800Y5826273D01*
X12587068Y5825427D01*
X12588337Y5824299D01*
X12589606Y5823031D01*
X12590734Y5821621D01*
X12590874Y5821480D01*
X12591156Y5820916D01*
X12591720Y5820070D01*
X12592284Y5818801D01*
X12592707Y5817251D01*
X12593271Y5815559D01*
X12593553Y5813586D01*
X12593694Y5811330D01*
Y5811048D01*
Y5810343D01*
X12593553Y5809215D01*
X12593271Y5807665D01*
X12592848Y5805973D01*
X12592143Y5804141D01*
X12591297Y5802026D01*
X12590170Y5800052D01*
X12590029Y5799770D01*
X12589465Y5799207D01*
X12588760Y5798220D01*
X12587632Y5797092D01*
X12586082Y5795823D01*
X12584390Y5794414D01*
X12582416Y5793145D01*
X12580020Y5791876D01*
X12579879D01*
X12579738Y5791735D01*
X12578892Y5791453D01*
X12577482Y5791030D01*
X12575650Y5790466D01*
X12573394Y5789903D01*
X12570857Y5789480D01*
X12568178Y5789198D01*
X12565077Y5789057D01*
X12563808D01*
X12562821Y5789198D01*
X12561694D01*
X12560284Y5789339D01*
X12558874Y5789480D01*
X12557324Y5789762D01*
X12553940Y5790466D01*
X12550416Y5791453D01*
X12547033Y5792863D01*
X12545482Y5793709D01*
X12544072Y5794696D01*
X12543931Y5794837D01*
X12543791Y5794977D01*
X12542945Y5795823D01*
X12541676Y5797092D01*
X12540266Y5799066D01*
X12538716Y5801462D01*
X12537165Y5804282D01*
X12535896Y5807806D01*
X12534909Y5811753D01*
X12546751Y5813586D01*
Y5813445D01*
Y5813304D01*
X12547033Y5812458D01*
X12547315Y5811048D01*
X12547879Y5809497D01*
X12548583Y5807806D01*
X12549429Y5805973D01*
X12550698Y5804141D01*
X12552249Y5802590D01*
X12552531Y5802449D01*
X12553095Y5802026D01*
X12554222Y5801462D01*
X12555632Y5800757D01*
X12557465Y5800052D01*
X12559579Y5799489D01*
X12562117Y5799066D01*
X12565077Y5798925D01*
X12566487D01*
X12567896Y5799066D01*
X12569729Y5799348D01*
X12571703Y5799770D01*
X12573817Y5800334D01*
X12575650Y5801039D01*
X12577341Y5802167D01*
X12577482Y5802308D01*
X12578046Y5802731D01*
X12578610Y5803436D01*
X12579456Y5804422D01*
X12580161Y5805550D01*
X12580866Y5806960D01*
X12581289Y5808370D01*
X12581429Y5810061D01*
Y5810202D01*
Y5810766D01*
X12581289Y5811471D01*
X12581007Y5812458D01*
X12580584Y5813445D01*
X12579879Y5814431D01*
X12579033Y5815559D01*
X12577764Y5816405D01*
X12577623Y5816546D01*
X12577200Y5816687D01*
X12576496Y5817110D01*
X12575368Y5817533D01*
X12573676Y5818097D01*
X12572689Y5818519D01*
X12571562Y5818801D01*
X12570293Y5819224D01*
X12568883Y5819647D01*
X12567332Y5820070D01*
X12565500Y5820493D01*
X12565359D01*
X12564936Y5820634D01*
X12564231Y5820775D01*
X12563385Y5821057D01*
X12562258Y5821339D01*
X12560989Y5821762D01*
X12558310Y5822467D01*
X12555209Y5823453D01*
X12552249Y5824299D01*
X12549429Y5825286D01*
X12548161Y5825850D01*
X12547174Y5826273D01*
X12546892Y5826414D01*
X12546328Y5826696D01*
X12545482Y5827260D01*
X12544354Y5827964D01*
X12543086Y5828951D01*
X12541817Y5830079D01*
X12540548Y5831348D01*
X12539420Y5832898D01*
X12539279Y5833039D01*
X12538998Y5833603D01*
X12538575Y5834590D01*
X12538152Y5835718D01*
X12537729Y5837128D01*
X12537306Y5838819D01*
X12537024Y5840511D01*
X12536883Y5842484D01*
Y5842766D01*
Y5843330D01*
X12537024Y5844176D01*
X12537165Y5845445D01*
X12537447Y5846713D01*
X12537729Y5848264D01*
X12538293Y5849674D01*
X12538998Y5851225D01*
X12539138Y5851365D01*
X12539420Y5851929D01*
X12539843Y5852634D01*
X12540548Y5853621D01*
X12541394Y5854608D01*
X12542381Y5855877D01*
X12543509Y5857004D01*
X12544918Y5857991D01*
X12545059Y5858132D01*
X12545482Y5858273D01*
X12546046Y5858696D01*
X12546892Y5859119D01*
X12548020Y5859683D01*
X12549288Y5860247D01*
X12550839Y5860810D01*
X12552531Y5861374D01*
X12552813Y5861515D01*
X12553376Y5861656D01*
X12554363Y5861938D01*
X12555632Y5862220D01*
X12557183Y5862502D01*
X12558874Y5862643D01*
X12560848Y5862925D01*
X12564231D01*
X12565782Y5862784D01*
D02*
G37*
G36*
X12252969Y5790607D02*
X12240000D01*
Y5888159D01*
X12252969D01*
Y5790607D01*
D02*
G37*
G36*
X12477817Y5861374D02*
X12489940D01*
Y5852070D01*
X12477817D01*
Y5810484D01*
Y5810202D01*
Y5809638D01*
Y5808793D01*
X12477958Y5807806D01*
X12478098Y5805550D01*
X12478239Y5804563D01*
X12478380Y5803859D01*
X12478521Y5803577D01*
X12478944Y5803013D01*
X12479508Y5802308D01*
X12480495Y5801603D01*
X12480777Y5801462D01*
X12481482Y5801180D01*
X12482750Y5800898D01*
X12484583Y5800757D01*
X12485993D01*
X12486698Y5800898D01*
X12487684D01*
X12488812Y5801039D01*
X12489940Y5801180D01*
X12491491Y5790607D01*
X12491209D01*
X12490645Y5790466D01*
X12489658Y5790325D01*
X12488389Y5790185D01*
X12486980Y5789903D01*
X12485429Y5789762D01*
X12482328Y5789621D01*
X12481200D01*
X12480072Y5789762D01*
X12478662Y5789903D01*
X12476971Y5790044D01*
X12475279Y5790466D01*
X12473728Y5790889D01*
X12472178Y5791594D01*
X12472037Y5791735D01*
X12471614Y5792017D01*
X12471050Y5792440D01*
X12470204Y5793145D01*
X12469499Y5793850D01*
X12468653Y5794837D01*
X12467808Y5795823D01*
X12467244Y5797092D01*
Y5797233D01*
X12466962Y5797797D01*
X12466821Y5798784D01*
X12466539Y5800193D01*
X12466257Y5802026D01*
X12466116Y5803154D01*
Y5804422D01*
X12465975Y5805973D01*
X12465834Y5807524D01*
Y5809215D01*
Y5811189D01*
Y5852070D01*
X12456953D01*
Y5861374D01*
X12465834D01*
Y5878855D01*
X12477817Y5886044D01*
Y5861374D01*
D02*
G37*
G36*
X12828691Y5862784D02*
X12829819Y5862643D01*
X12831229Y5862361D01*
X12832779Y5862079D01*
X12834612Y5861656D01*
X12836304Y5861233D01*
X12838277Y5860529D01*
X12840109Y5859824D01*
X12842084Y5858837D01*
X12844057Y5857709D01*
X12846030Y5856440D01*
X12847862Y5854890D01*
X12849554Y5853198D01*
X12849695Y5853057D01*
X12849977Y5852775D01*
X12850400Y5852211D01*
X12850964Y5851365D01*
X12851669Y5850379D01*
X12852374Y5849251D01*
X12853220Y5847841D01*
X12854065Y5846150D01*
X12854910Y5844317D01*
X12855757Y5842343D01*
X12856462Y5840088D01*
X12857167Y5837691D01*
X12857732Y5835013D01*
X12858154Y5832194D01*
X12858437Y5829233D01*
X12858577Y5825991D01*
Y5825850D01*
Y5825286D01*
Y5824299D01*
X12858437Y5822890D01*
X12805573D01*
Y5822749D01*
Y5822326D01*
X12805713Y5821762D01*
Y5820916D01*
X12805853Y5819929D01*
X12806136Y5818801D01*
X12806560Y5816264D01*
X12807404Y5813445D01*
X12808533Y5810343D01*
X12810083Y5807524D01*
X12812056Y5804986D01*
X12812196D01*
X12812338Y5804704D01*
X12813184Y5804000D01*
X12814453Y5803013D01*
X12816145Y5802026D01*
X12818401Y5800898D01*
X12820938Y5799911D01*
X12823756Y5799207D01*
X12825308Y5799066D01*
X12826999Y5798925D01*
X12828127D01*
X12829396Y5799066D01*
X12830946Y5799348D01*
X12832639Y5799770D01*
X12834612Y5800334D01*
X12836444Y5801180D01*
X12838277Y5802308D01*
X12838419Y5802449D01*
X12839124Y5803013D01*
X12839967Y5803859D01*
X12840955Y5804986D01*
X12842084Y5806537D01*
X12843352Y5808511D01*
X12844620Y5810766D01*
X12845747Y5813445D01*
X12858154Y5811894D01*
Y5811753D01*
X12858012Y5811471D01*
X12857872Y5810907D01*
X12857590Y5810061D01*
X12857167Y5809215D01*
X12856744Y5808088D01*
X12855617Y5805691D01*
X12854205Y5803013D01*
X12852232Y5800193D01*
X12849977Y5797515D01*
X12847157Y5794977D01*
X12847017D01*
X12846735Y5794696D01*
X12846312Y5794414D01*
X12845747Y5793991D01*
X12844902Y5793568D01*
X12844057Y5793145D01*
X12842929Y5792581D01*
X12841660Y5792017D01*
X12840250Y5791453D01*
X12838841Y5790889D01*
X12835316Y5790044D01*
X12831369Y5789339D01*
X12826999Y5789057D01*
X12825449D01*
X12824461Y5789198D01*
X12823193Y5789339D01*
X12821642Y5789621D01*
X12819951Y5789903D01*
X12818118Y5790185D01*
X12814171Y5791312D01*
X12812056Y5792158D01*
X12810083Y5793004D01*
X12807968Y5794132D01*
X12805995Y5795400D01*
X12804163Y5796810D01*
X12802328Y5798502D01*
X12802190Y5798643D01*
X12801907Y5798925D01*
X12801485Y5799489D01*
X12800920Y5800334D01*
X12800215Y5801321D01*
X12799510Y5802449D01*
X12798664Y5803859D01*
X12797818Y5805409D01*
X12796973Y5807242D01*
X12796127Y5809215D01*
X12795422Y5811471D01*
X12794717Y5813867D01*
X12794153Y5816405D01*
X12793730Y5819224D01*
X12793448Y5822185D01*
X12793307Y5825286D01*
Y5825427D01*
Y5826132D01*
Y5826978D01*
X12793448Y5828246D01*
X12793589Y5829797D01*
X12793730Y5831489D01*
X12794012Y5833462D01*
X12794435Y5835436D01*
X12795563Y5839947D01*
X12796268Y5842202D01*
X12797114Y5844599D01*
X12798241Y5846854D01*
X12799510Y5848969D01*
X12800920Y5851084D01*
X12802470Y5853057D01*
X12802611Y5853198D01*
X12802893Y5853480D01*
X12803458Y5853903D01*
X12804163Y5854608D01*
X12805008Y5855313D01*
X12806136Y5856158D01*
X12807404Y5857145D01*
X12808955Y5857991D01*
X12810506Y5858978D01*
X12812338Y5859824D01*
X12814313Y5860670D01*
X12816426Y5861374D01*
X12818681Y5862079D01*
X12821078Y5862502D01*
X12823616Y5862784D01*
X12826294Y5862925D01*
X12827704D01*
X12828691Y5862784D01*
D02*
G37*
G36*
X12638945D02*
X12640214Y5862643D01*
X12641624Y5862361D01*
X12643174Y5862079D01*
X12645007Y5861797D01*
X12648813Y5860529D01*
X12650787Y5859824D01*
X12652760Y5858837D01*
X12654734Y5857850D01*
X12656707Y5856440D01*
X12658540Y5855031D01*
X12660373Y5853339D01*
X12660514Y5853198D01*
X12660796Y5852916D01*
X12661219Y5852352D01*
X12661782Y5851647D01*
X12662487Y5850661D01*
X12663333Y5849392D01*
X12664179Y5847982D01*
X12665025Y5846432D01*
X12665871Y5844740D01*
X12666716Y5842625D01*
X12667562Y5840511D01*
X12668267Y5838114D01*
X12668831Y5835577D01*
X12669254Y5832898D01*
X12669536Y5830079D01*
X12669677Y5826978D01*
Y5826837D01*
Y5826414D01*
Y5825709D01*
Y5824722D01*
X12669536Y5823594D01*
X12669395Y5822185D01*
Y5820775D01*
X12669113Y5819224D01*
X12668690Y5815700D01*
X12667844Y5812176D01*
X12666857Y5808652D01*
X12665448Y5805409D01*
Y5805268D01*
X12665307Y5805127D01*
X12665025Y5804704D01*
X12664743Y5804141D01*
X12663756Y5802731D01*
X12662487Y5801039D01*
X12660796Y5799066D01*
X12658681Y5797092D01*
X12656285Y5795118D01*
X12653465Y5793286D01*
X12653324D01*
X12653183Y5793145D01*
X12652760Y5792863D01*
X12652055Y5792581D01*
X12651351Y5792299D01*
X12650505Y5792017D01*
X12648390Y5791171D01*
X12645994Y5790466D01*
X12643033Y5789762D01*
X12639932Y5789198D01*
X12636549Y5789057D01*
X12635139D01*
X12634011Y5789198D01*
X12632743Y5789339D01*
X12631333Y5789621D01*
X12629641Y5789903D01*
X12627950Y5790185D01*
X12624143Y5791312D01*
X12622029Y5792158D01*
X12620055Y5793004D01*
X12618082Y5794132D01*
X12616108Y5795400D01*
X12614276Y5796810D01*
X12612443Y5798502D01*
X12612302Y5798643D01*
X12612020Y5798925D01*
X12611597Y5799489D01*
X12611033Y5800334D01*
X12610328Y5801321D01*
X12609623Y5802449D01*
X12608778Y5803859D01*
X12607932Y5805550D01*
X12607086Y5807383D01*
X12606240Y5809497D01*
X12605535Y5811753D01*
X12604831Y5814149D01*
X12604267Y5816828D01*
X12603844Y5819647D01*
X12603562Y5822749D01*
X12603421Y5825991D01*
Y5826273D01*
Y5826837D01*
X12603562Y5827823D01*
Y5829233D01*
X12603703Y5830784D01*
X12603985Y5832757D01*
X12604267Y5834731D01*
X12604831Y5836987D01*
X12605394Y5839242D01*
X12606099Y5841639D01*
X12606945Y5844176D01*
X12608073Y5846573D01*
X12609201Y5848828D01*
X12610751Y5851084D01*
X12612302Y5853198D01*
X12614276Y5855031D01*
X12614416Y5855172D01*
X12614698Y5855313D01*
X12615262Y5855736D01*
X12615967Y5856299D01*
X12616813Y5856863D01*
X12617941Y5857568D01*
X12619068Y5858273D01*
X12620478Y5858978D01*
X12622029Y5859683D01*
X12623720Y5860388D01*
X12627527Y5861656D01*
X12631897Y5862643D01*
X12634152Y5862784D01*
X12636549Y5862925D01*
X12637958D01*
X12638945Y5862784D01*
D02*
G37*
G36*
X12419032D02*
X12420301Y5862643D01*
X12421710Y5862361D01*
X12423261Y5862079D01*
X12425094Y5861797D01*
X12428900Y5860529D01*
X12430874Y5859824D01*
X12432847Y5858837D01*
X12434821Y5857850D01*
X12436794Y5856440D01*
X12438627Y5855031D01*
X12440459Y5853339D01*
X12440600Y5853198D01*
X12440882Y5852916D01*
X12441305Y5852352D01*
X12441869Y5851647D01*
X12442574Y5850661D01*
X12443420Y5849392D01*
X12444266Y5847982D01*
X12445112Y5846432D01*
X12445957Y5844740D01*
X12446803Y5842625D01*
X12447649Y5840511D01*
X12448354Y5838114D01*
X12448918Y5835577D01*
X12449341Y5832898D01*
X12449623Y5830079D01*
X12449764Y5826978D01*
Y5826837D01*
Y5826414D01*
Y5825709D01*
Y5824722D01*
X12449623Y5823594D01*
X12449482Y5822185D01*
Y5820775D01*
X12449200Y5819224D01*
X12448777Y5815700D01*
X12447931Y5812176D01*
X12446944Y5808652D01*
X12445534Y5805409D01*
Y5805268D01*
X12445393Y5805127D01*
X12445112Y5804704D01*
X12444830Y5804141D01*
X12443843Y5802731D01*
X12442574Y5801039D01*
X12440882Y5799066D01*
X12438768Y5797092D01*
X12436371Y5795118D01*
X12433552Y5793286D01*
X12433411D01*
X12433270Y5793145D01*
X12432847Y5792863D01*
X12432142Y5792581D01*
X12431437Y5792299D01*
X12430592Y5792017D01*
X12428477Y5791171D01*
X12426081Y5790466D01*
X12423120Y5789762D01*
X12420019Y5789198D01*
X12416636Y5789057D01*
X12415226D01*
X12414098Y5789198D01*
X12412829Y5789339D01*
X12411420Y5789621D01*
X12409728Y5789903D01*
X12408036Y5790185D01*
X12404230Y5791312D01*
X12402116Y5792158D01*
X12400142Y5793004D01*
X12398168Y5794132D01*
X12396195Y5795400D01*
X12394362Y5796810D01*
X12392530Y5798502D01*
X12392389Y5798643D01*
X12392107Y5798925D01*
X12391684Y5799489D01*
X12391120Y5800334D01*
X12390415Y5801321D01*
X12389710Y5802449D01*
X12388864Y5803859D01*
X12388019Y5805550D01*
X12387173Y5807383D01*
X12386327Y5809497D01*
X12385622Y5811753D01*
X12384917Y5814149D01*
X12384353Y5816828D01*
X12383931Y5819647D01*
X12383649Y5822749D01*
X12383508Y5825991D01*
Y5826273D01*
Y5826837D01*
X12383649Y5827823D01*
Y5829233D01*
X12383790Y5830784D01*
X12384071Y5832757D01*
X12384353Y5834731D01*
X12384917Y5836987D01*
X12385481Y5839242D01*
X12386186Y5841639D01*
X12387032Y5844176D01*
X12388160Y5846573D01*
X12389287Y5848828D01*
X12390838Y5851084D01*
X12392389Y5853198D01*
X12394362Y5855031D01*
X12394503Y5855172D01*
X12394785Y5855313D01*
X12395349Y5855736D01*
X12396054Y5856299D01*
X12396900Y5856863D01*
X12398028Y5857568D01*
X12399155Y5858273D01*
X12400565Y5858978D01*
X12402116Y5859683D01*
X12403807Y5860388D01*
X12407613Y5861656D01*
X12411984Y5862643D01*
X12414239Y5862784D01*
X12416636Y5862925D01*
X12418045D01*
X12419032Y5862784D01*
D02*
G37*
G36*
X12340230D02*
X12341217Y5862643D01*
X12342485Y5862361D01*
X12343895Y5862079D01*
X12345446Y5861656D01*
X12346996Y5861092D01*
X12348688Y5860388D01*
X12350380Y5859542D01*
X12352212Y5858555D01*
X12353904Y5857427D01*
X12355596Y5856017D01*
X12357287Y5854467D01*
X12358838Y5852634D01*
Y5861374D01*
X12369834D01*
Y5800193D01*
Y5800052D01*
Y5799489D01*
Y5798643D01*
Y5797515D01*
X12369693Y5796246D01*
Y5794696D01*
X12369552Y5793004D01*
X12369411Y5791171D01*
X12368988Y5787365D01*
X12368424Y5783418D01*
X12368001Y5781585D01*
X12367578Y5779894D01*
X12367014Y5778343D01*
X12366450Y5776933D01*
Y5776792D01*
X12366309Y5776651D01*
X12365745Y5775806D01*
X12365041Y5774537D01*
X12363913Y5772986D01*
X12362362Y5771295D01*
X12360530Y5769462D01*
X12358274Y5767629D01*
X12355737Y5766079D01*
X12355596D01*
X12355455Y5765938D01*
X12355032Y5765656D01*
X12354468Y5765515D01*
X12353763Y5765092D01*
X12352917Y5764810D01*
X12350803Y5764105D01*
X12348265Y5763259D01*
X12345164Y5762695D01*
X12341640Y5762131D01*
X12337833Y5761991D01*
X12336565D01*
X12335719Y5762131D01*
X12334591D01*
X12333463Y5762272D01*
X12332054Y5762413D01*
X12330503Y5762695D01*
X12327261Y5763400D01*
X12323877Y5764387D01*
X12320494Y5765797D01*
X12317393Y5767770D01*
X12317252Y5767911D01*
X12317111Y5768052D01*
X12316124Y5768898D01*
X12314996Y5770167D01*
X12313586Y5771999D01*
X12312177Y5774396D01*
X12310908Y5777356D01*
X12310485Y5779048D01*
X12310203Y5780880D01*
X12309921Y5782713D01*
Y5784828D01*
X12321622Y5783277D01*
Y5782995D01*
X12321763Y5782431D01*
X12322045Y5781444D01*
X12322327Y5780176D01*
X12322891Y5778907D01*
X12323595Y5777638D01*
X12324441Y5776369D01*
X12325569Y5775383D01*
X12325851Y5775242D01*
X12326415Y5774819D01*
X12327402Y5774255D01*
X12328811Y5773691D01*
X12330503Y5772986D01*
X12332617Y5772422D01*
X12335155Y5771999D01*
X12337833Y5771858D01*
X12339243D01*
X12340653Y5771999D01*
X12342626Y5772281D01*
X12344600Y5772704D01*
X12346714Y5773268D01*
X12348829Y5774114D01*
X12350662Y5775242D01*
X12350803Y5775383D01*
X12351366Y5775806D01*
X12352212Y5776651D01*
X12353199Y5777638D01*
X12354186Y5779048D01*
X12355173Y5780599D01*
X12356159Y5782431D01*
X12356864Y5784546D01*
Y5784687D01*
X12357005Y5785251D01*
X12357146Y5786378D01*
X12357287Y5787788D01*
X12357428Y5788775D01*
Y5789903D01*
X12357569Y5791171D01*
Y5792581D01*
Y5794132D01*
X12357710Y5795964D01*
Y5797797D01*
Y5799911D01*
X12357569Y5799770D01*
X12357287Y5799489D01*
X12356864Y5799066D01*
X12356300Y5798502D01*
X12355596Y5797797D01*
X12354609Y5796951D01*
X12353481Y5796105D01*
X12352353Y5795259D01*
X12349393Y5793568D01*
X12346151Y5792017D01*
X12344318Y5791453D01*
X12342344Y5791030D01*
X12340230Y5790748D01*
X12338115Y5790607D01*
X12337410D01*
X12336706Y5790748D01*
X12335719D01*
X12334450Y5790889D01*
X12333040Y5791171D01*
X12331490Y5791453D01*
X12329798Y5791876D01*
X12327965Y5792440D01*
X12326133Y5793145D01*
X12324300Y5793991D01*
X12322327Y5794977D01*
X12320494Y5796246D01*
X12318661Y5797656D01*
X12316970Y5799207D01*
X12315419Y5801039D01*
X12315278Y5801180D01*
X12315137Y5801462D01*
X12314714Y5802167D01*
X12314150Y5802872D01*
X12313586Y5804000D01*
X12312882Y5805127D01*
X12312177Y5806537D01*
X12311472Y5808229D01*
X12310767Y5809920D01*
X12310062Y5811894D01*
X12309357Y5813867D01*
X12308794Y5816123D01*
X12307807Y5820916D01*
X12307666Y5823594D01*
X12307525Y5826273D01*
Y5826414D01*
Y5826696D01*
Y5827260D01*
Y5827964D01*
X12307666Y5828951D01*
Y5829938D01*
X12307948Y5832476D01*
X12308371Y5835295D01*
X12309075Y5838396D01*
X12309921Y5841639D01*
X12311190Y5844881D01*
Y5845022D01*
X12311331Y5845304D01*
X12311613Y5845727D01*
X12311895Y5846291D01*
X12312741Y5847841D01*
X12313868Y5849815D01*
X12315419Y5851929D01*
X12317252Y5854044D01*
X12319366Y5856299D01*
X12321763Y5858132D01*
X12321904D01*
X12322045Y5858273D01*
X12322468Y5858555D01*
X12323031Y5858837D01*
X12324441Y5859683D01*
X12326415Y5860529D01*
X12328811Y5861374D01*
X12331631Y5862220D01*
X12334732Y5862784D01*
X12338115Y5862925D01*
X12339384D01*
X12340230Y5862784D01*
D02*
G37*
G36*
X12652055Y5728806D02*
X12640073D01*
Y5742480D01*
X12652055D01*
Y5728806D01*
D02*
G37*
G36*
X12705765Y5717106D02*
X12707316Y5716965D01*
X12709148Y5716683D01*
X12711122Y5716260D01*
X12713236Y5715696D01*
X12715210Y5714850D01*
X12715492Y5714709D01*
X12716056Y5714427D01*
X12717043Y5714004D01*
X12718170Y5713299D01*
X12719580Y5712454D01*
X12720849Y5711326D01*
X12722118Y5710198D01*
X12723245Y5708788D01*
X12723386Y5708647D01*
X12723668Y5708084D01*
X12724091Y5707379D01*
X12724796Y5706392D01*
X12725360Y5704982D01*
X12725924Y5703573D01*
X12726629Y5701881D01*
X12727052Y5700048D01*
Y5699907D01*
X12727192Y5699343D01*
X12727333Y5698498D01*
X12727474Y5697370D01*
Y5695678D01*
X12727615Y5693705D01*
X12727756Y5691308D01*
Y5688348D01*
Y5644929D01*
X12715774D01*
Y5687784D01*
Y5687925D01*
Y5688066D01*
Y5689053D01*
Y5690321D01*
X12715633Y5691872D01*
X12715492Y5693705D01*
X12715210Y5695537D01*
X12714787Y5697229D01*
X12714364Y5698780D01*
Y5698921D01*
X12714082Y5699343D01*
X12713659Y5700048D01*
X12713236Y5700894D01*
X12712532Y5701740D01*
X12711686Y5702727D01*
X12710558Y5703714D01*
X12709289Y5704559D01*
X12709148Y5704700D01*
X12708725Y5704982D01*
X12707880Y5705264D01*
X12706893Y5705687D01*
X12705765Y5706110D01*
X12704355Y5706533D01*
X12702664Y5706674D01*
X12700972Y5706815D01*
X12700267D01*
X12699703Y5706674D01*
X12698294Y5706533D01*
X12696461Y5706251D01*
X12694487Y5705546D01*
X12692232Y5704700D01*
X12689976Y5703573D01*
X12687862Y5701881D01*
X12687580Y5701599D01*
X12687016Y5700894D01*
X12686593Y5700330D01*
X12686170Y5699625D01*
X12685606Y5698780D01*
X12685183Y5697793D01*
X12684620Y5696665D01*
X12684056Y5695255D01*
X12683633Y5693705D01*
X12683210Y5692013D01*
X12682928Y5690180D01*
X12682646Y5688207D01*
X12682364Y5685810D01*
Y5683414D01*
Y5644929D01*
X12670382D01*
Y5715696D01*
X12681095D01*
Y5705546D01*
X12681236Y5705687D01*
X12681518Y5706110D01*
X12681941Y5706674D01*
X12682505Y5707379D01*
X12683351Y5708225D01*
X12684338Y5709211D01*
X12685465Y5710339D01*
X12686875Y5711467D01*
X12688285Y5712454D01*
X12689976Y5713581D01*
X12691809Y5714568D01*
X12693783Y5715414D01*
X12696038Y5716119D01*
X12698294Y5716683D01*
X12700831Y5717106D01*
X12703510Y5717247D01*
X12704637D01*
X12705765Y5717106D01*
D02*
G37*
G36*
X12560002D02*
X12562117Y5716965D01*
X12564372Y5716683D01*
X12566769Y5716119D01*
X12569306Y5715555D01*
X12571703Y5714709D01*
X12571844D01*
X12571985Y5714568D01*
X12572689Y5714286D01*
X12573817Y5713722D01*
X12575227Y5713018D01*
X12576777Y5712031D01*
X12578328Y5710903D01*
X12579738Y5709634D01*
X12581007Y5708225D01*
X12581148Y5708084D01*
X12581429Y5707520D01*
X12581993Y5706533D01*
X12582698Y5705405D01*
X12583403Y5703714D01*
X12584108Y5701881D01*
X12584672Y5699766D01*
X12585236Y5697370D01*
X12573535Y5695819D01*
Y5696101D01*
X12573394Y5696665D01*
X12573112Y5697652D01*
X12572689Y5698921D01*
X12571985Y5700189D01*
X12571139Y5701599D01*
X12570152Y5703009D01*
X12568742Y5704277D01*
X12568601Y5704418D01*
X12568037Y5704700D01*
X12567192Y5705264D01*
X12565923Y5705828D01*
X12564513Y5706392D01*
X12562680Y5706956D01*
X12560425Y5707238D01*
X12558028Y5707379D01*
X12556619D01*
X12555209Y5707238D01*
X12553376Y5707097D01*
X12551544Y5706674D01*
X12549570Y5706251D01*
X12547738Y5705546D01*
X12546187Y5704559D01*
X12546046Y5704418D01*
X12545623Y5704136D01*
X12545059Y5703573D01*
X12544495Y5702727D01*
X12543791Y5701881D01*
X12543227Y5700753D01*
X12542804Y5699484D01*
X12542663Y5698216D01*
Y5698075D01*
Y5697793D01*
X12542804Y5697370D01*
Y5696806D01*
X12543227Y5695396D01*
X12544072Y5693987D01*
X12544213Y5693846D01*
X12544354Y5693705D01*
X12544636Y5693282D01*
X12545200Y5692859D01*
X12545764Y5692436D01*
X12546610Y5691872D01*
X12547597Y5691449D01*
X12548724Y5690885D01*
X12548865D01*
X12549147Y5690744D01*
X12549711Y5690603D01*
X12550698Y5690180D01*
X12552108Y5689757D01*
X12553940Y5689335D01*
X12555068Y5688912D01*
X12556337Y5688630D01*
X12557747Y5688207D01*
X12559297Y5687784D01*
X12559438D01*
X12559861Y5687643D01*
X12560566Y5687502D01*
X12561412Y5687220D01*
X12562399Y5686938D01*
X12563667Y5686656D01*
X12566346Y5685810D01*
X12569306Y5684964D01*
X12572266Y5683978D01*
X12574945Y5682991D01*
X12576073Y5682568D01*
X12577059Y5682145D01*
X12577341Y5682004D01*
X12577905Y5681722D01*
X12578751Y5681299D01*
X12580020Y5680594D01*
X12581289Y5679749D01*
X12582557Y5678621D01*
X12583826Y5677352D01*
X12584954Y5675942D01*
X12585095Y5675801D01*
X12585377Y5675238D01*
X12585941Y5674392D01*
X12586504Y5673123D01*
X12586927Y5671572D01*
X12587491Y5669881D01*
X12587773Y5667907D01*
X12587914Y5665652D01*
Y5665370D01*
Y5664665D01*
X12587773Y5663537D01*
X12587491Y5661986D01*
X12587068Y5660295D01*
X12586363Y5658462D01*
X12585518Y5656348D01*
X12584390Y5654374D01*
X12584249Y5654092D01*
X12583685Y5653528D01*
X12582980Y5652541D01*
X12581852Y5651414D01*
X12580302Y5650145D01*
X12578610Y5648735D01*
X12576637Y5647466D01*
X12574240Y5646198D01*
X12574099D01*
X12573958Y5646057D01*
X12573112Y5645775D01*
X12571703Y5645352D01*
X12569870Y5644788D01*
X12567614Y5644224D01*
X12565077Y5643801D01*
X12562399Y5643519D01*
X12559297Y5643378D01*
X12558028D01*
X12557042Y5643519D01*
X12555914D01*
X12554504Y5643660D01*
X12553095Y5643801D01*
X12551544Y5644083D01*
X12548161Y5644788D01*
X12544636Y5645775D01*
X12541253Y5647185D01*
X12539702Y5648030D01*
X12538293Y5649017D01*
X12538152Y5649158D01*
X12538011Y5649299D01*
X12537165Y5650145D01*
X12535896Y5651414D01*
X12534486Y5653387D01*
X12532936Y5655784D01*
X12531385Y5658603D01*
X12530116Y5662127D01*
X12529130Y5666075D01*
X12540971Y5667907D01*
Y5667766D01*
Y5667625D01*
X12541253Y5666779D01*
X12541535Y5665370D01*
X12542099Y5663819D01*
X12542804Y5662127D01*
X12543650Y5660295D01*
X12544918Y5658462D01*
X12546469Y5656911D01*
X12546751Y5656770D01*
X12547315Y5656348D01*
X12548443Y5655784D01*
X12549852Y5655079D01*
X12551685Y5654374D01*
X12553799Y5653810D01*
X12556337Y5653387D01*
X12559297Y5653246D01*
X12560707D01*
X12562117Y5653387D01*
X12563949Y5653669D01*
X12565923Y5654092D01*
X12568037Y5654656D01*
X12569870Y5655361D01*
X12571562Y5656489D01*
X12571703Y5656630D01*
X12572266Y5657052D01*
X12572830Y5657757D01*
X12573676Y5658744D01*
X12574381Y5659872D01*
X12575086Y5661282D01*
X12575509Y5662691D01*
X12575650Y5664383D01*
Y5664524D01*
Y5665088D01*
X12575509Y5665793D01*
X12575227Y5666779D01*
X12574804Y5667766D01*
X12574099Y5668753D01*
X12573253Y5669881D01*
X12571985Y5670727D01*
X12571844Y5670867D01*
X12571421Y5671008D01*
X12570716Y5671431D01*
X12569588Y5671854D01*
X12567896Y5672418D01*
X12566910Y5672841D01*
X12565782Y5673123D01*
X12564513Y5673546D01*
X12563103Y5673969D01*
X12561553Y5674392D01*
X12559720Y5674815D01*
X12559579D01*
X12559156Y5674956D01*
X12558451Y5675097D01*
X12557606Y5675379D01*
X12556478Y5675660D01*
X12555209Y5676083D01*
X12552531Y5676788D01*
X12549429Y5677775D01*
X12546469Y5678621D01*
X12543650Y5679608D01*
X12542381Y5680172D01*
X12541394Y5680594D01*
X12541112Y5680735D01*
X12540548Y5681017D01*
X12539702Y5681581D01*
X12538575Y5682286D01*
X12537306Y5683273D01*
X12536037Y5684401D01*
X12534768Y5685669D01*
X12533641Y5687220D01*
X12533500Y5687361D01*
X12533218Y5687925D01*
X12532795Y5688912D01*
X12532372Y5690039D01*
X12531949Y5691449D01*
X12531526Y5693141D01*
X12531244Y5694832D01*
X12531103Y5696806D01*
Y5697088D01*
Y5697652D01*
X12531244Y5698498D01*
X12531385Y5699766D01*
X12531667Y5701035D01*
X12531949Y5702586D01*
X12532513Y5703995D01*
X12533218Y5705546D01*
X12533359Y5705687D01*
X12533641Y5706251D01*
X12534064Y5706956D01*
X12534768Y5707943D01*
X12535614Y5708929D01*
X12536601Y5710198D01*
X12537729Y5711326D01*
X12539138Y5712313D01*
X12539279Y5712454D01*
X12539702Y5712595D01*
X12540266Y5713018D01*
X12541112Y5713440D01*
X12542240Y5714004D01*
X12543509Y5714568D01*
X12545059Y5715132D01*
X12546751Y5715696D01*
X12547033Y5715837D01*
X12547597Y5715978D01*
X12548583Y5716260D01*
X12549852Y5716542D01*
X12551403Y5716824D01*
X12553095Y5716965D01*
X12555068Y5717247D01*
X12558451D01*
X12560002Y5717106D01*
D02*
G37*
G36*
X12514469Y5644929D02*
X12502063D01*
Y5726551D01*
X12473587Y5644929D01*
X12462028D01*
X12433834Y5727960D01*
Y5644929D01*
X12421429D01*
Y5742480D01*
X12440741D01*
X12463861Y5673264D01*
Y5673123D01*
X12464001Y5672841D01*
X12464142Y5672418D01*
X12464424Y5671713D01*
X12464988Y5670022D01*
X12465693Y5667907D01*
X12466398Y5665511D01*
X12467244Y5663114D01*
X12467949Y5660859D01*
X12468513Y5658885D01*
X12468653Y5659167D01*
X12468794Y5659872D01*
X12469217Y5661141D01*
X12469781Y5662832D01*
X12470486Y5665088D01*
X12471473Y5667766D01*
X12472460Y5670867D01*
X12473728Y5674533D01*
X12497129Y5742480D01*
X12514469D01*
Y5644929D01*
D02*
G37*
G36*
X12834048Y5707520D02*
X12834189Y5707661D01*
X12834471Y5707943D01*
X12834894Y5708366D01*
X12835599Y5709070D01*
X12836304Y5709775D01*
X12837289Y5710621D01*
X12838559Y5711467D01*
X12839828Y5712454D01*
X12841237Y5713299D01*
X12842789Y5714145D01*
X12846452Y5715696D01*
X12848427Y5716401D01*
X12850542Y5716824D01*
X12852797Y5717106D01*
X12855052Y5717247D01*
X12856322D01*
X12857872Y5717106D01*
X12859705Y5716824D01*
X12861819Y5716542D01*
X12864075Y5715978D01*
X12866330Y5715132D01*
X12868585Y5714145D01*
X12868867Y5714004D01*
X12869572Y5713581D01*
X12870560Y5712877D01*
X12871828Y5711890D01*
X12873096Y5710621D01*
X12874506Y5709211D01*
X12875775Y5707520D01*
X12876903Y5705546D01*
X12877045Y5705264D01*
X12877325Y5704559D01*
X12877748Y5703291D01*
X12878171Y5701458D01*
X12878593Y5699202D01*
X12879018Y5696524D01*
X12879298Y5693282D01*
X12879440Y5689617D01*
Y5644929D01*
X12867458D01*
Y5689757D01*
Y5689898D01*
Y5690180D01*
Y5690603D01*
Y5691167D01*
X12867317Y5692718D01*
X12867035Y5694691D01*
X12866470Y5696806D01*
X12865765Y5698921D01*
X12864780Y5701035D01*
X12863510Y5702727D01*
X12863370Y5702868D01*
X12862807Y5703432D01*
X12861960Y5704136D01*
X12860690Y5704841D01*
X12859140Y5705687D01*
X12857307Y5706251D01*
X12855052Y5706815D01*
X12852515Y5706956D01*
X12851669D01*
X12850682Y5706815D01*
X12849272Y5706674D01*
X12847862Y5706251D01*
X12846172Y5705828D01*
X12844479Y5705123D01*
X12842647Y5704136D01*
X12842506Y5703995D01*
X12841942Y5703573D01*
X12841096Y5703009D01*
X12840109Y5702163D01*
X12838982Y5701035D01*
X12837854Y5699766D01*
X12836867Y5698216D01*
X12836021Y5696524D01*
X12835880Y5696242D01*
X12835739Y5695678D01*
X12835457Y5694550D01*
X12835036Y5693141D01*
X12834612Y5691308D01*
X12834331Y5689053D01*
X12834189Y5686515D01*
X12834048Y5683555D01*
Y5644929D01*
X12822066D01*
Y5742480D01*
X12834048D01*
Y5707520D01*
D02*
G37*
G36*
X12652055Y5644929D02*
X12640073D01*
Y5715696D01*
X12652055D01*
Y5644929D01*
D02*
G37*
G36*
X12373076Y5742339D02*
X12375472Y5742198D01*
X12378010Y5742057D01*
X12380406Y5741775D01*
X12382521Y5741493D01*
X12382803D01*
X12383790Y5741212D01*
X12385058Y5740930D01*
X12386750Y5740507D01*
X12388583Y5739802D01*
X12390556Y5738956D01*
X12392671Y5737969D01*
X12394503Y5736841D01*
X12394785Y5736700D01*
X12395349Y5736278D01*
X12396195Y5735432D01*
X12397323Y5734445D01*
X12398591Y5733176D01*
X12399860Y5731485D01*
X12401270Y5729652D01*
X12402398Y5727537D01*
X12402539Y5727255D01*
X12402821Y5726551D01*
X12403384Y5725282D01*
X12403948Y5723590D01*
X12404371Y5721617D01*
X12404935Y5719361D01*
X12405217Y5716824D01*
X12405358Y5714145D01*
Y5714004D01*
Y5713581D01*
Y5713018D01*
X12405217Y5712031D01*
X12405076Y5711044D01*
X12404935Y5709775D01*
X12404653Y5708366D01*
X12404371Y5706815D01*
X12403384Y5703573D01*
X12402821Y5701881D01*
X12401975Y5700048D01*
X12400988Y5698216D01*
X12400001Y5696524D01*
X12398732Y5694832D01*
X12397323Y5693141D01*
X12397182Y5693000D01*
X12396900Y5692718D01*
X12396477Y5692295D01*
X12395772Y5691872D01*
X12394926Y5691167D01*
X12393798Y5690462D01*
X12392389Y5689617D01*
X12390838Y5688912D01*
X12389005Y5688066D01*
X12386891Y5687220D01*
X12384635Y5686515D01*
X12381957Y5685951D01*
X12379138Y5685387D01*
X12376036Y5684964D01*
X12372512Y5684683D01*
X12368847Y5684542D01*
X12343895D01*
Y5644929D01*
X12330926D01*
Y5742480D01*
X12370961D01*
X12373076Y5742339D01*
D02*
G37*
G36*
X12282150D02*
X12284547Y5742198D01*
X12287084Y5742057D01*
X12289481Y5741775D01*
X12291595Y5741493D01*
X12291877D01*
X12292864Y5741212D01*
X12294133Y5740930D01*
X12295824Y5740507D01*
X12297657Y5739802D01*
X12299630Y5738956D01*
X12301745Y5737969D01*
X12303578Y5736841D01*
X12303860Y5736700D01*
X12304423Y5736278D01*
X12305269Y5735432D01*
X12306397Y5734445D01*
X12307666Y5733176D01*
X12308934Y5731485D01*
X12310344Y5729652D01*
X12311472Y5727537D01*
X12311613Y5727255D01*
X12311895Y5726551D01*
X12312459Y5725282D01*
X12313023Y5723590D01*
X12313446Y5721617D01*
X12314009Y5719361D01*
X12314291Y5716824D01*
X12314432Y5714145D01*
Y5714004D01*
Y5713581D01*
Y5713018D01*
X12314291Y5712031D01*
X12314150Y5711044D01*
X12314009Y5709775D01*
X12313727Y5708366D01*
X12313446Y5706815D01*
X12312459Y5703573D01*
X12311895Y5701881D01*
X12311049Y5700048D01*
X12310062Y5698216D01*
X12309075Y5696524D01*
X12307807Y5694832D01*
X12306397Y5693141D01*
X12306256Y5693000D01*
X12305974Y5692718D01*
X12305551Y5692295D01*
X12304846Y5691872D01*
X12304001Y5691167D01*
X12302873Y5690462D01*
X12301463Y5689617D01*
X12299912Y5688912D01*
X12298080Y5688066D01*
X12295965Y5687220D01*
X12293710Y5686515D01*
X12291031Y5685951D01*
X12288212Y5685387D01*
X12285111Y5684964D01*
X12281586Y5684683D01*
X12277921Y5684542D01*
X12252969D01*
Y5644929D01*
X12240000D01*
Y5742480D01*
X12280036D01*
X12282150Y5742339D01*
D02*
G37*
G36*
X12798100Y5715696D02*
X12810223D01*
Y5706392D01*
X12798100D01*
Y5664806D01*
Y5664524D01*
Y5663960D01*
Y5663114D01*
X12798241Y5662127D01*
X12798382Y5659872D01*
X12798523Y5658885D01*
X12798664Y5658180D01*
X12798805Y5657898D01*
X12799228Y5657334D01*
X12799792Y5656630D01*
X12800780Y5655925D01*
X12801060Y5655784D01*
X12801765Y5655502D01*
X12803033Y5655220D01*
X12804868Y5655079D01*
X12806277D01*
X12806981Y5655220D01*
X12807968D01*
X12809096Y5655361D01*
X12810223Y5655502D01*
X12811774Y5644929D01*
X12811493D01*
X12810928Y5644788D01*
X12809943Y5644647D01*
X12808673Y5644506D01*
X12807263Y5644224D01*
X12805713Y5644083D01*
X12802611Y5643942D01*
X12801485D01*
X12800356Y5644083D01*
X12798946Y5644224D01*
X12797255Y5644365D01*
X12795563Y5644788D01*
X12794012Y5645211D01*
X12792462Y5645916D01*
X12792321Y5646057D01*
X12791898Y5646339D01*
X12791334Y5646762D01*
X12790488Y5647466D01*
X12789783Y5648171D01*
X12788937Y5649158D01*
X12788092Y5650145D01*
X12787528Y5651414D01*
Y5651555D01*
X12787246Y5652118D01*
X12787105Y5653105D01*
X12786823Y5654515D01*
X12786541Y5656348D01*
X12786400Y5657475D01*
Y5658744D01*
X12786259Y5660295D01*
X12786118Y5661845D01*
Y5663537D01*
Y5665511D01*
Y5706392D01*
X12777237D01*
Y5715696D01*
X12786118D01*
Y5733176D01*
X12798100Y5740366D01*
Y5715696D01*
D02*
G37*
G36*
X12929202Y5717106D02*
X12930330Y5716965D01*
X12931740Y5716683D01*
X12933292Y5716401D01*
X12935123Y5715978D01*
X12936815Y5715555D01*
X12938788Y5714850D01*
X12940620Y5714145D01*
X12942595Y5713159D01*
X12944568Y5712031D01*
X12946542Y5710762D01*
X12948373Y5709211D01*
X12950066Y5707520D01*
X12950208Y5707379D01*
X12950488Y5707097D01*
X12950912Y5706533D01*
X12951476Y5705687D01*
X12952180Y5704700D01*
X12952885Y5703573D01*
X12953731Y5702163D01*
X12954578Y5700471D01*
X12955423Y5698639D01*
X12956268Y5696665D01*
X12956973Y5694409D01*
X12957678Y5692013D01*
X12958241Y5689335D01*
X12958665Y5686515D01*
X12958948Y5683555D01*
X12959088Y5680312D01*
Y5680172D01*
Y5679608D01*
Y5678621D01*
X12958948Y5677211D01*
X12906084D01*
Y5677070D01*
Y5676647D01*
X12906224Y5676083D01*
Y5675238D01*
X12906364Y5674251D01*
X12906647Y5673123D01*
X12907069Y5670586D01*
X12907916Y5667766D01*
X12909044Y5664665D01*
X12910594Y5661845D01*
X12912569Y5659308D01*
X12912709D01*
X12912849Y5659026D01*
X12913696Y5658321D01*
X12914964Y5657334D01*
X12916656Y5656348D01*
X12918912Y5655220D01*
X12921449Y5654233D01*
X12924269Y5653528D01*
X12925819Y5653387D01*
X12927512Y5653246D01*
X12928639D01*
X12929907Y5653387D01*
X12931458Y5653669D01*
X12933150Y5654092D01*
X12935123Y5654656D01*
X12936955Y5655502D01*
X12938788Y5656630D01*
X12938930Y5656770D01*
X12939635Y5657334D01*
X12940480Y5658180D01*
X12941467Y5659308D01*
X12942595Y5660859D01*
X12943863Y5662832D01*
X12945132Y5665088D01*
X12946260Y5667766D01*
X12958665Y5666215D01*
Y5666075D01*
X12958524Y5665793D01*
X12958383Y5665229D01*
X12958101Y5664383D01*
X12957678Y5663537D01*
X12957256Y5662409D01*
X12956128Y5660013D01*
X12954718Y5657334D01*
X12952744Y5654515D01*
X12950488Y5651837D01*
X12947670Y5649299D01*
X12947530D01*
X12947247Y5649017D01*
X12946825Y5648735D01*
X12946260Y5648312D01*
X12945415Y5647889D01*
X12944568Y5647466D01*
X12943440Y5646903D01*
X12942172Y5646339D01*
X12940762Y5645775D01*
X12939352Y5645211D01*
X12935828Y5644365D01*
X12931882Y5643660D01*
X12927512Y5643378D01*
X12925960D01*
X12924973Y5643519D01*
X12923705Y5643660D01*
X12922154Y5643942D01*
X12920462Y5644224D01*
X12918629Y5644506D01*
X12914684Y5645634D01*
X12912569Y5646480D01*
X12910594Y5647326D01*
X12908479Y5648453D01*
X12906506Y5649722D01*
X12904674Y5651132D01*
X12902841Y5652823D01*
X12902699Y5652964D01*
X12902419Y5653246D01*
X12901994Y5653810D01*
X12901431Y5654656D01*
X12900726Y5655643D01*
X12900021Y5656770D01*
X12899176Y5658180D01*
X12898331Y5659731D01*
X12897484Y5661563D01*
X12896638Y5663537D01*
X12895934Y5665793D01*
X12895229Y5668189D01*
X12894666Y5670727D01*
X12894241Y5673546D01*
X12893961Y5676506D01*
X12893819Y5679608D01*
Y5679749D01*
Y5680453D01*
Y5681299D01*
X12893961Y5682568D01*
X12894101Y5684119D01*
X12894241Y5685810D01*
X12894524Y5687784D01*
X12894946Y5689757D01*
X12896075Y5694269D01*
X12896779Y5696524D01*
X12897626Y5698921D01*
X12898753Y5701176D01*
X12900021Y5703291D01*
X12901431Y5705405D01*
X12902982Y5707379D01*
X12903123Y5707520D01*
X12903406Y5707802D01*
X12903969Y5708225D01*
X12904674Y5708929D01*
X12905521Y5709634D01*
X12906647Y5710480D01*
X12907916Y5711467D01*
X12909467Y5712313D01*
X12911017Y5713299D01*
X12912849Y5714145D01*
X12914824Y5714991D01*
X12916937Y5715696D01*
X12919194Y5716401D01*
X12921590Y5716824D01*
X12924129Y5717106D01*
X12926807Y5717247D01*
X12928217D01*
X12929202Y5717106D01*
D02*
G37*
G36*
X12499808Y5623727D02*
X12501359Y5623586D01*
X12503191Y5623304D01*
X12505165Y5622881D01*
X12507279Y5622317D01*
X12509253Y5621472D01*
X12509535Y5621331D01*
X12510099Y5621049D01*
X12511085Y5620626D01*
X12512213Y5619921D01*
X12513623Y5619075D01*
X12514892Y5617947D01*
X12516160Y5616820D01*
X12517288Y5615410D01*
X12517429Y5615269D01*
X12517711Y5614705D01*
X12518134Y5614000D01*
X12518839Y5613013D01*
X12519403Y5611604D01*
X12519967Y5610194D01*
X12520671Y5608502D01*
X12521094Y5606670D01*
Y5606529D01*
X12521235Y5605965D01*
X12521376Y5605119D01*
X12521517Y5603991D01*
Y5602300D01*
X12521658Y5600326D01*
X12521799Y5597930D01*
Y5594969D01*
Y5551550D01*
X12509817D01*
Y5594405D01*
Y5594546D01*
Y5594687D01*
Y5595674D01*
Y5596943D01*
X12509676Y5598494D01*
X12509535Y5600326D01*
X12509253Y5602159D01*
X12508830Y5603850D01*
X12508407Y5605401D01*
Y5605542D01*
X12508125Y5605965D01*
X12507702Y5606670D01*
X12507279Y5607516D01*
X12506574Y5608361D01*
X12505729Y5609348D01*
X12504601Y5610335D01*
X12503332Y5611181D01*
X12503191Y5611322D01*
X12502768Y5611604D01*
X12501922Y5611886D01*
X12500936Y5612309D01*
X12499808Y5612731D01*
X12498398Y5613154D01*
X12496707Y5613295D01*
X12495015Y5613436D01*
X12494310D01*
X12493746Y5613295D01*
X12492336Y5613154D01*
X12490504Y5612872D01*
X12488530Y5612168D01*
X12486275Y5611322D01*
X12484019Y5610194D01*
X12481905Y5608502D01*
X12481623Y5608220D01*
X12481059Y5607516D01*
X12480636Y5606952D01*
X12480213Y5606247D01*
X12479649Y5605401D01*
X12479226Y5604414D01*
X12478662Y5603286D01*
X12478098Y5601877D01*
X12477676Y5600326D01*
X12477253Y5598634D01*
X12476971Y5596802D01*
X12476689Y5594828D01*
X12476407Y5592432D01*
Y5590035D01*
Y5551550D01*
X12464424D01*
Y5622317D01*
X12475138D01*
Y5612168D01*
X12475279Y5612309D01*
X12475561Y5612731D01*
X12475984Y5613295D01*
X12476548Y5614000D01*
X12477394Y5614846D01*
X12478380Y5615833D01*
X12479508Y5616961D01*
X12480918Y5618088D01*
X12482328Y5619075D01*
X12484019Y5620203D01*
X12485852Y5621190D01*
X12487825Y5622035D01*
X12490081Y5622740D01*
X12492336Y5623304D01*
X12494874Y5623727D01*
X12497552Y5623868D01*
X12498680D01*
X12499808Y5623727D01*
D02*
G37*
G36*
X12350944Y5551550D02*
X12339525D01*
X12312882Y5622317D01*
X12325569D01*
X12340794Y5579885D01*
Y5579744D01*
X12340935Y5579604D01*
X12341076Y5579181D01*
X12341217Y5578758D01*
X12341640Y5577348D01*
X12342203Y5575515D01*
X12342908Y5573401D01*
X12343754Y5571004D01*
X12344459Y5568326D01*
X12345305Y5565647D01*
X12345446Y5565929D01*
X12345587Y5566634D01*
X12346010Y5567762D01*
X12346433Y5569454D01*
X12347137Y5571286D01*
X12347842Y5573683D01*
X12348829Y5576220D01*
X12349816Y5579040D01*
X12365463Y5622317D01*
X12377869D01*
X12350944Y5551550D01*
D02*
G37*
G36*
X12419878Y5623727D02*
X12421006Y5623586D01*
X12422415Y5623304D01*
X12423966Y5623022D01*
X12425799Y5622599D01*
X12427490Y5622176D01*
X12429464Y5621472D01*
X12431296Y5620767D01*
X12433270Y5619780D01*
X12435244Y5618652D01*
X12437217Y5617383D01*
X12439050Y5615833D01*
X12440741Y5614141D01*
X12440882Y5614000D01*
X12441164Y5613718D01*
X12441587Y5613154D01*
X12442151Y5612309D01*
X12442856Y5611322D01*
X12443561Y5610194D01*
X12444407Y5608784D01*
X12445252Y5607093D01*
X12446098Y5605260D01*
X12446944Y5603286D01*
X12447649Y5601031D01*
X12448354Y5598634D01*
X12448918Y5595956D01*
X12449341Y5593137D01*
X12449623Y5590176D01*
X12449764Y5586934D01*
Y5586793D01*
Y5586229D01*
Y5585242D01*
X12449623Y5583833D01*
X12396759D01*
Y5583692D01*
Y5583269D01*
X12396900Y5582705D01*
Y5581859D01*
X12397041Y5580872D01*
X12397323Y5579744D01*
X12397746Y5577207D01*
X12398591Y5574388D01*
X12399719Y5571286D01*
X12401270Y5568467D01*
X12403243Y5565929D01*
X12403384D01*
X12403525Y5565647D01*
X12404371Y5564943D01*
X12405640Y5563956D01*
X12407332Y5562969D01*
X12409587Y5561841D01*
X12412125Y5560855D01*
X12414944Y5560150D01*
X12416495Y5560009D01*
X12418186Y5559868D01*
X12419314D01*
X12420583Y5560009D01*
X12422133Y5560291D01*
X12423825Y5560714D01*
X12425799Y5561277D01*
X12427631Y5562123D01*
X12429464Y5563251D01*
X12429605Y5563392D01*
X12430310Y5563956D01*
X12431155Y5564802D01*
X12432142Y5565929D01*
X12433270Y5567480D01*
X12434539Y5569454D01*
X12435807Y5571709D01*
X12436935Y5574388D01*
X12449341Y5572837D01*
Y5572696D01*
X12449200Y5572414D01*
X12449059Y5571850D01*
X12448777Y5571004D01*
X12448354Y5570159D01*
X12447931Y5569031D01*
X12446803Y5566634D01*
X12445393Y5563956D01*
X12443420Y5561136D01*
X12441164Y5558458D01*
X12438345Y5555921D01*
X12438204D01*
X12437922Y5555639D01*
X12437499Y5555357D01*
X12436935Y5554934D01*
X12436089Y5554511D01*
X12435244Y5554088D01*
X12434116Y5553524D01*
X12432847Y5552960D01*
X12431437Y5552396D01*
X12430028Y5551832D01*
X12426503Y5550987D01*
X12422556Y5550282D01*
X12418186Y5550000D01*
X12416636D01*
X12415649Y5550141D01*
X12414380Y5550282D01*
X12412829Y5550564D01*
X12411138Y5550846D01*
X12409305Y5551128D01*
X12405358Y5552255D01*
X12403243Y5553101D01*
X12401270Y5553947D01*
X12399155Y5555075D01*
X12397182Y5556343D01*
X12395349Y5557753D01*
X12393516Y5559445D01*
X12393376Y5559586D01*
X12393094Y5559868D01*
X12392671Y5560432D01*
X12392107Y5561277D01*
X12391402Y5562264D01*
X12390697Y5563392D01*
X12389851Y5564802D01*
X12389005Y5566352D01*
X12388160Y5568185D01*
X12387314Y5570159D01*
X12386609Y5572414D01*
X12385904Y5574811D01*
X12385340Y5577348D01*
X12384917Y5580167D01*
X12384635Y5583128D01*
X12384494Y5586229D01*
Y5586370D01*
Y5587075D01*
Y5587921D01*
X12384635Y5589189D01*
X12384776Y5590740D01*
X12384917Y5592432D01*
X12385199Y5594405D01*
X12385622Y5596379D01*
X12386750Y5600890D01*
X12387455Y5603146D01*
X12388301Y5605542D01*
X12389428Y5607798D01*
X12390697Y5609912D01*
X12392107Y5612027D01*
X12393657Y5614000D01*
X12393798Y5614141D01*
X12394080Y5614423D01*
X12394644Y5614846D01*
X12395349Y5615551D01*
X12396195Y5616256D01*
X12397323Y5617102D01*
X12398591Y5618088D01*
X12400142Y5618934D01*
X12401693Y5619921D01*
X12403525Y5620767D01*
X12405499Y5621613D01*
X12407613Y5622317D01*
X12409869Y5623022D01*
X12412265Y5623445D01*
X12414803Y5623727D01*
X12417481Y5623868D01*
X12418891D01*
X12419878Y5623727D01*
D02*
G37*
G36*
X12275525D02*
X12276793Y5623586D01*
X12278203Y5623304D01*
X12279754Y5623022D01*
X12281586Y5622740D01*
X12285392Y5621472D01*
X12287366Y5620767D01*
X12289340Y5619780D01*
X12291313Y5618793D01*
X12293287Y5617383D01*
X12295119Y5615974D01*
X12296952Y5614282D01*
X12297093Y5614141D01*
X12297375Y5613859D01*
X12297798Y5613295D01*
X12298362Y5612591D01*
X12299067Y5611604D01*
X12299912Y5610335D01*
X12300758Y5608925D01*
X12301604Y5607375D01*
X12302450Y5605683D01*
X12303296Y5603568D01*
X12304142Y5601454D01*
X12304846Y5599057D01*
X12305410Y5596520D01*
X12305833Y5593841D01*
X12306115Y5591022D01*
X12306256Y5587921D01*
Y5587780D01*
Y5587357D01*
Y5586652D01*
Y5585665D01*
X12306115Y5584537D01*
X12305974Y5583128D01*
Y5581718D01*
X12305692Y5580167D01*
X12305269Y5576643D01*
X12304423Y5573119D01*
X12303437Y5569595D01*
X12302027Y5566352D01*
Y5566211D01*
X12301886Y5566070D01*
X12301604Y5565647D01*
X12301322Y5565084D01*
X12300335Y5563674D01*
X12299067Y5561982D01*
X12297375Y5560009D01*
X12295260Y5558035D01*
X12292864Y5556062D01*
X12290045Y5554229D01*
X12289904D01*
X12289763Y5554088D01*
X12289340Y5553806D01*
X12288635Y5553524D01*
X12287930Y5553242D01*
X12287084Y5552960D01*
X12284970Y5552114D01*
X12282573Y5551410D01*
X12279613Y5550705D01*
X12276511Y5550141D01*
X12273128Y5550000D01*
X12271718D01*
X12270591Y5550141D01*
X12269322Y5550282D01*
X12267912Y5550564D01*
X12266221Y5550846D01*
X12264529Y5551128D01*
X12260723Y5552255D01*
X12258608Y5553101D01*
X12256635Y5553947D01*
X12254661Y5555075D01*
X12252687Y5556343D01*
X12250855Y5557753D01*
X12249022Y5559445D01*
X12248881Y5559586D01*
X12248599Y5559868D01*
X12248176Y5560432D01*
X12247613Y5561277D01*
X12246908Y5562264D01*
X12246203Y5563392D01*
X12245357Y5564802D01*
X12244511Y5566493D01*
X12243665Y5568326D01*
X12242820Y5570440D01*
X12242115Y5572696D01*
X12241410Y5575092D01*
X12240846Y5577771D01*
X12240423Y5580590D01*
X12240141Y5583692D01*
X12240000Y5586934D01*
Y5587216D01*
Y5587780D01*
X12240141Y5588767D01*
Y5590176D01*
X12240282Y5591727D01*
X12240564Y5593701D01*
X12240846Y5595674D01*
X12241410Y5597930D01*
X12241974Y5600185D01*
X12242679Y5602582D01*
X12243524Y5605119D01*
X12244652Y5607516D01*
X12245780Y5609771D01*
X12247331Y5612027D01*
X12248881Y5614141D01*
X12250855Y5615974D01*
X12250996Y5616115D01*
X12251278Y5616256D01*
X12251842Y5616679D01*
X12252546Y5617243D01*
X12253392Y5617806D01*
X12254520Y5618511D01*
X12255648Y5619216D01*
X12257058Y5619921D01*
X12258608Y5620626D01*
X12260300Y5621331D01*
X12264106Y5622599D01*
X12268476Y5623586D01*
X12270732Y5623727D01*
X12273128Y5623868D01*
X12274538D01*
X12275525Y5623727D01*
D02*
G37*
%LPC*%
G36*
X12826434Y5853057D02*
X12825591D01*
X12825026Y5852916D01*
X12823476Y5852775D01*
X12821642Y5852352D01*
X12819386Y5851647D01*
X12816991Y5850661D01*
X12814735Y5849251D01*
X12812479Y5847418D01*
X12812196Y5847136D01*
X12811633Y5846432D01*
X12810648Y5845163D01*
X12809660Y5843471D01*
X12808533Y5841498D01*
X12807545Y5838960D01*
X12806700Y5836000D01*
X12806277Y5832757D01*
X12845889D01*
Y5832898D01*
Y5833180D01*
X12845747Y5833603D01*
Y5834167D01*
X12845467Y5835859D01*
X12845042Y5837691D01*
X12844339Y5839947D01*
X12843634Y5842061D01*
X12842506Y5844176D01*
X12841237Y5846009D01*
Y5846150D01*
X12840955Y5846291D01*
X12840250Y5847136D01*
X12838982Y5848264D01*
X12837289Y5849533D01*
X12835175Y5850802D01*
X12832639Y5851929D01*
X12829678Y5852775D01*
X12828127Y5852916D01*
X12826434Y5853057D01*
D02*
G37*
G36*
X12636549D02*
X12635703D01*
X12634998Y5852916D01*
X12633447Y5852775D01*
X12631333Y5852211D01*
X12628936Y5851365D01*
X12626399Y5850238D01*
X12624002Y5848546D01*
X12622734Y5847418D01*
X12621606Y5846291D01*
Y5846150D01*
X12621324Y5846009D01*
X12621042Y5845586D01*
X12620619Y5845022D01*
X12620196Y5844317D01*
X12619773Y5843471D01*
X12619209Y5842343D01*
X12618646Y5841216D01*
X12618082Y5839806D01*
X12617518Y5838396D01*
X12617095Y5836705D01*
X12616672Y5834872D01*
X12616249Y5832898D01*
X12615967Y5830784D01*
X12615826Y5828387D01*
X12615685Y5825991D01*
Y5825850D01*
Y5825427D01*
Y5824722D01*
X12615826Y5823735D01*
Y5822608D01*
X12615967Y5821339D01*
X12616390Y5818379D01*
X12617095Y5814995D01*
X12618223Y5811612D01*
X12619632Y5808370D01*
X12620619Y5806960D01*
X12621606Y5805550D01*
X12621747D01*
X12621888Y5805268D01*
X12622734Y5804563D01*
X12624002Y5803436D01*
X12625694Y5802308D01*
X12627809Y5801039D01*
X12630346Y5799911D01*
X12633306Y5799207D01*
X12634857Y5799066D01*
X12636549Y5798925D01*
X12637395D01*
X12638099Y5799066D01*
X12639650Y5799348D01*
X12641765Y5799770D01*
X12644020Y5800616D01*
X12646558Y5801744D01*
X12648954Y5803436D01*
X12650223Y5804563D01*
X12651351Y5805691D01*
X12651492Y5805832D01*
X12651633Y5805973D01*
X12651914Y5806396D01*
X12652337Y5806960D01*
X12652760Y5807665D01*
X12653324Y5808511D01*
X12653888Y5809638D01*
X12654452Y5810766D01*
X12655016Y5812176D01*
X12655439Y5813726D01*
X12656003Y5815418D01*
X12656426Y5817251D01*
X12656848Y5819365D01*
X12657130Y5821480D01*
X12657412Y5823876D01*
Y5826414D01*
Y5826555D01*
Y5826978D01*
Y5827683D01*
X12657271Y5828528D01*
Y5829656D01*
X12657130Y5830925D01*
X12656707Y5833885D01*
X12656003Y5836987D01*
X12654875Y5840370D01*
X12653324Y5843471D01*
X12652478Y5845022D01*
X12651351Y5846291D01*
Y5846432D01*
X12651069Y5846573D01*
X12650223Y5847418D01*
X12648954Y5848405D01*
X12647262Y5849674D01*
X12645148Y5850943D01*
X12642610Y5852070D01*
X12639791Y5852775D01*
X12638240Y5852916D01*
X12636549Y5853057D01*
D02*
G37*
G36*
X12416636D02*
X12415790D01*
X12415085Y5852916D01*
X12413534Y5852775D01*
X12411420Y5852211D01*
X12409023Y5851365D01*
X12406486Y5850238D01*
X12404089Y5848546D01*
X12402821Y5847418D01*
X12401693Y5846291D01*
Y5846150D01*
X12401411Y5846009D01*
X12401129Y5845586D01*
X12400706Y5845022D01*
X12400283Y5844317D01*
X12399860Y5843471D01*
X12399296Y5842343D01*
X12398732Y5841216D01*
X12398168Y5839806D01*
X12397605Y5838396D01*
X12397182Y5836705D01*
X12396759Y5834872D01*
X12396336Y5832898D01*
X12396054Y5830784D01*
X12395913Y5828387D01*
X12395772Y5825991D01*
Y5825850D01*
Y5825427D01*
Y5824722D01*
X12395913Y5823735D01*
Y5822608D01*
X12396054Y5821339D01*
X12396477Y5818379D01*
X12397182Y5814995D01*
X12398309Y5811612D01*
X12399719Y5808370D01*
X12400706Y5806960D01*
X12401693Y5805550D01*
X12401834D01*
X12401975Y5805268D01*
X12402821Y5804563D01*
X12404089Y5803436D01*
X12405781Y5802308D01*
X12407895Y5801039D01*
X12410433Y5799911D01*
X12413393Y5799207D01*
X12414944Y5799066D01*
X12416636Y5798925D01*
X12417481D01*
X12418186Y5799066D01*
X12419737Y5799348D01*
X12421851Y5799770D01*
X12424107Y5800616D01*
X12426644Y5801744D01*
X12429041Y5803436D01*
X12430310Y5804563D01*
X12431437Y5805691D01*
X12431578Y5805832D01*
X12431719Y5805973D01*
X12432001Y5806396D01*
X12432424Y5806960D01*
X12432847Y5807665D01*
X12433411Y5808511D01*
X12433975Y5809638D01*
X12434539Y5810766D01*
X12435103Y5812176D01*
X12435526Y5813726D01*
X12436089Y5815418D01*
X12436512Y5817251D01*
X12436935Y5819365D01*
X12437217Y5821480D01*
X12437499Y5823876D01*
Y5826414D01*
Y5826555D01*
Y5826978D01*
Y5827683D01*
X12437358Y5828528D01*
Y5829656D01*
X12437217Y5830925D01*
X12436794Y5833885D01*
X12436089Y5836987D01*
X12434962Y5840370D01*
X12433411Y5843471D01*
X12432565Y5845022D01*
X12431437Y5846291D01*
Y5846432D01*
X12431155Y5846573D01*
X12430310Y5847418D01*
X12429041Y5848405D01*
X12427349Y5849674D01*
X12425235Y5850943D01*
X12422697Y5852070D01*
X12419878Y5852775D01*
X12418327Y5852916D01*
X12416636Y5853057D01*
D02*
G37*
G36*
X12340512D02*
X12338256D01*
X12337692Y5852916D01*
X12336142Y5852775D01*
X12334309Y5852211D01*
X12332054Y5851506D01*
X12329798Y5850238D01*
X12327543Y5848687D01*
X12326415Y5847559D01*
X12325287Y5846432D01*
Y5846291D01*
X12325005Y5846150D01*
X12324723Y5845727D01*
X12324441Y5845163D01*
X12324018Y5844599D01*
X12323595Y5843753D01*
X12323031Y5842766D01*
X12322609Y5841639D01*
X12322045Y5840370D01*
X12321481Y5838819D01*
X12321058Y5837268D01*
X12320635Y5835577D01*
X12320353Y5833603D01*
X12320071Y5831630D01*
X12319789Y5829515D01*
Y5827119D01*
Y5826978D01*
Y5826555D01*
Y5825850D01*
X12319930Y5824863D01*
Y5823735D01*
X12320071Y5822326D01*
X12320494Y5819365D01*
X12321199Y5815982D01*
X12322045Y5812740D01*
X12323454Y5809497D01*
X12324300Y5808088D01*
X12325287Y5806819D01*
X12325569Y5806537D01*
X12326274Y5805832D01*
X12327402Y5804845D01*
X12329093Y5803718D01*
X12331067Y5802449D01*
X12333463Y5801462D01*
X12336142Y5800757D01*
X12337551Y5800616D01*
X12339102Y5800475D01*
X12339948D01*
X12340512Y5800616D01*
X12342062Y5800757D01*
X12344036Y5801321D01*
X12346151Y5802026D01*
X12348547Y5803154D01*
X12350803Y5804704D01*
X12351930Y5805691D01*
X12353058Y5806819D01*
Y5806960D01*
X12353340Y5807101D01*
X12353622Y5807524D01*
X12353904Y5808088D01*
X12354327Y5808652D01*
X12354891Y5809497D01*
X12355314Y5810484D01*
X12355877Y5811753D01*
X12356441Y5813022D01*
X12356864Y5814431D01*
X12357428Y5816123D01*
X12357851Y5817956D01*
X12358133Y5819788D01*
X12358415Y5821903D01*
X12358697Y5824299D01*
Y5826696D01*
Y5826837D01*
Y5827260D01*
Y5827964D01*
X12358556Y5828810D01*
Y5829938D01*
X12358415Y5831207D01*
X12357992Y5834026D01*
X12357287Y5837268D01*
X12356300Y5840511D01*
X12354891Y5843753D01*
X12353904Y5845163D01*
X12352917Y5846432D01*
Y5846573D01*
X12352635Y5846713D01*
X12351930Y5847418D01*
X12350662Y5848546D01*
X12348970Y5849815D01*
X12346996Y5850943D01*
X12344600Y5852070D01*
X12341921Y5852775D01*
X12340512Y5853057D01*
D02*
G37*
G36*
X12371807Y5730921D02*
X12343895D01*
Y5696101D01*
X12370115D01*
X12371102Y5696242D01*
X12372089D01*
X12373217Y5696383D01*
X12375895Y5696665D01*
X12378856Y5697229D01*
X12381816Y5698075D01*
X12384494Y5699202D01*
X12385763Y5699907D01*
X12386750Y5700753D01*
X12387032Y5701035D01*
X12387596Y5701599D01*
X12388442Y5702727D01*
X12389428Y5704136D01*
X12390415Y5705969D01*
X12391261Y5708225D01*
X12391825Y5710762D01*
X12392107Y5713722D01*
Y5713863D01*
Y5714004D01*
Y5714709D01*
X12391966Y5715978D01*
X12391684Y5717388D01*
X12391402Y5718938D01*
X12390838Y5720771D01*
X12389992Y5722463D01*
X12389005Y5724154D01*
X12388864Y5724295D01*
X12388442Y5724859D01*
X12387737Y5725564D01*
X12386891Y5726551D01*
X12385622Y5727537D01*
X12384212Y5728383D01*
X12382662Y5729229D01*
X12380829Y5729934D01*
X12380688D01*
X12380124Y5730075D01*
X12379279Y5730216D01*
X12378151Y5730498D01*
X12376459Y5730639D01*
X12374345Y5730780D01*
X12371807Y5730921D01*
D02*
G37*
G36*
X12280881D02*
X12252969D01*
Y5696101D01*
X12279190D01*
X12280177Y5696242D01*
X12281163D01*
X12282291Y5696383D01*
X12284970Y5696665D01*
X12287930Y5697229D01*
X12290890Y5698075D01*
X12293569Y5699202D01*
X12294837Y5699907D01*
X12295824Y5700753D01*
X12296106Y5701035D01*
X12296670Y5701599D01*
X12297516Y5702727D01*
X12298503Y5704136D01*
X12299489Y5705969D01*
X12300335Y5708225D01*
X12300899Y5710762D01*
X12301181Y5713722D01*
Y5713863D01*
Y5714004D01*
Y5714709D01*
X12301040Y5715978D01*
X12300758Y5717388D01*
X12300476Y5718938D01*
X12299912Y5720771D01*
X12299067Y5722463D01*
X12298080Y5724154D01*
X12297939Y5724295D01*
X12297516Y5724859D01*
X12296811Y5725564D01*
X12295965Y5726551D01*
X12294697Y5727537D01*
X12293287Y5728383D01*
X12291736Y5729229D01*
X12289904Y5729934D01*
X12289763D01*
X12289199Y5730075D01*
X12288353Y5730216D01*
X12287225Y5730498D01*
X12285533Y5730639D01*
X12283419Y5730780D01*
X12280881Y5730921D01*
D02*
G37*
G36*
X12926947Y5707379D02*
X12926102D01*
X12925537Y5707238D01*
X12923987Y5707097D01*
X12922154Y5706674D01*
X12919897Y5705969D01*
X12917502Y5704982D01*
X12915247Y5703573D01*
X12912991Y5701740D01*
X12912709Y5701458D01*
X12912144Y5700753D01*
X12911159Y5699484D01*
X12910172Y5697793D01*
X12909044Y5695819D01*
X12908057Y5693282D01*
X12907211Y5690321D01*
X12906789Y5687079D01*
X12946400D01*
Y5687220D01*
Y5687502D01*
X12946260Y5687925D01*
Y5688489D01*
X12945978Y5690180D01*
X12945555Y5692013D01*
X12944850Y5694269D01*
X12944145Y5696383D01*
X12943018Y5698498D01*
X12941750Y5700330D01*
Y5700471D01*
X12941467Y5700612D01*
X12940762Y5701458D01*
X12939493Y5702586D01*
X12937802Y5703854D01*
X12935687Y5705123D01*
X12933150Y5706251D01*
X12930190Y5707097D01*
X12928639Y5707238D01*
X12926947Y5707379D01*
D02*
G37*
G36*
X12417622Y5614000D02*
X12416777D01*
X12416213Y5613859D01*
X12414662Y5613718D01*
X12412829Y5613295D01*
X12410574Y5612591D01*
X12408177Y5611604D01*
X12405922Y5610194D01*
X12403666Y5608361D01*
X12403384Y5608079D01*
X12402821Y5607375D01*
X12401834Y5606106D01*
X12400847Y5604414D01*
X12399719Y5602441D01*
X12398732Y5599903D01*
X12397887Y5596943D01*
X12397464Y5593701D01*
X12437076D01*
Y5593841D01*
Y5594123D01*
X12436935Y5594546D01*
Y5595110D01*
X12436653Y5596802D01*
X12436230Y5598634D01*
X12435526Y5600890D01*
X12434821Y5603005D01*
X12433693Y5605119D01*
X12432424Y5606952D01*
Y5607093D01*
X12432142Y5607234D01*
X12431437Y5608079D01*
X12430169Y5609207D01*
X12428477Y5610476D01*
X12426362Y5611745D01*
X12423825Y5612872D01*
X12420865Y5613718D01*
X12419314Y5613859D01*
X12417622Y5614000D01*
D02*
G37*
G36*
X12273128D02*
X12272282D01*
X12271577Y5613859D01*
X12270027Y5613718D01*
X12267912Y5613154D01*
X12265516Y5612309D01*
X12262978Y5611181D01*
X12260582Y5609489D01*
X12259313Y5608361D01*
X12258185Y5607234D01*
Y5607093D01*
X12257903Y5606952D01*
X12257621Y5606529D01*
X12257198Y5605965D01*
X12256776Y5605260D01*
X12256353Y5604414D01*
X12255789Y5603286D01*
X12255225Y5602159D01*
X12254661Y5600749D01*
X12254097Y5599339D01*
X12253674Y5597648D01*
X12253251Y5595815D01*
X12252828Y5593841D01*
X12252546Y5591727D01*
X12252406Y5589330D01*
X12252265Y5586934D01*
Y5586793D01*
Y5586370D01*
Y5585665D01*
X12252406Y5584678D01*
Y5583551D01*
X12252546Y5582282D01*
X12252969Y5579322D01*
X12253674Y5575938D01*
X12254802Y5572555D01*
X12256212Y5569313D01*
X12257198Y5567903D01*
X12258185Y5566493D01*
X12258326D01*
X12258467Y5566211D01*
X12259313Y5565507D01*
X12260582Y5564379D01*
X12262273Y5563251D01*
X12264388Y5561982D01*
X12266925Y5560855D01*
X12269886Y5560150D01*
X12271436Y5560009D01*
X12273128Y5559868D01*
X12273974D01*
X12274679Y5560009D01*
X12276229Y5560291D01*
X12278344Y5560714D01*
X12280600Y5561559D01*
X12283137Y5562687D01*
X12285533Y5564379D01*
X12286802Y5565507D01*
X12287930Y5566634D01*
X12288071Y5566775D01*
X12288212Y5566916D01*
X12288494Y5567339D01*
X12288917Y5567903D01*
X12289340Y5568608D01*
X12289904Y5569454D01*
X12290467Y5570581D01*
X12291031Y5571709D01*
X12291595Y5573119D01*
X12292018Y5574670D01*
X12292582Y5576361D01*
X12293005Y5578194D01*
X12293428Y5580308D01*
X12293710Y5582423D01*
X12293992Y5584819D01*
Y5587357D01*
Y5587498D01*
Y5587921D01*
Y5588626D01*
X12293851Y5589471D01*
Y5590599D01*
X12293710Y5591868D01*
X12293287Y5594828D01*
X12292582Y5597930D01*
X12291454Y5601313D01*
X12289904Y5604414D01*
X12289058Y5605965D01*
X12287930Y5607234D01*
Y5607375D01*
X12287648Y5607516D01*
X12286802Y5608361D01*
X12285533Y5609348D01*
X12283842Y5610617D01*
X12281727Y5611886D01*
X12279190Y5613013D01*
X12276370Y5613718D01*
X12274820Y5613859D01*
X12273128Y5614000D01*
D02*
G37*
%LPD*%
D10*
X8937500Y7597500D02*
G03*
X9010000Y7670000I0J72500D01*
G01*
X8500000Y7720000D02*
G03*
X8622500Y7597500I122500J0D01*
G01*
X9130000Y7790000D02*
G03*
X9010000Y7670000I0J-120000D01*
G01*
X9297000Y6273500D02*
G03*
X9302994Y6287970I-14471J14471D01*
G01*
X14316800Y9013200D02*
G03*
X14260001Y9070000I-56799J0D01*
G01*
X9170000D02*
G03*
X9297000Y9197000I0J127000D01*
G01*
X7444000Y9070000D02*
G03*
X7190000Y8816000I0J-254000D01*
G01*
X7879903Y6031300D02*
G03*
X7889822Y6031494I0J254000D01*
G01*
X7807300Y5777300D02*
G03*
X7880000Y5850000I0J72700D01*
G01*
X7190000Y5981300D02*
G03*
X7394000Y5777300I204000J0D01*
G01*
X14627499Y8437500D02*
G03*
X14570000Y8380000I0J-57500D01*
G01*
X14586000Y7095000D02*
G03*
X14839999Y7349000I0J254000D01*
G01*
X7747300Y7960000D02*
G03*
X7493300Y7706000I0J-254000D01*
G01*
X9731300Y7469999D02*
G03*
X9876152Y7410000I144852J144852D01*
G01*
X11670000Y7800113D02*
G03*
X11232578Y7408602I0J-440113D01*
G01*
X8468384Y8825300D02*
G03*
X8549595Y8840940I-1J218669D01*
G01*
D02*
G03*
X8623006Y8889346I-81212J203029D01*
G01*
X8768995Y8940000D02*
G03*
X8627153Y8893358I0J-238994D01*
G01*
X8400000Y6154000D02*
G03*
X8774000Y5780000I374000J0D01*
G01*
X10059000Y5646000D02*
G03*
X9925000Y5780000I-134000J0D01*
G01*
X8400000Y6670185D02*
G03*
X8387779Y6722273I-117113J0D01*
G01*
D02*
G03*
X8365698Y6752997I-104892J-52088D01*
G01*
X8350000Y6816568D02*
G03*
X8365698Y6752997I136568J0D01*
G01*
X8350000Y7370000D02*
G03*
X8255646Y7464354I-94354J0D01*
G01*
X8486750Y7377860D02*
G03*
X8273255Y7591354I-213494J0D01*
G01*
X8486750Y7296927D02*
G03*
X8701746Y7081931I214997J0D01*
G01*
X7889822Y6031494D02*
G03*
X8133903Y6285300I-9920J253806D01*
G01*
X13967435Y8880000D02*
G03*
X13970000Y8882565I0J2565D01*
G01*
X8281000Y8209000D02*
G03*
X8400000Y8090000I119000J0D01*
G01*
X9550500Y6930000D02*
G03*
X9398569Y7081931I-151931J0D01*
G01*
X11670000Y8820000D02*
G03*
X11550000Y8940000I-120000J0D01*
G01*
X11670000Y6910000D02*
G03*
X11982940Y7036629I0J450000D01*
G01*
X11416000Y5640000D02*
G03*
X11670000Y5894000I0J254000D01*
G01*
X9731299Y7990000D02*
G03*
X9631300Y8090000I-100000J0D01*
G01*
X13850000Y7330000D02*
G03*
X13980000Y7460000I0J130000D01*
G01*
X14481538Y8561539D02*
G03*
X14570799Y8650800I0J89261D01*
G01*
X8955070Y7464354D02*
G03*
X8968700Y7470000I0J19276D01*
G01*
X8500000Y7720000D02*
Y7960000D01*
X8880000Y7597500D02*
X8937500D01*
X8622500D02*
X8880000D01*
X9130000Y7790000D02*
X9228461D01*
X7747300Y7960000D02*
X8500000D01*
X9387902Y7790000D02*
X9731299D01*
Y7990000D01*
Y7470001D02*
Y7790000D01*
X8774000Y5780000D02*
X9925000D01*
X10059000Y5486500D02*
Y5646000D01*
X8281000Y8209000D02*
Y8410000D01*
X14316800Y8809799D02*
Y9013200D01*
X7444000Y9070000D02*
X9170000D01*
X7493300Y6031300D02*
X7879903D01*
X7493300Y5777300D02*
X7807300D01*
X7190000Y5981300D02*
Y8816000D01*
X7394000Y5777300D02*
X7493300D01*
X14627499Y8437500D02*
X14839999D01*
X14570000Y8244800D02*
Y8380000D01*
X14210001Y7095000D02*
X14586000D01*
X14210001Y7705000D02*
Y7890000D01*
Y7100000D02*
Y7705000D01*
X7493300Y6431000D02*
X7880000D01*
X7493300Y6539300D02*
Y7706000D01*
Y6431000D02*
Y6539300D01*
Y6285300D02*
Y6431000D01*
Y5777300D02*
Y6031300D01*
X8133903Y6285300D02*
Y7320000D01*
X9876152Y7410000D02*
X11232578D01*
X11670000Y7800113D02*
Y8820000D01*
Y7604000D02*
Y7800113D01*
X8768995Y8940000D02*
X11550000D01*
X7493300Y8825300D02*
X8468384D01*
X9731299Y7470001D02*
X9731300Y7470000D01*
Y7469999D02*
Y7470000D01*
X8350000Y6816568D02*
Y7370000D01*
X8400000Y6154000D02*
Y6670185D01*
X8133903Y7464354D02*
X8255646D01*
X8701746Y7081931D02*
X9398569D01*
X8486750Y7296927D02*
Y7377860D01*
X8133903Y7591354D02*
X8273255D01*
X11310000Y5640000D02*
X11416000D01*
X13780000Y8880000D02*
X13967435D01*
X11670000Y5894000D02*
Y6910000D01*
X11849605Y7170395D02*
X11975985Y7043815D01*
X14443150Y8810449D02*
Y9059350D01*
X8400000Y8090000D02*
X9631300D01*
X14839999Y7349000D02*
Y8437500D01*
X14570000Y8244800D02*
X14570799D01*
X11944000Y7330000D02*
X13850000D01*
X13970000Y8017500D02*
X13972189D01*
X11924000Y7350000D02*
X11944000Y7330000D01*
X14439999Y7705000D02*
X14439999Y7705000D01*
X13980000Y7460000D02*
Y7705000D01*
X14439999Y7705000D02*
Y7917435D01*
Y8042565D02*
X14441901Y8044464D01*
X13975000Y7710000D02*
X13980000Y7705000D01*
X13972189Y8017500D02*
X13975000Y8014690D01*
X14441901Y8044464D02*
Y8242900D01*
X13970000Y8202499D02*
Y8398460D01*
Y8561539D02*
Y8757435D01*
X14442500Y9060000D02*
X14443150Y9059350D01*
Y8810449D02*
X14443800Y8809799D01*
X13970000Y8561539D02*
X14481538D01*
X14441901Y8242900D02*
X14443800Y8244800D01*
X14570799Y8650800D02*
Y8809799D01*
X8698903Y7464354D02*
X8955070D01*
D11*
X13850000Y6200000D02*
G03*
X13250000Y6200000I-300000J0D01*
G01*
X13950000Y6190000D02*
G03*
X13150000Y6190000I-400000J0D01*
G01*
X13750000Y6200000D02*
G03*
X13350000Y6200000I-200000J0D01*
G01*
X12950000Y6190000D02*
G03*
X14250000Y6190000I650000J0D01*
G01*
X14150000D02*
G03*
X12950000Y6190000I-600000J0D01*
G01*
X13150000D02*
G03*
X14050000Y6190000I450000J0D01*
G01*
X13250000D02*
G03*
X13950000Y6190000I350000J0D01*
G01*
X13350000Y6200000D02*
G03*
X13850000Y6200000I250000J0D01*
G01*
X14050000Y6190000D02*
G03*
X13050000Y6190000I-500000J0D01*
G01*
X13450000Y6200000D02*
G03*
X13750000Y6200000I150000J0D01*
G01*
X13650349Y6201102D02*
G03*
X13450349Y6201102I-100000J0D01*
G01*
X13050000Y6190000D02*
G03*
X14150000Y6190000I550000J0D01*
G01*
X13550349Y6201102D02*
G03*
X13650349Y6201102I50000J0D01*
G01*
D12*
X13593257Y7393257D02*
G03*
X13810001Y7610000I0J216743D01*
G01*
X13970000Y8017500D02*
G03*
X13810001Y7857500I0J-160000D01*
G01*
X11967257Y7393257D02*
X13593257D01*
X11924000Y7350000D02*
X11967257Y7393257D01*
X13810001Y7610000D02*
Y7857500D01*
D13*
X14257500Y9060000D02*
D03*
X14442500D02*
D03*
D14*
X14839999Y8622500D02*
D03*
Y8437500D02*
D03*
X13970000Y8202499D02*
D03*
Y8017500D02*
D03*
X8880000Y7782500D02*
D03*
Y7597500D02*
D03*
D15*
X14210001Y7095000D02*
D03*
D16*
X13980000Y7705000D02*
D03*
X14210001Y7705000D02*
D03*
X14439999Y7705000D02*
D03*
D17*
X14316800Y8244800D02*
D03*
X14443800D02*
D03*
X14570799D02*
D03*
X14697800D02*
D03*
X14316800Y8809799D02*
D03*
X14443800D02*
D03*
X14570799D02*
D03*
X14697800D02*
D03*
D18*
X13970000Y8757435D02*
D03*
Y8882565D02*
D03*
X14439999Y8042565D02*
D03*
Y7917435D02*
D03*
D19*
X13970000Y8561539D02*
D03*
Y8398460D02*
D03*
D20*
X7880000Y5829000D02*
D03*
Y6431000D02*
D03*
D21*
X9391539Y7790000D02*
D03*
X9228461D02*
D03*
D22*
X8133903Y7718354D02*
D03*
Y7591354D02*
D03*
Y7464354D02*
D03*
Y7337354D02*
D03*
X8698903Y7718354D02*
D03*
Y7591354D02*
D03*
Y7464354D02*
D03*
Y7337354D02*
D03*
D23*
X8281000Y5486500D02*
D03*
Y8410000D02*
D03*
D24*
X8535000Y5486500D02*
D03*
X8789000D02*
D03*
X9043000D02*
D03*
X9297000D02*
D03*
X9551000D02*
D03*
X9805000D02*
D03*
X10059000D02*
D03*
Y6273500D02*
D03*
X9805000D02*
D03*
X9551000D02*
D03*
X9297000D02*
D03*
X9043000D02*
D03*
X8789000D02*
D03*
X8535000D02*
D03*
X8281000D02*
D03*
X8535000Y8410000D02*
D03*
X8789000D02*
D03*
X9043000D02*
D03*
X9297000D02*
D03*
X9551000D02*
D03*
X9805000D02*
D03*
X10059000D02*
D03*
Y9197000D02*
D03*
X9805000D02*
D03*
X9551000D02*
D03*
X9297000D02*
D03*
X9043000D02*
D03*
X8789000D02*
D03*
X8535000D02*
D03*
X8281000D02*
D03*
X9731300Y7230000D02*
D03*
X8968700Y7470000D02*
D03*
D25*
X11849605Y7170395D02*
D03*
X11490395D02*
D03*
X11849605Y7529605D02*
D03*
X11490395D02*
D03*
X11416000Y7350000D02*
D03*
X11670000Y7096000D02*
D03*
Y7604000D02*
D03*
X9169500Y6930000D02*
D03*
D26*
X11924000Y7350000D02*
D03*
X9550500Y6930000D02*
D03*
D27*
X7493300Y5777300D02*
D03*
Y6031300D02*
D03*
Y6285300D02*
D03*
Y8571300D02*
D03*
Y8317300D02*
D03*
Y8063300D02*
D03*
X14535451Y6285300D02*
D03*
Y6031300D02*
D03*
Y5777300D02*
D03*
D28*
X7493300Y6539300D02*
D03*
Y8825300D02*
D03*
X14535451Y6539300D02*
D03*
D29*
X8968700Y7230000D02*
D03*
X9731300Y7470000D02*
D03*
D30*
X14210001Y7890000D02*
D03*
X11310000Y5640000D02*
D03*
X9550000Y8820000D02*
D03*
X14260001Y9070000D02*
D03*
X14839999Y8620000D02*
D03*
X13780000Y8880000D02*
D03*
X8880000Y7780000D02*
D03*
X14439999Y8960000D02*
D03*
%TF.MD5,5b01f23790a36dc3009d47c2f55fab40*%
M02*
