M48
;Layer_Color=9474304
;FILE_FORMAT=4:4
METRIC,LZ
;TYPE=PLATED
T1F00S00C0.3000
T2F00S00C0.7000
T3F00S00C0.7620
T4F00S00C0.8000
T5F00S00C0.9000
%
T01
X0072301Y00742
X00711Y0075525
X00757152Y0073864
X0079152Y00762306
X0007577Y0067227
X0012432Y0059202
X00112Y00576
X00143Y00574
T02
X005501Y005533
X005755
X006009
X006263
X006517
X006771
X007025
X007279
Y00632
X007025
X006771
X006517
X006263
X006009
X005755
X005501
X0064874Y00785
X00725
X0025613Y00722
X0017987
X005501Y0084565
X005755
X006009
X006263
X006517
X006771
X007025
X007279
Y0092435
X007025
X006771
X006517
X006263
X006009
X005755
X005501
T03
X00135Y007635
T04
X00430039Y0072104
X00448Y007136
X00465961Y0072104
X004734Y00739
X00465961Y00756961
X00448Y007644
X00430039Y00756961
X004226Y00739
X0063195Y00757
X0067005
X00743Y0069605
Y0065795
X0064905Y0081
X0061095
X00526Y0086195
Y0090005
T05
X0080667Y0059047
Y0061587
Y0064127
Y0066667
X00102455Y0081907
Y0084447
Y0086987
Y0089527
X0080667
Y0086987
Y0084447
Y0081907
M30
