%TF.GenerationSoftware,Altium Limited,Altium Designer,23.3.1 (30)*%
G04 Layer_Color=0*
%FSLAX45Y45*%
%MOMM*%
%TF.SameCoordinates,5C971558-4B59-40B4-890D-9BFF8048EDD7*%
%TF.FilePolarity,Positive*%
%TF.FileFunction,Profile,NP*%
%TF.Part,Single*%
G01*
G75*
%TA.AperFunction,Profile*%
%ADD46C,0.02540*%
G36*
X11752202Y5905653D02*
X11752323Y6815751D01*
X11751790Y6819331D01*
X11777515Y6823796D01*
X11828167Y6836428D01*
X11877362Y6853893D01*
X11924641Y6876025D01*
X11969562Y6902620D01*
X12011705Y6933428D01*
X12050676Y6968161D01*
X12086112Y7006496D01*
X12117680Y7048072D01*
X12145087Y7092502D01*
X12168075Y7139372D01*
X12186430Y7188242D01*
X12193814Y7213285D01*
X12193815Y7213285D01*
X13115532Y7213285D01*
X13110558Y7162071D01*
X13093375Y7060605D01*
X13069041Y6960612D01*
X13037683Y6862596D01*
X12999455Y6767049D01*
X12954552Y6674452D01*
X12903195Y6585271D01*
X12845648Y6499954D01*
X12782197Y6418932D01*
X12713164Y6342610D01*
X12638893Y6271375D01*
X12559761Y6205582D01*
X12476163Y6145565D01*
X12388522Y6091624D01*
X12297277Y6044031D01*
X12202889Y6003026D01*
X12105831Y5968815D01*
X12006593Y5941569D01*
X11905673Y5921426D01*
X11803578Y5908488D01*
X11752201Y5905653D01*
X11752202D01*
D02*
G37*
G36*
X10216076Y7189658D02*
X10215908Y7192338D01*
X10217657Y7197417D01*
X10221222Y7201436D01*
X10226056Y7203778D01*
X10228737Y7203931D01*
X10228738Y7203931D01*
X11153879Y7203931D01*
X11155922D01*
X11159803Y7202653D01*
X11163090Y7200226D01*
X11165453Y7196892D01*
X11166054Y7194939D01*
X11177906Y7160663D01*
X11208526Y7094956D01*
X11247870Y7034070D01*
X11295194Y6979156D01*
X11349602Y6931252D01*
X11410067Y6891263D01*
X11475445Y6859946D01*
X11544500Y6837892D01*
X11580001Y6830476D01*
Y6830475D01*
X11582232Y6830104D01*
X11586165Y6827870D01*
X11589089Y6824419D01*
X11590646Y6820172D01*
X11590645Y6817911D01*
X11590646Y6817911D01*
Y5910731D01*
X11592289Y5902823D01*
X11592289Y5900186D01*
X11590195Y5895345D01*
X11586351Y5891734D01*
X11581389Y5889946D01*
X11578757Y5890110D01*
X11527693Y5893302D01*
X11426261Y5906805D01*
X11326021Y5927362D01*
X11227462Y5954872D01*
X11131066Y5989202D01*
X11037304Y6030183D01*
X10946635Y6077615D01*
X10859501Y6131266D01*
X10776329Y6190874D01*
X10697525Y6256147D01*
X10623474Y6326767D01*
X10554538Y6402389D01*
X10491055Y6482642D01*
X10433334Y6567134D01*
X10381657Y6655454D01*
X10336278Y6747167D01*
X10297418Y6841828D01*
X10265266Y6938972D01*
X10239981Y7038125D01*
X10221685Y7138803D01*
X10216076Y7189658D01*
D01*
D02*
G37*
G36*
X12203314Y7451677D02*
X12198126Y7476457D01*
X12184298Y7525152D01*
X12165971Y7572338D01*
X12143306Y7617600D01*
X12116502Y7660541D01*
X12085795Y7700784D01*
X12051455Y7737975D01*
X12013783Y7771786D01*
X11973111Y7801922D01*
X11929796Y7828117D01*
X11884218Y7850140D01*
X11836777Y7867799D01*
X11812489Y7874942D01*
X11812489Y7874942D01*
X11813747Y7879623D01*
X11813747Y8796538D01*
X11864457Y8791568D01*
X11964930Y8774534D01*
X12063959Y8750490D01*
X12161056Y8719554D01*
X12255743Y8681878D01*
X12347551Y8637649D01*
X12436028Y8587085D01*
X12520737Y8530435D01*
X12601261Y8467978D01*
X12677202Y8400023D01*
X12748187Y8326906D01*
X12813863Y8248986D01*
X12873907Y8166648D01*
X12928026Y8080298D01*
X12975948Y7990363D01*
X13017439Y7897286D01*
X13052296Y7801526D01*
X13080344Y7703555D01*
X13101447Y7603858D01*
X13115498Y7502925D01*
X13118964Y7452089D01*
X13118964Y7452089D01*
X12203314Y7451677D01*
D02*
G37*
G36*
X11752202Y5905653D02*
X11803547Y5908486D01*
X11905579Y5921412D01*
X12006439Y5941534D01*
X12105620Y5968750D01*
X12202624Y6002923D01*
X12296963Y6043883D01*
X12388164Y6091422D01*
X12475768Y6145303D01*
X12559335Y6205255D01*
X12638445Y6270976D01*
X12712700Y6342135D01*
X12781728Y6418376D01*
X12845181Y6499316D01*
X12902744Y6584547D01*
X12954121Y6673642D01*
X12999059Y6766153D01*
X13037329Y6861614D01*
X13068742Y6959547D01*
X13093138Y7059460D01*
X13110394Y7160849D01*
X13115410Y7212027D01*
Y7212027D01*
X12198495D01*
X12193815Y7213285D01*
X12186430Y7188242D01*
X12168075Y7139372D01*
X12145087Y7092503D01*
X12117681Y7048072D01*
X12086112Y7006496D01*
X12050677Y6968161D01*
X12011705Y6933428D01*
X11969562Y6902620D01*
X11924641Y6876025D01*
X11877362Y6853893D01*
X11828167Y6836428D01*
X11777515Y6823796D01*
X11751791Y6819331D01*
Y6819331D01*
X11752323Y6815751D01*
X11752202Y5905653D01*
D02*
G37*
G36*
X10225974Y7498260D02*
X10230989Y7549439D01*
X10248246Y7650828D01*
X10272642Y7750740D01*
X10304055Y7848673D01*
X10342326Y7944134D01*
X10387263Y8036645D01*
X10438642Y8125740D01*
X10496202Y8210971D01*
X10559656Y8291911D01*
X10628684Y8368152D01*
X10702939Y8439312D01*
X10782049Y8505033D01*
X10865616Y8564984D01*
X10953220Y8618865D01*
X11044421Y8666405D01*
X11138760Y8707364D01*
X11235764Y8741538D01*
X11334945Y8768754D01*
X11435805Y8788875D01*
X11537837Y8801802D01*
X11589183Y8804634D01*
D01*
X11589061Y8806836D01*
Y7894536D01*
X11589594Y7890957D01*
X11563869Y7886491D01*
X11513217Y7873859D01*
X11464022Y7856395D01*
X11416743Y7834262D01*
X11371822Y7807667D01*
X11329679Y7776859D01*
X11290707Y7742126D01*
X11255272Y7703792D01*
X11223703Y7662215D01*
X11196297Y7617785D01*
X11173309Y7570915D01*
X11154954Y7522045D01*
X11147569Y7497002D01*
X11147570D01*
X11142890Y7498260D01*
X10225974D01*
D02*
G37*
D46*
X7070000Y5337262D02*
G02*
X7058400Y5355262I0J12738D01*
G01*
X7058399Y9348860D01*
D02*
G02*
X7071137Y9361598I12738J0D01*
G01*
X15078812D01*
D02*
G02*
X15091550Y9348860I0J-12738D01*
G01*
Y5350000D01*
D02*
G02*
X15078812Y5337262I-12738J0D01*
G01*
X7070000D01*
%TF.MD5,6a4a959653c7d693f680c70047d7439f*%
M02*
