M48
;Layer_Color=9474304
;FILE_FORMAT=4:4
METRIC,LZ
;TYPE=PLATED
T1F00S00C0.3000
T2F00S00C0.7000
T3F00S00C0.8000
T4F00S00C0.9000
%
T01
X01421Y00789
X01131Y00564
X00888Y00778
X00955Y00882
X01378Y00888
X01426Y00907
X01444Y00896
X01484Y00862
T02
X008281Y0054865
X008535
X008789
X009043
X009297
X009551
X009805
X010059
Y0062735
X009805
X009551
X009297
X009043
X008789
X008535
X008281
X0089687Y00723
Y00747
X0097313
Y00723
X009805Y00841
X009551
X009297
X009043
X008789
X008535
X008281
Y009197
X008535
X008789
X009043
X009297
X009551
X009805
X010059
Y00841
T03
X011924Y00735
X0118496Y00717039
X01167Y007096
X0114904Y00717039
X011416Y00735
X0114904Y00752961
X01167Y007604
X0118496Y00752961
X0095505Y00693
X0091695
T04
X01453545Y0057773
Y0060313
Y0062853
Y0065393
X0074933
Y0062853
Y0060313
Y0057773
Y0080633
Y0083173
Y0085713
Y0088253
M30
