%TF.GenerationSoftware,Altium Limited,Altium Designer,20.2.5 (213)*%
G04 Layer_Color=8421504*
%FSLAX45Y45*%
%MOMM*%
%TF.SameCoordinates,5D993310-1A5F-4332-B3F0-AAC5B6D9B5DA*%
%TF.FilePolarity,Positive*%
%TF.FileFunction,Paste,Top*%
%TF.Part,Single*%
G01*
G75*
%TA.AperFunction,SMDPad,CuDef*%
%ADD11R,0.75620X1.10620*%
%ADD12R,1.13504X1.06213*%
%ADD13R,0.95000X1.90000*%
%ADD14R,3.25000X1.90000*%
G04:AMPARAMS|DCode=15|XSize=0.65mm|YSize=1.65mm|CornerRadius=0.04875mm|HoleSize=0mm|Usage=FLASHONLY|Rotation=180.000|XOffset=0mm|YOffset=0mm|HoleType=Round|Shape=RoundedRectangle|*
%AMROUNDEDRECTD15*
21,1,0.65000,1.55250,0,0,180.0*
21,1,0.55250,1.65000,0,0,180.0*
1,1,0.09750,-0.27625,0.77625*
1,1,0.09750,0.27625,0.77625*
1,1,0.09750,0.27625,-0.77625*
1,1,0.09750,-0.27625,-0.77625*
%
%ADD15ROUNDEDRECTD15*%
%ADD16R,2.33000X1.99000*%
%ADD17R,1.10620X0.75620*%
%ADD18R,1.06213X1.13504*%
G04:AMPARAMS|DCode=19|XSize=0.65mm|YSize=1.65mm|CornerRadius=0.04875mm|HoleSize=0mm|Usage=FLASHONLY|Rotation=270.000|XOffset=0mm|YOffset=0mm|HoleType=Round|Shape=RoundedRectangle|*
%AMROUNDEDRECTD19*
21,1,0.65000,1.55250,0,0,270.0*
21,1,0.55250,1.65000,0,0,270.0*
1,1,0.09750,-0.77625,-0.27625*
1,1,0.09750,-0.77625,0.27625*
1,1,0.09750,0.77625,0.27625*
1,1,0.09750,0.77625,-0.27625*
%
%ADD19ROUNDEDRECTD19*%
%ADD20R,0.85490X0.90620*%
%ADD21R,0.90620X0.85490*%
D11*
X8302500Y7570000D02*
D03*
X8117500D02*
D03*
X1117500Y5740000D02*
D03*
X1302500D02*
D03*
X7615200Y7842700D02*
D03*
X7430200D02*
D03*
X757701Y6722700D02*
D03*
X942700D02*
D03*
D12*
X6661539Y7270000D02*
D03*
X6498461D02*
D03*
D13*
X1120000Y7025000D02*
D03*
X1350000Y7025000D02*
D03*
X1580000Y7025000D02*
D03*
D14*
X1350000Y7635000D02*
D03*
D15*
X862200Y5920200D02*
D03*
X989200D02*
D03*
X1116200D02*
D03*
X1243200D02*
D03*
X862200Y6485200D02*
D03*
X989200D02*
D03*
X1116200D02*
D03*
X1243200D02*
D03*
D16*
X7680000Y8278000D02*
D03*
Y8880000D02*
D03*
D17*
X7110000Y7367500D02*
D03*
Y7552500D02*
D03*
X1590000Y6712500D02*
D03*
Y6527500D02*
D03*
D18*
Y6331540D02*
D03*
Y6168461D02*
D03*
D19*
X7350200Y7623058D02*
D03*
Y7496058D02*
D03*
Y7369058D02*
D03*
Y7242058D02*
D03*
X7915200Y7623058D02*
D03*
Y7496058D02*
D03*
Y7369058D02*
D03*
Y7242058D02*
D03*
D20*
X1712565Y6010000D02*
D03*
X1587435D02*
D03*
D21*
X1120000Y6812565D02*
D03*
Y6687435D02*
D03*
%TF.MD5,5a7b3cd36e49fe1c0e12552514675071*%
M02*
