%TF.GenerationSoftware,Altium Limited,Altium Designer,20.2.5 (213)*%
G04 Layer_Physical_Order=4*
G04 Layer_Color=16711680*
%FSLAX45Y45*%
%MOMM*%
%TF.SameCoordinates,5D993310-1A5F-4332-B3F0-AAC5B6D9B5DA*%
%TF.FilePolarity,Positive*%
%TF.FileFunction,Copper,L4,Bot,Signal*%
%TF.Part,Single*%
G01*
G75*
%TA.AperFunction,Conductor*%
%ADD10C,0.70000*%
%TA.AperFunction,SMDPad,CuDef*%
%ADD20R,0.85490X0.90620*%
%TA.AperFunction,ComponentPad*%
%ADD22R,1.50000X1.50000*%
%ADD23C,1.50000*%
%ADD24R,1.30000X1.30000*%
%ADD25C,1.30000*%
%ADD26R,1.30000X1.30000*%
%ADD27R,1.20000X1.20000*%
%ADD28C,1.20000*%
%TA.AperFunction,ViaPad*%
%ADD29C,1.52400*%
%TA.AperFunction,ComponentPad*%
%ADD30R,1.20000X1.20000*%
%TA.AperFunction,ViaPad*%
%ADD31C,0.50000*%
G36*
X8490000Y5380000D02*
X6690000Y5380000D01*
Y5469858D01*
X6702700Y5474169D01*
X6706811Y5468811D01*
X6725612Y5454385D01*
X6747505Y5445317D01*
X6771000Y5442224D01*
X6794495Y5445317D01*
X6816388Y5454385D01*
X6835189Y5468811D01*
X6849614Y5487612D01*
X6858683Y5509505D01*
X6861776Y5533000D01*
X6858683Y5556495D01*
X6849614Y5578388D01*
X6835189Y5597188D01*
X6816388Y5611614D01*
X6794495Y5620683D01*
X6771000Y5623776D01*
X6747505Y5620683D01*
X6725612Y5611614D01*
X6706811Y5597188D01*
X6702700Y5591830D01*
X6690000Y5596141D01*
Y5839139D01*
X7961700D01*
Y5799700D01*
X8171700D01*
Y6009700D01*
X7961700D01*
Y5970261D01*
X6690000D01*
Y6256858D01*
X6702700Y6261170D01*
X6706811Y6255811D01*
X6725612Y6241386D01*
X6747505Y6232317D01*
X6771000Y6229224D01*
X6794495Y6232317D01*
X6816388Y6241386D01*
X6835189Y6255811D01*
X6849614Y6274612D01*
X6858683Y6296505D01*
X6861776Y6320000D01*
X6858683Y6343495D01*
X6849614Y6365388D01*
X6835189Y6384189D01*
X6816388Y6398615D01*
X6794495Y6407683D01*
X6771000Y6410776D01*
X6747505Y6407683D01*
X6725612Y6398615D01*
X6706811Y6384189D01*
X6702700Y6378831D01*
X6690000Y6383142D01*
Y7475000D01*
X6795500D01*
Y7665000D01*
X6690000D01*
Y8393358D01*
X6702700Y8397670D01*
X6706811Y8392311D01*
X6725612Y8377885D01*
X6747505Y8368817D01*
X6771000Y8365724D01*
X6794495Y8368817D01*
X6816388Y8377885D01*
X6835189Y8392311D01*
X6849614Y8411112D01*
X6858683Y8433005D01*
X6861776Y8456500D01*
X6858683Y8479995D01*
X6849614Y8501888D01*
X6835189Y8520689D01*
X6816388Y8535115D01*
X6794495Y8544183D01*
X6771000Y8547276D01*
X6747505Y8544183D01*
X6725612Y8535115D01*
X6706811Y8520689D01*
X6702700Y8515330D01*
X6690000Y8519642D01*
Y8764439D01*
X7094790D01*
X7095655Y8764553D01*
X7131591Y8761014D01*
X7166979Y8750279D01*
X7199592Y8732847D01*
X7227506Y8709939D01*
X7228037Y8709247D01*
X7718547Y8218736D01*
X7718246Y8218435D01*
X7756427Y8185825D01*
X7799240Y8159590D01*
X7845629Y8140375D01*
X7886035Y8130674D01*
X7889658Y8116743D01*
X7185680Y7468219D01*
X7174713Y7455079D01*
X7167522Y7439548D01*
X7164595Y7422686D01*
X7166131Y7405641D01*
X7172028Y7389573D01*
X7181881Y7375580D01*
X7195021Y7364613D01*
X7210552Y7357422D01*
X7227414Y7354495D01*
X7244460Y7356032D01*
X7260527Y7361928D01*
X7274520Y7371782D01*
X8049484Y8085700D01*
X8171700D01*
Y8295700D01*
X8132261D01*
Y8362657D01*
X8141587Y8369813D01*
X8158417Y8391747D01*
X8168997Y8417289D01*
X8172606Y8444700D01*
X8170460Y8460997D01*
X8182916Y8463687D01*
X8191014Y8436991D01*
X8194553Y8401055D01*
X8194439Y8400189D01*
Y6965210D01*
X8194553Y6964345D01*
X8191014Y6928409D01*
X8180279Y6893022D01*
X8162847Y6860408D01*
X8139939Y6832495D01*
X8139247Y6831963D01*
X8078355Y6771071D01*
X8066700Y6772606D01*
X8039289Y6768997D01*
X8013747Y6758417D01*
X7991813Y6741587D01*
X7974983Y6719653D01*
X7964403Y6694110D01*
X7960794Y6666700D01*
X7964403Y6639289D01*
X7974983Y6613747D01*
X7991813Y6591813D01*
X8013747Y6574983D01*
X8039289Y6564403D01*
X8066700Y6560794D01*
X8094110Y6564403D01*
X8119653Y6574983D01*
X8141587Y6591813D01*
X8158417Y6613747D01*
X8168997Y6639289D01*
X8172606Y6666700D01*
X8171071Y6678355D01*
X8231963Y6739246D01*
X8231964Y6739247D01*
X8232264Y6738946D01*
X8264875Y6777127D01*
X8291110Y6819940D01*
X8310325Y6866329D01*
X8322047Y6915154D01*
X8325986Y6965210D01*
X8325561D01*
Y8400189D01*
X8325986D01*
X8322047Y8450246D01*
X8310325Y8499071D01*
X8291110Y8545460D01*
X8264875Y8588273D01*
X8232264Y8626454D01*
X8231964Y8626153D01*
X8231963Y8626153D01*
X8171071Y8687045D01*
X8172606Y8698700D01*
X8168997Y8726110D01*
X8158417Y8751653D01*
X8141587Y8773587D01*
X8119653Y8790417D01*
X8094110Y8800997D01*
X8066700Y8804606D01*
X8039289Y8800997D01*
X8013747Y8790417D01*
X7991813Y8773587D01*
X7974983Y8751653D01*
X7964403Y8726110D01*
X7960794Y8698700D01*
X7964403Y8671289D01*
X7974983Y8645747D01*
X7991813Y8623813D01*
X8013747Y8606983D01*
X8039289Y8596403D01*
X8066700Y8592794D01*
X8078355Y8594329D01*
X8125753Y8546930D01*
X8119653Y8536417D01*
X8094110Y8546997D01*
X8066700Y8550606D01*
X8039289Y8546997D01*
X8013747Y8536417D01*
X7991813Y8519587D01*
X7974983Y8497653D01*
X7964403Y8472110D01*
X7960794Y8444700D01*
X7964403Y8417289D01*
X7974983Y8391747D01*
X7991813Y8369813D01*
X8001139Y8362657D01*
Y8295700D01*
X7961700D01*
Y8256261D01*
X7944511D01*
X7943645Y8256147D01*
X7907709Y8259686D01*
X7872322Y8270421D01*
X7839709Y8287853D01*
X7811795Y8310761D01*
X7811264Y8311453D01*
X7320753Y8801964D01*
X7321054Y8802265D01*
X7282873Y8834875D01*
X7240060Y8861110D01*
X7193671Y8880325D01*
X7144847Y8892047D01*
X7094790Y8895987D01*
Y8895561D01*
X6690000D01*
Y9054439D01*
X7662802D01*
X7664699Y9054689D01*
X7728849Y9050485D01*
X7793767Y9037571D01*
X7856444Y9016296D01*
X7915807Y8987021D01*
X7965574Y8953767D01*
X7965434Y8952700D01*
X7968884Y8926490D01*
X7979001Y8902067D01*
X7995094Y8881094D01*
X8016067Y8865001D01*
X8040490Y8854884D01*
X8053999Y8853106D01*
Y8952700D01*
Y9052294D01*
X8052825Y9052140D01*
X8001813Y9088335D01*
X7939273Y9122900D01*
X7873256Y9150245D01*
X7804592Y9170027D01*
X7734145Y9181996D01*
X7662802Y9186002D01*
Y9185561D01*
X7369000D01*
Y9333500D01*
X7189000D01*
Y9185561D01*
X7108341D01*
X7102724Y9196951D01*
X7103614Y9198112D01*
X7112683Y9220005D01*
X7115776Y9243500D01*
X7112683Y9266995D01*
X7103614Y9288888D01*
X7089189Y9307689D01*
X7070388Y9322115D01*
X7048495Y9331183D01*
X7025000Y9334276D01*
X7001505Y9331183D01*
X6979612Y9322115D01*
X6960811Y9307689D01*
X6946385Y9288888D01*
X6937317Y9266995D01*
X6934224Y9243500D01*
X6937317Y9220005D01*
X6946385Y9198112D01*
X6947276Y9196951D01*
X6941659Y9185561D01*
X6854341D01*
X6848724Y9196951D01*
X6849614Y9198112D01*
X6858683Y9220005D01*
X6861776Y9243500D01*
X6858683Y9266995D01*
X6849614Y9288888D01*
X6835189Y9307689D01*
X6816388Y9322115D01*
X6794495Y9331183D01*
X6771000Y9334276D01*
X6747505Y9331183D01*
X6725612Y9322115D01*
X6706811Y9307689D01*
X6702700Y9302331D01*
X6690000Y9306642D01*
Y9380000D01*
X8490000Y9380000D01*
Y5380000D01*
D02*
G37*
%LPC*%
G36*
X8079399Y9052294D02*
Y8965400D01*
X8166294D01*
X8164516Y8978910D01*
X8154399Y9003333D01*
X8138306Y9024306D01*
X8117333Y9040399D01*
X8092910Y9050516D01*
X8079399Y9052294D01*
D02*
G37*
G36*
X8166294Y8940000D02*
X8079399D01*
Y8853105D01*
X8092910Y8854884D01*
X8117333Y8865001D01*
X8138306Y8881094D01*
X8154399Y8902067D01*
X8164516Y8926490D01*
X8166294Y8940000D01*
D02*
G37*
G36*
X7279000Y8547276D02*
X7255505Y8544183D01*
X7233612Y8535115D01*
X7214811Y8520689D01*
X7200385Y8501888D01*
X7191317Y8479995D01*
X7188224Y8456500D01*
X7191317Y8433005D01*
X7200385Y8411112D01*
X7214811Y8392311D01*
X7233612Y8377885D01*
X7255505Y8368817D01*
X7279000Y8365724D01*
X7302495Y8368817D01*
X7324388Y8377885D01*
X7343189Y8392311D01*
X7357614Y8411112D01*
X7366683Y8433005D01*
X7369776Y8456500D01*
X7366683Y8479995D01*
X7357614Y8501888D01*
X7343189Y8520689D01*
X7324388Y8535115D01*
X7302495Y8544183D01*
X7279000Y8547276D01*
D02*
G37*
G36*
X7025000D02*
X7001505Y8544183D01*
X6979612Y8535115D01*
X6960811Y8520689D01*
X6946385Y8501888D01*
X6937317Y8479995D01*
X6934224Y8456500D01*
X6937317Y8433005D01*
X6946385Y8411112D01*
X6960811Y8392311D01*
X6979612Y8377885D01*
X7001505Y8368817D01*
X7025000Y8365724D01*
X7048495Y8368817D01*
X7070388Y8377885D01*
X7089189Y8392311D01*
X7103614Y8411112D01*
X7112683Y8433005D01*
X7115776Y8456500D01*
X7112683Y8479995D01*
X7103614Y8501888D01*
X7089189Y8520689D01*
X7070388Y8535115D01*
X7048495Y8544183D01*
X7025000Y8547276D01*
D02*
G37*
G36*
X7250000Y7940776D02*
X7226505Y7937683D01*
X7204612Y7928615D01*
X7185811Y7914189D01*
X7171385Y7895388D01*
X7162317Y7873495D01*
X7159224Y7850000D01*
X7162317Y7826505D01*
X7171385Y7804612D01*
X7185811Y7785811D01*
X7204612Y7771386D01*
X7226505Y7762317D01*
X7250000Y7759224D01*
X7273495Y7762317D01*
X7295388Y7771386D01*
X7314189Y7785811D01*
X7328615Y7804612D01*
X7337683Y7826505D01*
X7340776Y7850000D01*
X7337683Y7873495D01*
X7328615Y7895388D01*
X7314189Y7914189D01*
X7295388Y7928615D01*
X7273495Y7937683D01*
X7250000Y7940776D01*
D02*
G37*
G36*
X7927900Y7671919D02*
Y7635758D01*
X7964061D01*
X7962676Y7642723D01*
X7951537Y7659395D01*
X7934865Y7670534D01*
X7927900Y7671919D01*
D02*
G37*
G36*
X7902500D02*
X7895535Y7670534D01*
X7878864Y7659395D01*
X7867725Y7642723D01*
X7866339Y7635758D01*
X7902500D01*
Y7671919D01*
D02*
G37*
G36*
X7964061Y7610358D02*
X7927900D01*
Y7574197D01*
X7934865Y7575583D01*
X7951537Y7586722D01*
X7962676Y7603393D01*
X7964061Y7610358D01*
D02*
G37*
G36*
X7902500D02*
X7866339D01*
X7867725Y7603393D01*
X7878864Y7586722D01*
X7895535Y7575583D01*
X7902500Y7574197D01*
Y7610358D01*
D02*
G37*
G36*
X7122700Y7601361D02*
Y7565200D01*
X7158861D01*
X7157476Y7572165D01*
X7146336Y7588836D01*
X7129665Y7599975D01*
X7122700Y7601361D01*
D02*
G37*
G36*
X7097300D02*
X7090335Y7599975D01*
X7073664Y7588836D01*
X7062524Y7572165D01*
X7061139Y7565200D01*
X7097300D01*
Y7601361D01*
D02*
G37*
G36*
X7158861Y7539800D02*
X7122700D01*
Y7503639D01*
X7129665Y7505024D01*
X7146336Y7516164D01*
X7157476Y7532835D01*
X7158861Y7539800D01*
D02*
G37*
G36*
X7097300D02*
X7061139D01*
X7062524Y7532835D01*
X7073664Y7516164D01*
X7090335Y7505024D01*
X7097300Y7503639D01*
Y7539800D01*
D02*
G37*
G36*
X7571518Y7442472D02*
X7550058Y7438203D01*
X7531865Y7426047D01*
X7519709Y7407855D01*
X7515441Y7386395D01*
X7519709Y7364935D01*
X7531865Y7346742D01*
X7550058Y7334586D01*
X7571518Y7330317D01*
X7592978Y7334586D01*
X7611171Y7346742D01*
X7623327Y7364935D01*
X7627595Y7386395D01*
X7623327Y7407855D01*
X7611171Y7426047D01*
X7592978Y7438203D01*
X7571518Y7442472D01*
D02*
G37*
G36*
X7525000Y7055500D02*
X7335000D01*
Y6865500D01*
X7525000D01*
Y7055500D01*
D02*
G37*
G36*
X7430000Y6675319D02*
X7405200Y6672054D01*
X7382090Y6662482D01*
X7362246Y6647254D01*
X7347018Y6627410D01*
X7337446Y6604300D01*
X7334181Y6579500D01*
X7337446Y6554700D01*
X7347018Y6531590D01*
X7362246Y6511745D01*
X7382090Y6496518D01*
X7405200Y6486945D01*
X7430000Y6483680D01*
X7454800Y6486945D01*
X7477910Y6496518D01*
X7497755Y6511745D01*
X7512982Y6531590D01*
X7522555Y6554700D01*
X7525820Y6579500D01*
X7522555Y6604300D01*
X7512982Y6627410D01*
X7497755Y6647254D01*
X7477910Y6662482D01*
X7454800Y6672054D01*
X7430000Y6675319D01*
D02*
G37*
G36*
X8066700Y6518606D02*
X8039289Y6514997D01*
X8013747Y6504417D01*
X7991813Y6487587D01*
X7974983Y6465653D01*
X7964403Y6440110D01*
X7960794Y6412700D01*
X7964403Y6385289D01*
X7974983Y6359747D01*
X7991813Y6337813D01*
X8013747Y6320983D01*
X8039289Y6310403D01*
X8066700Y6306794D01*
X8094110Y6310403D01*
X8119653Y6320983D01*
X8141587Y6337813D01*
X8158417Y6359747D01*
X8168997Y6385289D01*
X8172606Y6412700D01*
X8168997Y6440110D01*
X8158417Y6465653D01*
X8141587Y6487587D01*
X8119653Y6504417D01*
X8094110Y6514997D01*
X8066700Y6518606D01*
D02*
G37*
G36*
X7369000Y6410000D02*
X7189000D01*
Y6230000D01*
X7369000D01*
Y6410000D01*
D02*
G37*
G36*
X7025000Y6410776D02*
X7001505Y6407683D01*
X6979612Y6398615D01*
X6960811Y6384189D01*
X6946385Y6365388D01*
X6937317Y6343495D01*
X6934224Y6320000D01*
X6937317Y6296505D01*
X6946385Y6274612D01*
X6960811Y6255811D01*
X6979612Y6241386D01*
X7001505Y6232317D01*
X7025000Y6229224D01*
X7048495Y6232317D01*
X7070388Y6241386D01*
X7089189Y6255811D01*
X7103614Y6274612D01*
X7112683Y6296505D01*
X7115776Y6320000D01*
X7112683Y6343495D01*
X7103614Y6365388D01*
X7089189Y6384189D01*
X7070388Y6398615D01*
X7048495Y6407683D01*
X7025000Y6410776D01*
D02*
G37*
G36*
X8066700Y6264606D02*
X8039289Y6260997D01*
X8013747Y6250417D01*
X7991813Y6233587D01*
X7974983Y6211653D01*
X7964403Y6186110D01*
X7960794Y6158700D01*
X7964403Y6131289D01*
X7974983Y6105747D01*
X7991813Y6083813D01*
X8013747Y6066983D01*
X8039289Y6056403D01*
X8066700Y6052794D01*
X8094110Y6056403D01*
X8119653Y6066983D01*
X8141587Y6083813D01*
X8158417Y6105747D01*
X8168997Y6131289D01*
X8172606Y6158700D01*
X8168997Y6186110D01*
X8158417Y6211653D01*
X8141587Y6233587D01*
X8119653Y6250417D01*
X8094110Y6260997D01*
X8066700Y6264606D01*
D02*
G37*
G36*
X7279000Y5623776D02*
X7255505Y5620683D01*
X7233612Y5611614D01*
X7214811Y5597188D01*
X7200385Y5578388D01*
X7191317Y5556495D01*
X7188224Y5533000D01*
X7191317Y5509505D01*
X7200385Y5487612D01*
X7214811Y5468811D01*
X7233612Y5454385D01*
X7255505Y5445317D01*
X7279000Y5442224D01*
X7302495Y5445317D01*
X7324388Y5454385D01*
X7343189Y5468811D01*
X7357614Y5487612D01*
X7366683Y5509505D01*
X7369776Y5533000D01*
X7366683Y5556495D01*
X7357614Y5578388D01*
X7343189Y5597188D01*
X7324388Y5611614D01*
X7302495Y5620683D01*
X7279000Y5623776D01*
D02*
G37*
G36*
X7025000D02*
X7001505Y5620683D01*
X6979612Y5611614D01*
X6960811Y5597188D01*
X6946385Y5578388D01*
X6937317Y5556495D01*
X6934224Y5533000D01*
X6937317Y5509505D01*
X6946385Y5487612D01*
X6960811Y5468811D01*
X6979612Y5454385D01*
X7001505Y5445317D01*
X7025000Y5442224D01*
X7048495Y5445317D01*
X7070388Y5454385D01*
X7089189Y5468811D01*
X7103614Y5487612D01*
X7112683Y5509505D01*
X7115776Y5533000D01*
X7112683Y5556495D01*
X7103614Y5578388D01*
X7089189Y5597188D01*
X7070388Y5611614D01*
X7048495Y5620683D01*
X7025000Y5623776D01*
D02*
G37*
%LPD*%
D10*
X8066700Y8952700D02*
G03*
X7662802Y9120000I-403898J-403898D01*
G01*
X4880000Y7390000D02*
G03*
X4700395Y7569605I-179605J0D01*
G01*
X5914395Y7315605D02*
G03*
X5734790Y7390000I-179605J-179605D01*
G01*
X6009000Y7115790D02*
G03*
X5934605Y7295395I-254000J0D01*
G01*
X4480000Y6158700D02*
G03*
X4734000Y5904700I254000J0D01*
G01*
X1011701Y9120000D02*
G03*
X757701Y8866000I0J-254000D01*
G01*
X2055210Y8830000D02*
G03*
X1350000Y8124789I-0J-705210D01*
G01*
X8185605Y6785605D02*
G03*
X8260000Y6965210I-179605J179605D01*
G01*
Y8400189D02*
G03*
X8185605Y8579795I-254000J0D01*
G01*
X7764905Y8265095D02*
G03*
X7944511Y8190700I179605J179605D01*
G01*
X7274395Y8755605D02*
G03*
X7094790Y8830000I-179605J-179605D01*
G01*
X7230100Y7420000D02*
X8066700Y8190700D01*
X6009000Y6320000D02*
Y7115790D01*
X4480000Y6158700D02*
Y7136000D01*
X4880000Y7390000D02*
X5734790D01*
X4659605Y7569605D02*
X4700395D01*
X5914395Y7315605D02*
X5934605Y7295395D01*
X1374916Y9120000D02*
X7662802D01*
X8066700Y6666700D02*
X8185605Y6785605D01*
X4734000Y5904700D02*
X8066700D01*
X757701Y6722700D02*
Y8866000D01*
X1011701Y9120000D02*
X1374916D01*
X6362565Y8100000D02*
X6490500D01*
X6109500D02*
X6237435D01*
X7944511Y8190700D02*
X8066700D01*
X1350000Y8124789D02*
X1350000Y8124523D01*
Y7635000D02*
Y8124523D01*
X2055210Y8830000D02*
X2055210Y8830000D01*
X2055211D02*
X7094790D01*
X6362565Y8100000D02*
X6362566Y8100000D01*
X8066700Y8190700D02*
Y8444700D01*
X8260000Y6965210D02*
Y8400189D01*
X8066700Y8698700D02*
X8185605Y8579795D01*
X7274395Y8755605D02*
X7764905Y8265095D01*
D20*
X6362565Y8100000D02*
D03*
X6237435D02*
D03*
D22*
X8066700Y8190700D02*
D03*
X1024550D02*
D03*
X8066700Y5904700D02*
D03*
D23*
Y8444700D02*
D03*
Y8698700D02*
D03*
Y8952700D02*
D03*
X1024550Y8444700D02*
D03*
Y8698700D02*
D03*
Y8952700D02*
D03*
X8066700Y6666700D02*
D03*
Y6412700D02*
D03*
Y6158700D02*
D03*
D24*
X5260000Y9000500D02*
D03*
X7430000Y6960500D02*
D03*
D25*
X5260000Y8619500D02*
D03*
X6319500Y7570000D02*
D03*
X7430000Y6579500D02*
D03*
X4480000Y7136000D02*
D03*
Y7644000D02*
D03*
X4734000Y7390000D02*
D03*
X4659605Y7210395D02*
D03*
X4300395D02*
D03*
X4659605Y7569605D02*
D03*
X4300395D02*
D03*
X6490500Y8100000D02*
D03*
D26*
X6700500Y7570000D02*
D03*
X4226000Y7390000D02*
D03*
X6109500Y8100000D02*
D03*
D27*
X1798700Y7220000D02*
D03*
X6487400Y7850000D02*
D03*
D28*
X2561300Y7220000D02*
D03*
X7250000Y7850000D02*
D03*
X7279000Y8456500D02*
D03*
X7025000D02*
D03*
X6771000D02*
D03*
X6517000D02*
D03*
X6263000D02*
D03*
X6009000D02*
D03*
X5755000D02*
D03*
X5501000D02*
D03*
Y9243500D02*
D03*
X5755000D02*
D03*
X6009000D02*
D03*
X6263000D02*
D03*
X6517000D02*
D03*
X6771000D02*
D03*
X7025000D02*
D03*
X7279000Y5533000D02*
D03*
X7025000D02*
D03*
X6771000D02*
D03*
X6517000D02*
D03*
X6263000D02*
D03*
X6009000D02*
D03*
X5755000D02*
D03*
X5501000D02*
D03*
Y6320000D02*
D03*
X5755000D02*
D03*
X6009000D02*
D03*
X6263000D02*
D03*
X6517000D02*
D03*
X6771000D02*
D03*
X7025000D02*
D03*
D29*
X1350000Y7635000D02*
D03*
D30*
X7279000Y9243500D02*
D03*
Y6320000D02*
D03*
D31*
X7571518Y7386395D02*
D03*
X7230100Y7420000D02*
D03*
X1430000Y5740000D02*
D03*
X1120000Y5760000D02*
D03*
X1243200Y5920200D02*
D03*
X7915200Y7623058D02*
D03*
X7110000Y7552500D02*
D03*
X757701Y6722700D02*
D03*
%TF.MD5,1f896149af965dd4e16e4f8b784bac2f*%
M02*
