%TF.GenerationSoftware,Altium Limited,Altium Designer,23.3.1 (30)*%
G04 Layer_Physical_Order=2*
G04 Layer_Color=36540*
%FSLAX45Y45*%
%MOMM*%
%TF.SameCoordinates,5C971558-4B59-40B4-890D-9BFF8048EDD7*%
%TF.FilePolarity,Positive*%
%TF.FileFunction,Copper,L2,Inr,Signal*%
%TF.Part,Single*%
G01*
G75*
%TA.AperFunction,Conductor*%
%ADD10C,0.70000*%
%ADD12C,0.25400*%
%TA.AperFunction,ComponentPad*%
%ADD23R,1.20000X1.20000*%
%ADD24C,1.20000*%
%ADD25C,1.30000*%
%ADD26R,1.30000X1.30000*%
%ADD27C,1.50000*%
%ADD28R,1.50000X1.50000*%
%ADD29R,1.20000X1.20000*%
%TA.AperFunction,ViaPad*%
%ADD30C,0.50000*%
%TA.AperFunction,Conductor*%
%ADD31C,0.35000*%
D10*
X11226123Y7276020D02*
G03*
X11670000Y6900000I443877J73980D01*
G01*
X8334000Y7230000D02*
G03*
X8080000Y6976000I0J-254000D01*
G01*
X8184000Y7780000D02*
G03*
X7930000Y7526000I0J-254000D01*
G01*
X7826000Y5777300D02*
G03*
X8080000Y6031300I0J254000D01*
G01*
X7676000Y5777300D02*
G03*
X7930000Y6031300I0J254000D01*
G01*
X8942501Y5640000D02*
G03*
X8789000Y5486500I0J-153500D01*
G01*
X11988198Y7031802D02*
G03*
X12120000Y7350000I-318198J318198D01*
G01*
X14620000Y8780000D02*
G03*
X14439999Y8960000I-180000J0D01*
G01*
X14450000Y7350000D02*
G03*
X14620000Y7520000I0J170000D01*
G01*
X11988198Y7668198D02*
G03*
X11224126Y7410802I-318198J-318198D01*
G01*
X10016510Y7410000D02*
G03*
X9836905Y7335605I0J-254000D01*
G01*
X11416000Y5486500D02*
G03*
X11670000Y5740500I0J254000D01*
G01*
X10059000Y5486500D02*
X11416000D01*
X9550000Y8820000D02*
Y9197000D01*
X8184000Y7780000D02*
X8880000D01*
X8334000Y7230000D02*
X8968700D01*
X8080000Y6031300D02*
Y6976000D01*
X7930000Y6031300D02*
Y7526000D01*
X7676000Y5777300D02*
X7826000D01*
X7493300D02*
X7676000D01*
X8942501Y5640000D02*
X11310000D01*
X9550000Y9197000D02*
X9551000D01*
X11849605Y7170395D02*
X11988198Y7031802D01*
X14620000Y7520000D02*
Y8780000D01*
X12120000Y7350000D02*
X14450000Y7350000D01*
X11224126Y7410000D02*
Y7410802D01*
X10016510Y7410000D02*
X11224126D01*
X11849605Y7529605D02*
X11983129Y7663129D01*
X11670000Y5740500D02*
Y6900000D01*
X11245851Y7279308D02*
X11416000Y7350000D01*
X11849605Y7529605D02*
X11849605D01*
X9731300Y7230000D02*
X9836905Y7335605D01*
D12*
X11416000Y7350000D02*
X11453431D01*
D23*
X8281000Y5486500D02*
D03*
Y8410000D02*
D03*
D24*
X8535000Y5486500D02*
D03*
X8789000D02*
D03*
X9043000D02*
D03*
X9297000D02*
D03*
X9551000D02*
D03*
X9805000D02*
D03*
X10059000D02*
D03*
Y6273500D02*
D03*
X9805000D02*
D03*
X9551000D02*
D03*
X9297000D02*
D03*
X9043000D02*
D03*
X8789000D02*
D03*
X8535000D02*
D03*
X8281000D02*
D03*
X8535000Y8410000D02*
D03*
X8789000D02*
D03*
X9043000D02*
D03*
X9297000D02*
D03*
X9551000D02*
D03*
X9805000D02*
D03*
X10059000D02*
D03*
Y9197000D02*
D03*
X9805000D02*
D03*
X9551000D02*
D03*
X9297000D02*
D03*
X9043000D02*
D03*
X8789000D02*
D03*
X8535000D02*
D03*
X8281000D02*
D03*
X9731300Y7230000D02*
D03*
X8968700Y7470000D02*
D03*
D25*
X11849605Y7170395D02*
D03*
X11490395D02*
D03*
X11849605Y7529605D02*
D03*
X11490395D02*
D03*
X11416000Y7350000D02*
D03*
X11670000Y7096000D02*
D03*
Y7604000D02*
D03*
X9169500Y6930000D02*
D03*
D26*
X11924000Y7350000D02*
D03*
X9550500Y6930000D02*
D03*
D27*
X7493300Y5777300D02*
D03*
Y6031300D02*
D03*
Y6285300D02*
D03*
Y8571300D02*
D03*
Y8317300D02*
D03*
Y8063300D02*
D03*
X14535451Y6285300D02*
D03*
Y6031300D02*
D03*
Y5777300D02*
D03*
D28*
X7493300Y6539300D02*
D03*
Y8825300D02*
D03*
X14535451Y6539300D02*
D03*
D29*
X8968700Y7230000D02*
D03*
X9731300Y7470000D02*
D03*
D30*
X14210001Y7890000D02*
D03*
X11310000Y5640000D02*
D03*
X9550000Y8820000D02*
D03*
X14260001Y9070000D02*
D03*
X14839999Y8620000D02*
D03*
X13780000Y8880000D02*
D03*
X8880000Y7780000D02*
D03*
X14439999Y8960000D02*
D03*
D31*
X11849605Y7170395D02*
X11896496D01*
%TF.MD5,5ccab397d10f4cf675bd5081150f7588*%
M02*
